<svg viewBox="0 0 128 128" xmlns="http://www.w3.org/2000/svg" role="img" aria-label="AxiFace amused">
  <rect width="128" height="128" rx="28" fill="#fff7ed"/>
  <text data-axi-part="symbol" x="64" y="31" text-anchor="middle" font-family="ui-sans-serif, system-ui, sans-serif" font-size="16" font-weight="800" fill="#431407" stroke="none" opacity="0"></text>
  <g fill="none" stroke="#431407" stroke-width="4" stroke-linecap="round" stroke-linejoin="round">
    <path data-axi-part="head" d="M32 38 C48 27 84 28 98 43 C108 60 103 91 88 101 C72 112 43 105 31 91 C20 76 22 51 32 38Z" fill="none"/>
    <g data-axi-part="brow-left"><path d="M36 42 Q44 37 52 42" /></g><g data-axi-part="brow-right"><path d="M76 42 Q84 37 92 42" /></g>
    <g fill="#431407"><g data-axi-part="left-eye"><circle cx="45" cy="55" r="6" /></g><g data-axi-part="right-eye"><circle cx="83" cy="55" r="6" /></g></g>
    <g data-axi-part="mouth" fill="none"><path d="M45 75 Q64 91 83 75" /></g>
    <path data-axi-part="hatch" d="M34 96 L46 86 M52 101 L68 86 M76 101 L91 86" opacity="0.28"/>
  </g>
</svg>
