<svg version="1.1" id="Layer_1" xmlns="http://www.w3.org/2000/svg" xmlns:xlink="http://www.w3.org/1999/xlink" x="0px" y="0px"
	 width="100%" viewBox="0 0 768 768" enable-background="new 0 0 768 768" xml:space="preserve">
<path fill="#000000" opacity="1.000000" stroke="none" 
	d="
M264.617065,153.548096 
	C290.612610,140.971100 317.578125,132.910690 345.751160,128.590134 
	C363.942413,125.800362 382.221802,124.962364 400.525757,125.757004 
	C442.318390,127.571381 481.591888,138.699249 517.924438,159.502609 
	C565.689026,186.851822 601.964233,225.026810 625.339417,275.096558 
	C626.700195,278.011200 628.815857,279.752686 631.595215,281.188202 
	C643.902100,287.544495 654.192810,296.450195 663.208679,306.866486 
	C671.457275,316.396362 675.363220,327.564117 676.332703,340.114502 
	C677.667358,357.392456 678.642517,374.659576 678.339478,391.993347 
	C678.100342,405.673950 676.295959,419.182007 673.864014,432.606506 
	C672.464233,440.333557 667.502930,446.101440 662.167480,451.423065 
	C653.636230,459.932190 644.227112,467.363800 633.424622,472.822540 
	C630.205322,474.449310 628.600464,476.824677 627.229492,480.108032 
	C618.773926,500.358063 607.535217,519.041016 594.024963,536.294312 
	C553.076416,588.587830 500.291687,622.293091 434.908813,634.651978 
	C368.645142,647.177368 306.459412,634.780212 248.757523,600.129517 
	C209.287994,576.427612 177.852966,544.611755 154.476913,504.898132 
	C149.555328,496.536804 146.034058,487.530365 142.549866,478.524994 
	C141.409042,475.576385 139.825256,473.407715 137.035736,471.806366 
	C131.693665,468.739777 126.803619,464.988068 121.829391,461.342133 
	C103.349731,447.797272 94.547653,429.392609 92.716393,406.862640 
	C90.855103,383.963135 92.662506,361.323944 95.907913,338.710602 
	C98.594635,319.990082 109.758995,306.681580 123.777252,295.226288 
	C126.096985,293.330658 128.350449,291.147156 131.013489,289.917175 
	C138.956207,286.248657 142.667877,279.505188 146.467957,272.054688 
	C173.008057,220.019745 212.069534,180.274750 264.617065,153.548096 
M290.318878,153.959671 
	C278.315155,158.532639 266.656158,163.848709 255.611511,170.426163 
	C207.642441,198.993317 171.500473,237.958420 150.596313,290.240112 
	C148.906082,294.467468 146.944717,298.735870 147.513138,304.174500 
	C150.973373,301.901764 152.814560,299.183411 154.001236,295.811096 
	C159.948029,278.911469 168.272858,263.213287 178.065491,248.246323 
	C194.876831,222.552017 217.494141,202.866943 242.670776,185.872391 
	C245.334503,184.074326 247.989792,181.608887 252.904861,181.490646 
	C248.641510,184.995621 244.671814,187.173859 242.156174,191.375656 
	C245.432922,190.866776 247.871872,189.518860 250.218567,187.985138 
	C255.820343,184.324036 260.585266,179.391891 265.773834,175.570724 
	C276.161102,167.920929 288.976288,164.173126 301.540009,160.695297 
	C303.282684,160.212906 305.301910,160.145859 305.587158,162.273712 
	C306.378204,168.174103 311.148865,168.598679 315.355469,169.978439 
	C322.637451,172.366928 329.933685,174.737854 335.274780,180.754669 
	C337.094696,182.804810 339.507355,183.995987 342.105560,184.727509 
	C358.013489,189.206329 374.516571,190.556885 390.649445,193.897461 
	C401.852478,196.217224 413.209869,193.368546 424.531067,193.810593 
	C432.098907,194.106110 444.741486,180.496414 444.896179,172.927994 
	C444.923065,171.611221 444.744568,170.257004 444.439941,168.972473 
	C443.174316,163.634888 444.468750,157.708527 440.372162,152.634064 
	C470.356415,156.027481 497.602509,166.202942 523.577209,180.608841 
	C524.003784,177.562103 523.530762,175.513809 520.820557,173.828033 
	C504.774048,163.846786 487.853455,155.697006 470.048279,149.440186 
	C435.238678,137.207947 399.389252,134.056961 362.772797,137.171432 
	C338.043610,139.274796 314.144836,144.688812 290.318878,153.959671 
M310.143250,294.760559 
	C305.709747,292.789764 302.193146,288.553284 296.375122,289.311218 
	C294.257690,298.821014 287.281342,291.893768 282.583527,293.020233 
	C278.590881,293.977631 275.643219,291.616486 275.187592,287.286316 
	C251.953552,286.376129 220.620911,304.852234 214.863922,322.674622 
	C216.198212,323.724426 218.289337,322.087250 219.678253,324.396088 
	C217.073212,329.192383 214.717682,334.523071 211.464066,339.233429 
	C208.359924,343.727356 207.713364,350.096222 202.612076,352.851318 
	C198.485184,355.080261 197.926849,358.364197 197.284149,362.203857 
	C195.927139,370.310913 195.667862,378.489624 196.225815,386.616821 
	C197.890717,410.867798 204.469803,432.431976 225.210434,448.342468 
	C238.188553,458.298157 251.359055,466.178223 267.542542,469.197144 
	C288.362244,473.080994 307.529541,469.694824 325.293579,458.132629 
	C346.866333,444.091461 355.007599,421.169678 364.050171,399.004913 
	C366.535797,392.912140 365.964539,385.934723 365.207489,379.213318 
	C364.423065,372.248840 363.424347,365.334137 361.829987,358.526520 
	C357.761475,341.154083 350.060089,325.678253 337.382660,312.909760 
	C336.356110,311.875854 334.618530,310.221985 333.820160,310.515045 
	C330.194885,311.845459 328.263641,309.240875 325.890137,307.709991 
	C321.836334,305.095276 318.069427,301.937561 313.779297,299.826080 
	C311.385590,298.647919 311.211487,296.986328 310.143250,294.760559 
M492.839172,292.381226 
	C492.039246,292.605499 491.252686,292.917694 490.437469,293.041199 
	C469.778870,296.171265 451.589813,304.131439 436.738495,319.334381 
	C433.868591,322.272217 431.838074,327.667816 425.798279,326.299652 
	C425.265839,326.179047 424.192596,327.830017 423.575317,328.789856 
	C408.197845,352.700439 405.415985,378.641754 411.299469,405.927521 
	C411.747833,408.006958 412.788452,409.975555 413.691406,411.932159 
	C414.071930,412.756714 414.537567,414.253998 415.712433,413.671326 
	C419.188171,411.947449 419.404266,415.008728 420.051025,416.694946 
	C423.995422,426.978424 430.281158,435.731537 437.659058,443.717102 
	C456.800995,464.435638 480.488434,473.787933 508.290802,468.431824 
	C540.817200,462.165619 562.761780,442.934784 572.937256,410.812012 
	C577.816833,395.407684 577.976746,379.894958 576.965698,363.962982 
	C575.119141,334.863190 556.410400,309.280060 529.062561,299.501740 
	C521.361023,296.747986 513.269653,295.417023 505.685486,292.464142 
	C501.565979,290.860229 497.696869,290.434052 492.839172,292.381226 
M130.636841,304.768982 
	C131.087906,302.433105 133.124237,301.349854 134.583771,299.823212 
	C136.268005,298.061554 137.698334,296.295959 136.123840,293.774902 
	C134.359589,293.043152 133.162292,294.123077 131.956558,294.932007 
	C123.878616,300.351654 117.047325,307.115784 110.831039,314.551208 
	C107.300941,318.773651 105.309227,323.694153 104.777840,329.055664 
	C104.318687,333.688202 105.125488,338.568848 107.456551,342.409973 
	C109.919762,346.468811 114.807625,346.835175 119.191536,345.677582 
	C123.083473,344.649902 126.590065,342.789307 127.460434,338.082031 
	C129.060364,329.429047 130.896423,320.819763 132.508881,312.168945 
	C132.963623,309.729340 133.262573,307.142334 130.636841,304.768982 
M464.169159,218.305099 
	C461.382263,214.944839 456.804504,214.616913 453.556580,212.037415 
	C452.388763,211.109955 451.270447,209.985291 449.574036,210.736816 
	C448.719666,211.115311 448.340424,211.882431 448.476288,212.764786 
	C448.775177,214.706024 450.304596,215.249435 451.919678,215.893051 
	C456.501892,217.719086 461.984680,218.416367 463.074280,224.796402 
	C463.319611,226.232834 464.747528,227.284988 466.306702,227.629837 
	C468.120148,228.030945 470.111572,228.334991 471.225708,226.414093 
	C472.296173,224.568466 470.893585,223.250641 469.604095,222.202911 
	C468.062805,220.950592 466.362640,219.893768 464.169159,218.305099 
M650.598328,304.909363 
	C653.361206,307.789001 655.117004,311.978668 660.737610,312.226227 
	C655.998474,305.315887 650.636108,299.921631 643.140503,294.798645 
	C644.072205,300.284576 648.198669,301.471497 650.598328,304.909363 
M392.443939,531.940247 
	C396.284119,531.940247 400.124268,531.940247 403.964447,531.940247 
	C399.257080,529.455017 394.597443,529.616028 389.909882,531.583740 
	C390.515747,531.697754 391.121582,531.811768 392.443939,531.940247 
z"/>
<path fill="#000000" opacity="1.000000" stroke="none" 
	d="
M310.838257,317.445801 
	C311.163849,319.497101 309.595184,319.749298 308.574341,320.491302 
	C302.083191,325.209229 302.473511,334.142273 309.463470,338.246460 
	C311.501923,339.443329 313.379456,340.474762 314.513306,342.775909 
	C315.523438,344.826019 317.590546,345.300873 319.656281,344.149445 
	C321.950836,342.870392 324.301575,342.542969 327.153168,343.119904 
	C326.763184,345.573669 324.910950,348.474182 328.401031,349.993469 
	C334.382477,352.597321 338.086914,348.953552 341.642731,344.389740 
	C345.348633,347.910461 346.757660,352.299377 347.984589,356.419891 
	C356.845886,386.179688 352.908478,413.922974 332.796844,438.104553 
	C316.936768,457.174194 296.005951,463.941864 271.814392,458.740448 
	C245.054260,452.986786 228.679779,435.580719 218.891525,410.583832 
	C215.406479,401.683807 211.931137,392.407593 214.382431,383.670227 
	C218.020782,370.701630 219.582275,357.032318 226.013901,344.836243 
	C234.955414,327.880798 247.434753,315.195801 266.551819,310.402069 
	C282.144440,306.492126 296.896576,308.858459 310.838257,317.445801 
z"/>
<path fill="#000000" opacity="1.000000" stroke="none" 
	d="
M463.945404,453.189240 
	C432.278900,437.293518 412.233032,390.737640 430.674896,351.354980 
	C438.665283,334.291412 448.829224,319.571320 466.638245,311.549164 
	C476.162872,307.258728 486.146606,304.734894 496.573669,304.756378 
	C504.847595,304.773438 513.283997,303.434052 521.373657,306.210358 
	C536.880310,311.532074 546.809387,323.154358 555.513794,336.325012 
	C561.461182,345.324066 564.554382,355.062134 565.519165,365.707275 
	C566.026062,371.300751 568.420349,376.557831 568.321899,382.363678 
	C567.962280,403.570465 559.631592,421.668640 546.866943,437.988464 
	C528.364990,461.643616 489.336761,466.617767 463.945404,453.189240 
M519.804077,319.551331 
	C514.114746,317.729767 508.382080,317.167480 502.757019,319.606567 
	C496.498169,322.320465 494.322235,329.177734 497.930084,334.972473 
	C503.794586,344.391754 512.814392,347.985535 523.421753,347.460480 
	C528.539062,347.207184 533.147095,344.807983 535.094910,339.459412 
	C537.018677,334.176971 534.463074,330.146698 530.935730,326.518005 
	C527.988953,323.486572 524.501221,321.298065 519.804077,319.551331 
M534.035767,352.144806 
	C534.491516,356.463867 537.776184,358.179504 542.080811,356.242432 
	C543.969238,355.392609 545.767761,354.075134 545.205566,351.734955 
	C544.706604,349.658203 542.733459,349.333527 540.776428,349.284180 
	C538.336243,349.222687 536.153381,349.726105 534.035767,352.144806 
M541.288391,393.749054 
	C543.527100,393.273895 544.947021,392.085907 544.440918,389.613800 
	C544.055847,387.732819 542.513367,386.848145 540.790710,386.790894 
	C538.884033,386.727509 536.431335,386.496582 536.043884,389.172607 
	C535.575928,392.404846 537.813660,393.457092 541.288391,393.749054 
z"/>
</svg>