<svg xmlns="http://www.w3.org/2000/svg" viewBox="0 0 210 210" fill="none" shape-rendering="auto"><metadata xmlns:rdf="http://www.w3.org/1999/02/22-rdf-syntax-ns#" xmlns:xsi="http://www.w3.org/2001/XMLSchema-instance" xmlns:dc="http://purl.org/dc/elements/1.1/" xmlns:dcterms="http://purl.org/dc/terms/"><rdf:RDF><rdf:Description><dc:title>Face Generator</dc:title><dc:creator>The Visual Team</dc:creator><dc:source xsi:type="dcterms:URI">https://www.figma.com/community/file/986078800058673824</dc:source><dcterms:license xsi:type="dcterms:URI">https://creativecommons.org/licenses/by/4.0/</dcterms:license><dc:rights>Remix of „Face Generator” (https://www.figma.com/community/file/986078800058673824) by „The Visual Team”, licensed under „CC BY 4.0” (https://creativecommons.org/licenses/by/4.0/)</dc:rights></rdf:Description></rdf:RDF></metadata><mask id="8v9qq1c1"><rect width="210" height="210" rx="105" ry="105" x="0" y="0" fill="#fff" /></mask><g mask="url(#8v9qq1c1)"><rect fill="#c07f50" width="210" height="210" x="0" y="0" /><g transform="translate(86.8 138.9) scale(.71856)"><path fill-rule="evenodd" clip-rule="evenodd" d="M20 47.5c0-1.4 1.2-2.6 2.6-2.6 3.2-.1 8-.7 12-2 2-.8 3.5-1.6 4.5-2.5 1-.8 1.4-1.7 1.4-2.6 0-.8-.4-1.7-1.4-2.5-1-1-2.6-1.8-4.6-2.4-3.9-1.4-8.7-2-12-2a2.5 2.5 0 0 1 .1-5.1c3.2 0 8-.6 12-2 2-.6 3.5-1.4 4.5-2.3 1-1 1.4-1.8 1.4-2.8 0-1-.4-1.8-1.4-2.7-1-.9-2.6-1.7-4.5-2.4a42 42 0 0 0-12-1.9 2.5 2.5 0 0 1 0-5c3.6 0 9 .6 13.6 2.1 2.3.8 4.6 1.9 6.3 3.5 1.8 1.5 3 3.7 3 6.4 0 2.8-1.2 5-3 6.5a17.4 17.4 0 0 1-5.4 3.2c2 .7 3.9 1.7 5.4 3 1.7 1.6 3 3.7 3 6.4 0 2.8-1.3 4.9-3 6.4-1.8 1.6-4 2.7-6.3 3.4-4.6 1.6-10 2.2-13.5 2.3-1.4 0-2.6-1-2.6-2.4Z" fill="#000"/></g><g transform="translate(2 11) scale(.71856)"><g stroke="#000" stroke-linecap="round"><path d="M106 43c-3.6 2.9-9.3 8.7-20.3 8.7-9.4 0-17.3-6.4-18.7-8.7M184.9 43c3.7 2.9 9.3 8.7 20.4 8.7 9.4 0 17.3-6.4 18.7-8.7" stroke-width="7"/><path d="m73 74 35.5 15.5L73 110M220.5 74 185 89.5l35.5 20.5" stroke-width="4" stroke-linejoin="round"/></g></g><g transform="translate(15 89.2) scale(.71856)"></g><g transform="translate(80.3 79.8) scale(.71856)"><path d="M37 14v27c-3.7.7-11 4-11 10.5 0 8.2 7.3 10.5 11 11.7" stroke="#000" stroke-opacity=".5" stroke-width="4" stroke-linecap="round" stroke-linejoin="round"/></g></g></svg>