<svg xmlns="http://www.w3.org/2000/svg" viewBox="0 0 210 210" fill="none" shape-rendering="auto"><metadata xmlns:rdf="http://www.w3.org/1999/02/22-rdf-syntax-ns#" xmlns:xsi="http://www.w3.org/2001/XMLSchema-instance" xmlns:dc="http://purl.org/dc/elements/1.1/" xmlns:dcterms="http://purl.org/dc/terms/"><rdf:RDF><rdf:Description><dc:title>Face Generator</dc:title><dc:creator>The Visual Team</dc:creator><dc:source xsi:type="dcterms:URI">https://www.figma.com/community/file/986078800058673824</dc:source><dcterms:license xsi:type="dcterms:URI">https://creativecommons.org/licenses/by/4.0/</dcterms:license><dc:rights>Remix of „Face Generator” (https://www.figma.com/community/file/986078800058673824) by „The Visual Team”, licensed under „CC BY 4.0” (https://creativecommons.org/licenses/by/4.0/)</dc:rights></rdf:Description></rdf:RDF></metadata><mask id="viewboxMask"><rect width="210" height="210" rx="105" ry="105" x="0" y="0" fill="#fff" /></mask><g mask="url(#viewboxMask)"><rect fill="#a66637" width="210" height="210" x="0" y="0" /><g transform="translate(86.8 138.9) scale(.71856)"><path d="M59 19.4a31 31 0 1 1-62 0c0-17.2 13.8-4.2 31-4.2 17 0 31-13 31 4.2Z" fill="#DE8383"/><path fill-rule="evenodd" clip-rule="evenodd" d="M57.5 28.6H-1.7c-.9-3-1.3-6-1.3-9.2 0-11.2 5.9-9.6 14.8-7a59.5 59.5 0 0 0 16.1 2.8c6 0 11.5-1.5 16.2-2.9 9-2.5 14.8-4.1 14.8 7a31 31 0 0 1-1.4 9.3Z" fill="#F9F9F9"/></g><g transform="translate(2 11) scale(.71856)"><g stroke="#000" stroke-linecap="round"><path d="M68 60.1c4.3-3.3 11-10 23.8-10.1a30 30 0 0 1 21.8 10.1" stroke-width="8.3"/><path d="M68 97.1c4.3-3.3 11-10 23.8-10.1a30 30 0 0 1 21.8 10.1" stroke-width="4.1"/><path d="M177 60.1c4.3-3.3 11-10 23.8-10.1a30 30 0 0 1 21.8 10.1" stroke-width="8.3"/><path d="M177 97.1c4.3-3.3 11-10 23.8-10.1a30 30 0 0 1 21.8 10.1" stroke-width="4.1"/></g></g><g transform="translate(15 89.2) scale(.71856)"></g><g transform="translate(80.3 79.8) scale(.71856)"><path d="M16.6 46.2A11.3 11.3 0 0 0 28.3 61 11.3 11.3 0 0 0 50 61h1a11.3 11.3 0 0 0 10.7-15A11.3 11.3 0 0 1 50 53.9a11.3 11.3 0 0 1-21.8 0h-1c-5 0-9.2-3.1-10.7-7.6Z" fill="#000" fill-opacity=".2"/></g></g></svg>