<svg xmlns="http://www.w3.org/2000/svg" viewBox="0 0 210 210" fill="none" shape-rendering="auto"><metadata xmlns:rdf="http://www.w3.org/1999/02/22-rdf-syntax-ns#" xmlns:xsi="http://www.w3.org/2001/XMLSchema-instance" xmlns:dc="http://purl.org/dc/elements/1.1/" xmlns:dcterms="http://purl.org/dc/terms/"><rdf:RDF><rdf:Description><dc:title>Face Generator</dc:title><dc:creator>The Visual Team</dc:creator><dc:source xsi:type="dcterms:URI">https://www.figma.com/community/file/986078800058673824</dc:source><dcterms:license xsi:type="dcterms:URI">https://creativecommons.org/licenses/by/4.0/</dcterms:license><dc:rights>Remix of „Face Generator” (https://www.figma.com/community/file/986078800058673824) by „The Visual Team”, licensed under „CC BY 4.0” (https://creativecommons.org/licenses/by/4.0/)</dc:rights></rdf:Description></rdf:RDF></metadata><mask id="viewboxMask"><rect width="210" height="210" rx="105" ry="105" x="0" y="0" fill="#fff" /></mask><g mask="url(#viewboxMask)"><rect fill="#ffdfbf" width="210" height="210" x="0" y="0" /><g transform="translate(86.8 138.9) scale(.71856)"><path fill-rule="evenodd" clip-rule="evenodd" d="M20 47.5c0-1.4 1.2-2.6 2.6-2.6 3.2-.1 8-.7 12-2 2-.8 3.5-1.6 4.5-2.5 1-.8 1.4-1.7 1.4-2.6 0-.8-.4-1.7-1.4-2.5-1-1-2.6-1.8-4.6-2.4-3.9-1.4-8.7-2-12-2a2.5 2.5 0 0 1 .1-5.1c3.2 0 8-.6 12-2 2-.6 3.5-1.4 4.5-2.3 1-1 1.4-1.8 1.4-2.8 0-1-.4-1.8-1.4-2.7-1-.9-2.6-1.7-4.5-2.4a42 42 0 0 0-12-1.9 2.5 2.5 0 0 1 0-5c3.6 0 9 .6 13.6 2.1 2.3.8 4.6 1.9 6.3 3.5 1.8 1.5 3 3.7 3 6.4 0 2.8-1.2 5-3 6.5a17.4 17.4 0 0 1-5.4 3.2c2 .7 3.9 1.7 5.4 3 1.7 1.6 3 3.7 3 6.4 0 2.8-1.3 4.9-3 6.4-1.8 1.6-4 2.7-6.3 3.4-4.6 1.6-10 2.2-13.5 2.3-1.4 0-2.6-1-2.6-2.4Z" fill="#000"/></g><g transform="translate(2 11) scale(.71856)"><path d="M58.7 45.3A60 60 0 0 1 91.4 36c18 0 34.8 7.8 32.6 9.3 0 18-3.3 0-31.6 0-30.5 0-33.7 18-33.7 0ZM165.7 45.3a60 60 0 0 1 32.7-9.3c18 0 34.8 7.8 32.6 9.3 0 18-3.3 0-31.6 0-30.5 0-33.7 18-33.7 0Z" fill="#000"/><path d="M87.3 69.1a4.1 4.1 0 0 1 7.8 0l3.3 10a4.1 4.1 0 0 0 4 3h10.5c4 0 5.7 5 2.4 7.4l-8.5 6.2c-1.5 1-2 3-1.5 4.6l3.2 10c1.3 3.9-3 7-6.3 4.7l-8.6-6.2c-1.4-1-3.4-1-4.8 0l-8.6 6.2a4.1 4.1 0 0 1-6.3-4.6l3.2-10c.6-1.8 0-3.6-1.5-4.7l-8.5-6.2a4.1 4.1 0 0 1 2.4-7.5h10.6c1.8 0 3.4-1.1 4-2.8l3.2-10ZM194.8 69.1a4.1 4.1 0 0 1 8 0l3.2 10a4.1 4.1 0 0 0 4 3h10.5c4 0 5.7 5 2.4 7.4l-8.5 6.2c-1.5 1-2 3-1.5 4.6l3.2 10c1.3 3.9-3.1 7-6.3 4.7l-8.6-6.2c-1.4-1-3.4-1-4.9 0l-8.5 6.2a4.1 4.1 0 0 1-6.4-4.6l3.3-10c.6-1.8 0-3.6-1.5-4.7l-8.5-6.2A4.1 4.1 0 0 1 177 82h10.5c1.8 0 3.4-1.1 4-2.8l3.2-10Z" fill="#FFEBB7"/></g><g transform="translate(15 89.2) scale(.71856)"></g><g transform="translate(80.3 79.8) scale(.71856)"><path d="M18.6 38.3A10 10 0 0 0 29 45a10 10 0 0 0 19.4 0h.9a10 10 0 0 0 9.5-6.7 10 10 0 0 1-10.4 13.4 10 10 0 0 1-19.4 0H28a10 10 0 0 1-9.5-13.4Z" fill="#000" fill-opacity=".2"/></g></g></svg>