<svg xmlns="http://www.w3.org/2000/svg" viewBox="0 0 600 600" fill="none" shape-rendering="auto"><metadata xmlns:rdf="http://www.w3.org/1999/02/22-rdf-syntax-ns#" xmlns:xsi="http://www.w3.org/2001/XMLSchema-instance" xmlns:dc="http://purl.org/dc/elements/1.1/" xmlns:dcterms="http://purl.org/dc/terms/"><rdf:RDF><rdf:Description><dc:title>Lorelei Neutral</dc:title><dc:creator>Lisa Wischofsky</dc:creator><dc:source xsi:type="dcterms:URI">https://www.figma.com/community/file/1198749693280469639</dc:source><dcterms:license xsi:type="dcterms:URI">https://creativecommons.org/publicdomain/zero/1.0/</dcterms:license><dc:rights>Remix of „Lorelei Neutral” (https://www.figma.com/community/file/1198749693280469639) by „Lisa Wischofsky”, licensed under „CC0 1.0” (https://creativecommons.org/publicdomain/zero/1.0/)</dc:rights></rdf:Description></rdf:RDF></metadata><mask id="viewboxMask"><rect width="600" height="600" rx="300" ry="300" x="0" y="0" fill="#fff" /></mask><g mask="url(#viewboxMask)"><rect fill="#ffffff" width="600" height="600" x="0" y="0" /><g transform="translate(-246 -234)"><path d="M496 375c10 1 20 4 27 11 3 3 5 7 6 11-11-5-22-6-33-6-6 1-12 4-17 7-23 12-43 29-66 41l-20 14-11 11c-1-5 1-10 2-14 4-10 11-17 19-24l24-17c13-9 27-19 41-26 9-4 18-8 28-8ZM701 411c-6 3-11 3-17 4-5 1-10 3-14 6-9 7-17 15-24 24-9 10-17 18-29 24l-7 2c-2 1-4 0-6 2-4 5-4 13-9 17-2 0-2-2-2-3v-13c1-5 3-12 7-16s9-4 13-8l15-10 23-18c6-5 13-10 20-13 10-3 21-3 30 2Z" fill="#000000"/></g><g transform="translate(-246 -234)"><path d="M685 500c2 0 5 0 6 2s-1 4-3 5l-19 10 11-1c4-1 7 0 10 3s3 7 1 10c-1 3-4 5-8 5-16 0-32 3-47 7-4 2-7 2-11 0-4-3-5-9-2-13 3-3 7-3 11-6 12-7 25-11 37-17l14-5ZM428 501c20 1 38 8 57 14l30 11c6 1 11 1 15 6 3 5 0 11-5 12-8 2-18-1-27-2-27-2-53-9-79-13-8-1-16-1-23-5-1-1-4-2-3-4 2-4 6-7 10-9 7-2 15 0 22 1 12 1 23 4 34 6l-25-8-15-4v-4l9-1Z" fill="#000000"/></g><g transform="translate(-246 -234)"></g><g transform="translate(-246 -234)"><path d="M516 651c18 5 31 16 48 21 7 3 14 4 21 2 11-2 21-8 32-10 8-1 17 1 22 7 5 5 7 12 7 19 0 8-4 16-9 23a84 84 0 0 1-53 26l-26-1c-14-2-27-6-40-13-6-4-13-9-17-15l13 7c16 8 33 14 51 15 8 0 17 0 25-2 10-2 19-6 27-12 6-4 11-8 15-14s6-15 3-22c-2-5-6-8-11-8-7-1-14 2-20 5l6 5c5 9 8 21 6 31-5-7-11-15-14-24-2-3-2-7-1-11-10 4-20 7-31 5l-1 11-5 25c-3-5-3-9-3-14 0-8 0-16 2-24-11-3-21-8-31-14-6 13-15 24-20 36-3-5-1-11 1-16 3-9 7-17 13-23-7-3-14-6-21-7s-14 2-18 7c-6 6-7 15-4 23 2 5 6 8 9 12-5 1-9-2-12-5-6-7-9-17-6-26 2-9 10-17 20-20 7-2 15-1 22 1Z" fill="#000000"/></g><g transform="translate(-246 -234)"><path d="M594 572a37 37 0 0 1 19 29c0 9-5 18-13 22l-17 7c-4 1-6 2-9 0-2-3-1-4 1-6 6-5 15-7 21-12 3-2 5-5 5-9 0-10-5-17-7-26v-5Z" fill="#000000"/></g><g transform="translate(-246 -234)"><path fill-rule="evenodd" clip-rule="evenodd" d="M485 464c18 2 36 4 53 10a1666 1666 0 0 0 38 10c5 1 10 2 15 1a176 176 0 0 1 15-1l8-4 3-2a163 163 0 0 1 85-11l15 2c5 0 9 2 13 3 4 2 7 3 11 3 3 1 6 2 7 4 2 3 0 6-3 7l-9 2h-3c2 18-3 38-11 55-6 11-14 21-25 27-9 6-22 9-33 10-11 0-24-2-34-7-9-4-17-13-21-22a63 63 0 0 1-6-36l3-21-7 1c-7 1-14 2-21 0l-9-1h-4v21c-4 18-13 35-25 49-6 6-13 12-21 16-12 6-25 11-39 14a94 94 0 0 1-75-16c-9-7-18-16-25-27s-10-24-11-37c0-7 1-15 3-22a123 123 0 0 0-11 5h-4c-1-2 0-4 2-5 5-6 13-9 20-12l4-1 28-10a278 278 0 0 1 74-5Zm-57 16h33a553 553 0 0 1 86 13c1 12 0 26-3 38-5 14-15 28-29 36l-22 11c-10 3-21 4-31 5-8 0-17-2-25-5l-22-10c-9-7-17-14-23-23-7-12-10-26-9-39l2-13v-6h1a129 129 0 0 1 36-7h6Zm269 4-21-3a157 157 0 0 0-56 12c-2 6-3 12-3 19-1 9-1 20 2 29 4 8 10 16 18 20 8 3 17 4 25 4 11 0 22-2 30-9 10-8 16-20 19-32 4-12 4-25 5-37l-19-3Z" fill="#000000"/></g></g></svg>