<svg xmlns="http://www.w3.org/2000/svg" viewBox="0 0 600 600" fill="none" shape-rendering="auto"><metadata xmlns:rdf="http://www.w3.org/1999/02/22-rdf-syntax-ns#" xmlns:xsi="http://www.w3.org/2001/XMLSchema-instance" xmlns:dc="http://purl.org/dc/elements/1.1/" xmlns:dcterms="http://purl.org/dc/terms/"><rdf:RDF><rdf:Description><dc:title>Lorelei Neutral</dc:title><dc:creator>Lisa Wischofsky</dc:creator><dc:source xsi:type="dcterms:URI">https://www.figma.com/community/file/1198749693280469639</dc:source><dcterms:license xsi:type="dcterms:URI">https://creativecommons.org/publicdomain/zero/1.0/</dcterms:license><dc:rights>Remix of „Lorelei Neutral” (https://www.figma.com/community/file/1198749693280469639) by „Lisa Wischofsky”, licensed under „CC0 1.0” (https://creativecommons.org/publicdomain/zero/1.0/)</dc:rights></rdf:Description></rdf:RDF></metadata><mask id="viewboxMask"><rect width="600" height="600" rx="300" ry="300" x="0" y="0" fill="#fff" /></mask><g mask="url(#viewboxMask)"><rect fill="#ffffff" width="600" height="600" x="0" y="0" /><g transform="translate(-246 -234)"><g fill="#000000"><path d="M675 381c5 0 8 4 9 8-11 3-23 8-34 13l-16 8c-7 4-14 7-22 9-5 1-9 0-13 3l-7 8c-3 3-4 7-6 12-1-1-3-2-3-4-2-5 0-11 2-16 2-6 3-12 8-17 3-4 5-8 9-10 4-3 10-4 14 0l1 6 25-14c11-4 21-8 33-6ZM481 383c14 2 32 1 44 7 9 4 13 11 18 19l-1 4c-4 3-9 4-14 2-4-2-6-6-9-8-2-2-5-2-8-3l-25-2c-12-1-24-6-36-7l-27-5-5-2c9-3 19-4 29-5 11 0 23-2 34 0Z"/><path d="M540 387c6-2 12-2 16 2 6 3 9 9 11 15 0-4 2-9 5-12 6 3 11 9 13 15 1 5 2 10 0 15s-9 8-13 5c-4-4-4-12-5-18-1 4-2 8-5 10s-7 1-9-2l-5-12-7-15-1-3Z"/></g></g><g transform="translate(-246 -234)"><path d="M623 498c2-1 5 2 6 3 8 8 19 13 30 13 5 0 11-1 16-3 2-2 4-5 7-6s7 0 9 2c4 3 4 10 0 13-5 7-14 10-22 11-10 1-21-2-30-8-8-4-14-10-17-18-1-3-2-6 1-7ZM530 500l3-1c3 2 1 5 0 7a97 97 0 0 1-50 38c-24 8-52 4-72-12-2-3-4-6-3-10s4-7 8-7c3 0 6 2 8 4 8 5 16 9 25 10 12 2 23 0 34-3 13-4 25-12 36-20 4-2 7-5 11-6Z" fill="#000000"/></g><g transform="translate(-246 -234)"></g><g transform="translate(-246 -234)"><path fill-rule="evenodd" clip-rule="evenodd" d="M661 646c3 3 6 8 7 12 3 5 4 11 3 17l-4-5-1-2-10-15-1-1v-1c-1-2-2-3-1-5 2-2 4-1 7 0Zm-30 25a40 40 0 0 1 29 13c3 4 7 7 8 10 2 4 2 8-2 10-5 4-13 5-20 5a5207 5207 0 0 1-42 1l-28 3-18 1-10 2-19 1c1-3 2-4 5-5l5-6 4-3c7-7 17-12 26-17l2-1c10-5 21-9 31-11 10-3 19-4 29-3Zm-6 29c-1-7 1-14 4-20-11-1-22 0-32 3l-1 11-1 7 30-1Zm11-19 1 1 4 1c6 2 11 7 15 12l3 3c-6 2-12 2-19 2h-10c4-6 6-12 6-19Zm-48 20c-1-5 0-10 1-15a254 254 0 0 0-43 21c10-3 21-4 31-5l11-1Z" fill="#000000"/></g><g transform="translate(-246 -234)"><path d="m591 528 2 2 7 22c4 8 10 15 15 23 4 6 6 13 5 20-1 6-4 12-9 16-7 7-16 12-25 16-5 3-11 4-17 2l5-4c11-9 25-14 36-24 2-2 4-6 4-9-1-7-5-11-8-16-5-9-10-16-13-25-2-7-4-16-2-23Z" fill="#000000"/></g><g transform="translate(-246 -234)"></g></g></svg>