<svg xmlns="http://www.w3.org/2000/svg" viewBox="0 0 180 180" fill="none" shape-rendering="auto"><metadata xmlns:rdf="http://www.w3.org/1999/02/22-rdf-syntax-ns#" xmlns:xsi="http://www.w3.org/2001/XMLSchema-instance" xmlns:dc="http://purl.org/dc/elements/1.1/" xmlns:dcterms="http://purl.org/dc/terms/"><rdf:RDF><rdf:Description><dc:title>Bottts</dc:title><dc:creator>Pablo Stanley</dc:creator><dc:source xsi:type="dcterms:URI">https://bottts.com/</dc:source><dcterms:license xsi:type="dcterms:URI">https://bottts.com/</dcterms:license><dc:rights>Remix of „Bottts” (https://bottts.com/) by „Pablo Stanley”, licensed under „Free for personal and commercial use” (https://bottts.com/)</dc:rights></rdf:Description></rdf:RDF></metadata><mask id="viewboxMask"><rect width="180" height="180" rx="0" ry="0" x="0" y="0" fill="#fff" /></mask><g mask="url(#viewboxMask)"><g transform="translate(0 66)"><mask id="sidesSquare-a" style="mask-type:luminance" maskUnits="userSpaceOnUse" x="14" y="16" width="152" height="44"><g fill="#fff"><rect x="14" y="16" width="36" height="44" rx="9"/><rect x="130" y="16" width="36" height="44" rx="9"/></g></mask><g mask="url(#sidesSquare-a)"><path d="M0 0h180v76H0V0Z" fill="#5e35b1"/><path d="M0 0h180v76H0V0Z" fill="#fff" fill-opacity=".3"/><path fill="#000" fill-opacity=".1" d="M0 38h180v38H0z"/></g></g><g transform="translate(41)"></g><g transform="translate(25 44)"><mask id="faceSquare01-a" style="mask-type:luminance" maskUnits="userSpaceOnUse" x="0" y="0" width="130" height="120"><rect width="130" height="120" rx="18" fill="#fff"/></mask><g mask="url(#faceSquare01-a)"><path d="M-2-2h134v124H-2V-2Z" fill="#5e35b1"/><g transform="translate(-1 -1)"><path d="M15 0h-4v18h4V0ZM23 0h-4v34h53.42a5 5 0 1 0 0-4H23V0Z" fill="#000" fill-opacity=".1"/><path d="M122 34.58a5 5 0 1 0-4 0V64h23v-4h-19V34.58Z" fill="#fff" fill-opacity=".2"/><path d="M114 46h-4v26h31v-4h-27V46ZM27 103.58a5 5 0 1 1 4 0V133H8v-4h19v-25.42Z" fill="#000" fill-opacity=".2"/></g></g></g><g transform="translate(52 124)"><path fill-rule="evenodd" clip-rule="evenodd" d="M18 10.22C18 21.78 24.47 28 38 28c13.52 0 20-6.34 20-17.78C58 9.5 57.17 8 55 8H21c-2.05 0-3 1.38-3 2.22Z" fill="#000" fill-opacity=".8"/><mask id="mouthSmile02-a" style="mask-type:luminance" maskUnits="userSpaceOnUse" x="18" y="8" width="40" height="20"><path fill-rule="evenodd" clip-rule="evenodd" d="M18 10.22C18 21.78 24.47 28 38 28c13.52 0 20-6.34 20-17.78C58 9.5 57.17 8 55 8H21c-2.05 0-3 1.38-3 2.22Z" fill="#fff"/></mask><g mask="url(#mouthSmile02-a)"><rect x="30" y="2" width="16" height="14" rx="2" fill="#fff"/></g></g><g transform="translate(38 76)"><rect y="4" width="104" height="42" rx="4" fill="#000" fill-opacity=".8"/><rect x="28" y="25" width="10" height="11" rx="2" fill="#8BDDFF"/><rect x="66" y="25" width="10" height="11" rx="2" fill="#8BDDFF"/><path fill-rule="evenodd" clip-rule="evenodd" d="M21 4h8L12 46H4L21 4Z" fill="#fff" fill-opacity=".4"/></g></g></svg>