<svg version="1.1" id="Layer_1" xmlns="http://www.w3.org/2000/svg" xmlns:xlink="http://www.w3.org/1999/xlink" x="0px" y="0px"
	 width="100%" viewBox="0 0 768 512" enable-background="new 0 0 768 512" xml:space="preserve">
<path fill="#000000" opacity="1.000000" stroke="none" 
	d="
M156.188019,243.370483 
	C159.851776,239.552521 160.536545,235.245224 160.079224,230.594009 
	C158.539871,214.938278 165.868225,204.024872 178.854034,196.495468 
	C184.691528,193.110794 188.669113,187.873657 193.495911,183.725662 
	C201.779602,176.606934 201.100555,167.741379 202.534943,159.134262 
	C204.591446,146.794235 207.497055,134.732071 211.411224,122.852127 
	C216.292953,108.035477 226.247910,97.444664 238.681244,88.759354 
	C260.670502,73.398788 285.487030,65.111511 311.462341,59.776009 
	C335.838776,54.768929 360.575287,52.992306 385.363159,53.045574 
	C424.347687,53.129353 462.757172,57.470261 499.272430,72.370857 
	C511.333160,77.292412 522.759094,83.410446 533.160767,91.386826 
	C551.389160,105.365051 559.391541,124.849915 563.174255,146.607040 
	C564.738892,155.606140 565.965027,164.665115 567.263306,173.708603 
	C567.509338,175.422272 567.588074,177.183136 569.540283,177.734344 
	C572.919800,178.688553 574.701721,181.225296 576.084778,184.109818 
	C578.806213,189.785660 583.526794,192.842682 588.923889,195.881470 
	C601.826599,203.146362 610.810242,213.330780 609.279541,229.590500 
	C608.782898,234.865875 609.643860,239.657120 613.059998,244.105606 
	C615.737366,247.592102 616.246704,252.109161 616.244934,256.494843 
	C616.238831,271.657227 616.168457,286.819641 616.108398,301.981995 
	C616.088074,307.103333 615.013611,311.959930 611.760437,316.034393 
	C609.743408,318.560638 609.266907,321.315247 609.294006,324.418640 
	C609.330261,328.570892 609.547668,332.818970 608.797729,336.860870 
	C607.094727,346.040436 600.853516,351.568207 592.610413,355.120300 
	C586.952942,357.558197 581.273438,359.945801 575.584534,362.309540 
	C572.055176,363.775940 569.793152,366.190918 567.923523,369.668854 
	C560.845825,382.835297 554.809265,396.591156 544.748291,408.052765 
	C531.371643,423.291504 514.195374,432.557465 495.992371,440.263855 
	C471.516083,450.626099 445.537201,454.525208 419.353699,457.409363 
	C406.123047,458.866730 392.883606,460.777222 379.561035,460.187225 
	C337.414398,458.320862 296.126831,452.477875 257.649170,433.517334 
	C234.944672,422.329254 218.338501,405.338959 207.147934,382.818115 
	C204.500870,377.490936 200.636108,372.913788 197.637924,367.772980 
	C195.483902,364.079590 190.248474,362.039764 186.151367,359.670959 
	C183.146545,357.933716 179.772003,356.826508 176.538773,355.495483 
	C164.974243,350.734772 159.827789,341.710236 159.745041,329.617950 
	C159.706909,324.044647 159.485229,318.880402 155.741425,314.151581 
	C152.850876,310.500488 153.207291,305.574646 153.122437,301.128876 
	C152.836273,286.137085 152.806824,271.140167 152.726013,256.144928 
	C152.702194,251.726395 154.050140,247.626816 156.188019,243.370483 
M488.936920,330.615784 
	C492.643890,331.196594 495.748718,329.840179 498.694275,327.740082 
	C502.899719,324.741699 506.985291,321.499786 511.471863,318.986359 
	C521.373291,313.439575 524.952393,304.299072 526.649292,293.912842 
	C527.186279,290.626038 527.584595,287.311859 528.259216,284.054260 
	C528.596191,282.427490 528.566406,280.438934 530.513245,279.423767 
	C530.760681,279.937195 531.047607,280.244385 531.018799,280.518341 
	C530.775513,282.827820 530.383484,285.124237 530.205139,287.437592 
	C528.630798,307.853516 520.152588,324.066925 503.068359,336.190155 
	C483.220490,350.274536 463.583923,364.568909 441.318359,374.703339 
	C436.994019,376.671631 432.800690,378.530060 427.504089,377.229736 
	C423.006134,376.125427 417.936646,376.124817 413.586121,379.807983 
	C414.536133,380.205200 415.249115,380.621460 416.017700,380.805389 
	C420.788788,381.947266 425.290253,383.407257 428.102081,387.964050 
	C430.989655,392.643646 434.774963,393.517090 439.697144,390.918793 
	C445.978638,387.602966 452.264099,388.777222 456.826508,393.963745 
	C457.959747,395.251953 458.910950,396.746185 461.293365,396.503998 
	C471.096558,395.507202 480.792725,394.140900 490.056000,390.562073 
	C492.937256,389.448883 495.802185,388.420532 494.117279,383.986115 
	C499.548798,384.076874 504.289307,383.279144 509.017670,382.415741 
	C511.982086,381.874420 515.123169,381.250580 516.592041,378.299774 
	C521.267273,368.907562 526.060181,359.552979 530.223572,349.931183 
	C540.360046,326.505371 545.105530,301.731781 547.805237,276.493561 
	C547.922058,275.401123 547.940796,274.086853 550.161438,274.190002 
	C549.221375,281.078186 548.174561,287.886932 547.382935,294.725220 
	C545.600525,310.120911 543.615723,325.438660 537.205933,339.805267 
	C532.659790,349.994659 528.338135,360.285156 524.007568,370.568970 
	C523.143738,372.620300 521.672485,374.689758 522.852356,377.089020 
	C524.624084,378.177734 526.176819,377.314789 527.738708,376.858368 
	C533.969177,375.037689 540.088989,372.327271 546.444824,371.558350 
	C557.739746,370.191833 560.652710,361.614868 562.380859,353.205902 
	C564.399536,343.382935 567.314758,333.887482 570.019775,324.296143 
	C570.141296,323.865540 570.577637,323.523773 570.788391,323.245117 
	C572.573242,322.682587 572.928589,325.623291 574.893616,324.538544 
	C575.941223,322.260742 578.220459,318.929047 575.789246,317.431580 
	C571.667786,314.893188 573.781311,312.214966 574.589111,309.779968 
	C576.790161,303.145416 579.292542,296.630310 579.626648,289.533173 
	C580.852112,263.507660 579.915161,237.616821 574.529785,212.039703 
	C572.847229,204.048141 572.364746,195.394684 564.523010,190.162140 
	C558.496521,186.140839 555.824768,180.021088 555.228210,173.240509 
	C554.511536,165.095718 552.776917,157.142303 551.619507,149.087738 
	C548.627930,128.268692 540.929626,110.290329 522.594238,97.767632 
	C508.349365,88.038643 492.987793,81.265602 476.653442,76.339096 
	C472.529419,75.095276 468.484863,73.454178 464.096649,73.178223 
	C460.262024,72.937080 458.799957,74.581055 459.807465,78.311989 
	C460.761627,81.845421 461.792938,85.353271 461.741241,89.075600 
	C461.512421,105.561844 459.592468,121.893768 457.263611,138.186371 
	C457.017426,139.908478 456.897919,141.932770 454.424774,142.167847 
	C453.407959,139.644791 453.380798,139.641464 453.632812,137.582886 
	C456.041962,117.903992 457.879913,98.227173 455.714081,78.362190 
	C454.928772,71.159363 454.612274,70.507210 447.326416,69.271996 
	C432.869324,66.821014 418.336334,65.440086 403.678558,64.771324 
	C376.804199,63.545166 350.105530,64.933273 323.547943,69.045044 
	C314.941101,70.377579 314.442322,71.038452 314.364594,79.432487 
	C314.185791,98.740364 313.714325,118.062218 316.050201,137.302078 
	C316.297882,139.341904 316.570282,141.561523 313.906128,143.051163 
	C311.994537,139.780701 312.081543,136.453659 311.821442,133.230515 
	C311.487030,129.086426 311.709381,124.932228 311.140930,120.770981 
	C309.173248,106.367455 308.960358,91.908188 310.487000,77.440681 
	C310.949310,73.059196 309.713501,71.611763 305.539185,72.596428 
	C281.469421,78.274178 258.790344,87.080978 239.305634,102.806122 
	C234.520523,106.667961 229.516037,110.409248 226.805588,116.214485 
	C223.350739,123.614052 220.368164,131.184921 218.265656,139.104065 
	C214.754410,152.329117 212.752350,165.807663 211.229614,179.372040 
	C210.756973,183.582275 209.098862,186.393539 205.076035,188.747803 
	C199.173172,192.202393 195.697830,198.861633 194.653748,204.978973 
	C189.831543,233.232239 187.655777,261.769653 189.404144,290.461945 
	C190.060898,301.239990 190.995026,312.032867 192.540192,322.712250 
	C193.366241,328.421417 195.979324,333.959625 200.411743,337.875580 
	C202.121078,339.385803 202.856079,340.640076 203.155762,342.656189 
	C204.235046,349.916656 205.939728,356.973419 208.951920,363.754272 
	C210.684311,367.654175 213.216110,369.861664 217.250839,370.826874 
	C224.531082,372.568451 231.752151,374.558685 239.037643,376.276703 
	C245.383820,377.773224 246.853897,376.192169 244.956909,370.043518 
	C242.501877,362.086090 239.474930,354.353790 236.218964,346.675262 
	C231.622025,335.834290 224.928177,325.804810 223.083450,313.868683 
	C221.305405,302.364105 219.546066,290.856140 217.890991,279.333557 
	C217.653564,277.680573 217.104675,275.783844 218.864746,273.923401 
	C220.860641,277.764252 220.573212,281.818268 221.305908,285.602417 
	C223.801239,298.490021 224.397675,312.023834 229.604233,324.026520 
	C235.705719,338.092285 241.532532,352.254120 246.819748,366.610199 
	C250.012207,375.278442 253.902161,382.230804 263.411682,385.287445 
	C266.982819,386.435272 269.935516,387.240601 273.791321,386.739197 
	C282.146790,385.652679 290.431488,386.356506 297.102386,392.573486 
	C299.781433,395.070282 303.009491,395.559875 306.436707,396.477142 
	C312.422058,398.079132 317.923706,396.003540 323.635376,396.069794 
	C330.644287,396.151123 331.009674,395.665527 330.169983,388.494385 
	C331.938141,388.246918 333.730957,388.054077 335.499146,387.727692 
	C336.641235,387.516876 337.908813,387.201782 338.255127,385.901459 
	C338.649872,384.419312 337.849335,382.958649 336.620422,382.596832 
	C332.164764,381.285034 329.901123,377.347473 326.545135,374.742371 
	C323.746216,372.569733 321.159485,369.618652 316.813446,371.206604 
	C315.292206,371.762390 314.099182,370.252136 312.890503,369.389648 
	C293.359802,355.453278 274.426605,340.744202 255.814102,325.605621 
	C247.933426,319.195831 241.997849,311.688538 239.995773,301.523956 
	C238.326080,293.046906 236.409302,284.602631 235.158691,276.062286 
	C232.655182,258.965759 229.434601,241.942368 231.545258,224.445541 
	C233.058289,211.902817 233.824860,199.258301 234.530212,186.637177 
	C234.734589,182.980438 235.931198,180.417786 238.467361,177.945251 
	C252.023468,164.729248 268.739594,157.335220 286.631805,152.738647 
	C318.410980,144.574493 351.008636,142.533905 383.641266,142.171555 
	C415.341217,141.819595 446.802673,145.291748 477.817963,151.849579 
	C497.829773,156.080841 516.184326,164.107254 530.869690,179.029800 
	C532.898010,181.090897 534.764526,183.218735 534.995117,186.234177 
	C536.123962,200.995972 537.228516,215.759796 538.270325,230.527924 
	C538.374817,232.009155 538.792480,233.786530 537.160400,234.924210 
	C535.908447,234.139099 535.910706,233.114807 535.776733,232.144318 
	C533.773254,217.642166 531.446716,203.194595 528.702393,188.811432 
	C528.061340,185.451462 526.419983,183.167770 523.616638,181.241867 
	C510.102661,171.957596 495.123352,166.164886 479.326782,162.254517 
	C455.775330,156.424423 431.743469,154.427750 407.600830,153.401978 
	C403.114471,153.211365 397.523621,151.778366 394.383301,153.854446 
	C390.205902,156.616089 386.343353,156.232590 382.355621,156.163651 
	C360.475464,155.785370 338.838623,158.186264 317.187073,160.925095 
	C306.603363,162.263885 296.229095,165.135696 285.671936,165.915710 
	C273.069580,166.846817 262.302185,171.937363 251.558899,177.631134 
	C245.245941,180.976898 241.338669,185.887070 241.042328,193.389999 
	C240.925629,196.344482 239.832825,199.246567 239.423676,202.205582 
	C236.459152,223.645203 230.204575,245.020462 238.000351,266.702484 
	C238.164688,267.159546 238.102890,267.694244 238.175949,268.188354 
	C239.951935,280.200989 241.497406,292.255371 244.170120,304.113800 
	C245.012573,307.851532 246.191071,311.560547 249.693863,313.823914 
	C266.212463,324.497437 281.814911,336.472961 297.898926,347.764069 
	C311.373627,357.223419 324.606995,367.027161 337.915985,376.721283 
	C340.016663,378.251434 342.202576,379.243744 344.848053,379.024323 
	C356.612885,378.048553 368.369995,376.959656 380.146118,376.146851 
	C390.923309,375.402985 401.594604,373.084747 412.493896,374.074982 
	C421.354919,374.879913 429.599396,373.166138 437.076050,368.015594 
	C450.243561,358.944672 463.483826,349.977936 476.769318,341.080566 
	C481.085724,338.189850 485.250214,335.208191 488.936920,330.615784 
M263.619629,407.952820 
	C265.647675,413.937286 267.687897,419.912323 270.533386,425.582001 
	C271.624939,427.756958 273.024658,429.507477 275.369415,430.336273 
	C282.100433,432.715485 288.670288,435.559570 295.632507,437.274384 
	C297.758331,437.797974 299.496887,437.819366 300.694855,435.527222 
	C302.937134,431.236908 305.041351,426.920227 305.624878,422.031494 
	C306.674500,413.238434 302.766724,407.652527 294.083710,405.777100 
	C286.293915,404.094635 278.468842,402.588379 270.853882,400.167297 
	C268.081177,399.285736 264.843628,396.776306 262.418854,398.902191 
	C259.704163,401.282288 263.130219,404.359161 263.619629,407.952820 
M474.919739,434.613129 
	C475.271423,435.544281 476.058350,435.929657 476.901764,435.681152 
	C486.847778,432.750427 497.686981,431.268311 501.972046,419.457977 
	C504.010803,413.838745 506.507385,408.387054 508.676178,402.812592 
	C509.245331,401.349701 510.367798,399.629669 508.853149,398.157257 
	C507.325439,396.672211 505.436188,397.198456 503.693359,397.877899 
	C497.792114,400.178528 491.784332,402.217255 485.551971,403.286438 
	C478.850647,404.436005 473.058624,406.082947 473.821655,414.738708 
	C473.890503,415.519623 473.492096,416.363831 473.223694,417.148926 
	C471.227905,422.986481 471.589996,428.607025 474.919739,434.613129 
M454.394836,413.188599 
	C438.949463,415.584839 423.525452,417.977142 407.844452,418.535248 
	C386.925446,419.279694 366.068573,422.347565 345.080597,420.149872 
	C339.791718,419.596069 333.268829,420.349823 329.599121,417.528778 
	C325.256561,414.190613 320.508392,413.431213 315.983032,411.538544 
	C313.836761,410.640869 310.825500,410.939453 311.143524,414.460052 
	C311.411743,417.428558 310.419769,421.695740 315.423889,421.988220 
	C325.215912,422.560516 335.027496,422.814453 344.814728,423.450317 
	C374.776886,425.396942 404.703400,425.409241 434.530823,421.631683 
	C444.173462,420.410492 453.723480,418.457794 463.611664,416.789856 
	C462.527405,410.849365 458.728668,412.290497 454.394836,413.188599 
M244.534286,412.948792 
	C250.483932,416.369568 255.532196,421.661652 263.556488,422.630829 
	C261.644501,413.016907 259.105164,404.462860 256.487610,395.930573 
	C255.957870,394.203735 254.383774,393.484894 253.022888,392.524323 
	C244.210022,386.303589 233.602631,385.112549 223.691101,381.974670 
	C222.525406,381.605652 221.348175,381.424408 220.612320,382.695435 
	C219.805908,384.088318 220.649612,385.264679 221.335159,386.383575 
	C227.436646,396.341919 234.068314,405.847473 244.534286,412.948792 
M510.106415,412.516724 
	C509.854462,413.132599 509.584747,413.741882 509.353912,414.365570 
	C508.674286,416.201691 507.201080,418.295319 508.850861,419.951721 
	C510.872498,421.981567 512.840881,419.793701 514.677429,418.929840 
	C527.093872,413.089752 536.270813,403.695404 543.910339,392.509247 
	C546.084167,389.326141 546.391235,386.665436 543.801331,383.535065 
	C537.480103,386.165558 531.413330,389.484039 524.922546,391.169281 
	C518.347473,392.876434 514.463318,396.051605 513.188049,402.732086 
	C512.600525,405.809998 511.316101,408.754852 510.106415,412.516724 
M177.915192,220.383957 
	C180.703247,218.536606 183.668884,216.839081 183.653809,212.840454 
	C183.647934,211.281250 183.531952,209.782089 181.950119,208.981537 
	C180.452835,208.223770 179.368195,209.189911 178.437851,210.131821 
	C176.450180,212.144241 174.358810,214.101990 172.679153,216.357147 
	C171.063766,218.525955 170.384796,221.042755 172.309464,223.454208 
	C174.614182,223.325531 175.734222,221.649338 177.915192,220.383957 
M175.940216,234.837082 
	C178.112991,233.077255 177.169876,231.384125 175.673721,229.909454 
	C174.789429,229.037796 173.496704,229.030930 172.556793,229.903137 
	C171.174728,231.185608 170.251556,232.935379 171.112808,234.706696 
	C172.075668,236.687027 173.841934,235.824127 175.940216,234.837082 
z"/>
<path fill="#000000" opacity="1.000000" stroke="none" 
	d="
M325.060425,219.410797 
	C338.149414,226.377670 347.350067,236.180756 350.563965,250.708847 
	C352.506439,259.489746 352.549988,268.348541 348.508606,276.584442 
	C343.216797,287.368561 337.388550,297.899963 326.571381,304.352020 
	C319.612854,308.502502 312.215515,310.556885 304.133759,308.105072 
	C302.315887,307.553528 300.137817,307.353638 299.256805,303.804108 
	C305.741791,304.996063 311.906860,305.380341 317.767212,302.005707 
	C314.350616,301.799500 311.170746,301.483887 307.986786,301.435364 
	C285.876678,301.098083 269.062622,278.874115 271.112396,255.411606 
	C271.727264,248.373383 273.458160,241.717453 276.999359,235.499878 
	C283.506073,224.075485 293.475433,218.550629 306.321777,217.643188 
	C307.151672,217.584579 308.008453,217.617172 308.803345,217.414078 
	C310.344971,217.020111 312.360321,217.098206 312.455750,214.776489 
	C312.551483,212.445923 310.632721,212.179550 309.037201,211.926743 
	C298.285522,210.223083 288.972717,213.918716 280.663452,220.243820 
	C270.154144,228.243622 266.997070,240.391296 264.520264,252.361771 
	C262.540619,261.929413 261.563171,271.932129 268.518402,280.685455 
	C265.599854,282.153107 264.514709,280.341461 263.323822,279.214172 
	C258.652405,274.792236 256.462860,269.076904 255.194763,262.950775 
	C253.117722,252.916611 252.762436,242.785187 254.535110,232.707596 
	C257.344971,216.733810 267.054047,205.897308 280.993622,198.421326 
	C282.313080,197.713684 283.686005,197.105774 285.006470,196.399857 
	C285.260376,196.264099 285.384766,195.886093 285.593567,195.584198 
	C284.769073,194.004440 283.396851,194.392075 282.148987,194.715500 
	C277.967041,195.799377 273.713379,196.626419 269.728973,198.414139 
	C268.011017,199.184952 265.742950,200.806900 264.524506,198.246796 
	C263.381683,195.845612 265.984436,194.833160 267.546814,193.795502 
	C273.402039,189.906662 280.189911,188.541153 286.938232,187.843811 
	C302.330750,186.253235 316.310455,190.080338 328.385864,200.104477 
	C332.194733,203.266312 335.072357,207.119751 336.928558,211.629105 
	C338.845062,216.284882 337.477570,218.197540 332.511627,218.370621 
	C329.387238,218.479523 326.288391,218.194275 323.055725,217.615891 
	C323.643250,218.150330 324.230774,218.684769 325.060425,219.410797 
M283.882904,247.676971 
	C284.242889,248.233597 284.551788,248.832367 284.970978,249.340118 
	C288.122131,253.157394 291.146545,251.367844 293.964172,248.957077 
	C296.807159,246.524597 298.072021,243.384445 295.377319,240.263290 
	C292.595215,237.040833 289.330261,238.429642 286.484253,240.539337 
	C284.370453,242.106262 283.285095,244.297531 283.882904,247.676971 
z"/>
<path fill="#000000" opacity="1.000000" stroke="none" 
	d="
M467.802124,307.482361 
	C452.371857,311.997559 437.807922,306.204315 429.763367,292.895447 
	C428.231506,290.361176 425.907715,288.319031 424.212952,285.867554 
	C414.659119,272.048004 412.439178,257.036102 419.863922,241.950302 
	C427.716156,225.995926 441.099976,216.909439 459.319916,216.788437 
	C478.364502,216.661957 495.908173,234.071716 497.309631,253.750504 
	C498.159515,265.684326 496.558685,276.956848 489.122345,286.868378 
	C480.522797,298.330292 468.667694,302.064178 454.969543,301.613556 
	C454.019196,301.582275 453.005829,301.096405 451.894775,302.516571 
	C455.735168,305.996185 460.575500,304.689026 464.901550,305.353912 
	C466.240570,305.559692 468.430359,304.234131 467.802124,307.482361 
M478.915985,245.458084 
	C477.261322,246.217392 476.022430,247.282806 476.740570,249.303940 
	C477.191071,250.571747 478.362305,250.886337 479.611328,250.804550 
	C481.047394,250.710495 482.348907,250.216766 482.492737,248.608261 
	C482.668732,246.640121 481.634766,245.486923 478.915985,245.458084 
z"/>
<path fill="#000000" opacity="1.000000" stroke="none" 
	d="
M505.629639,259.331360 
	C504.194000,246.337860 499.781097,234.952286 491.846741,225.137665 
	C481.402985,212.219009 465.790161,207.927948 450.059387,213.278427 
	C445.336639,214.884781 440.682495,216.741608 435.875305,218.029968 
	C433.570251,218.647736 430.505768,219.003876 428.872070,216.781479 
	C427.040558,214.290024 429.320435,212.035461 430.662598,210.065628 
	C447.081970,185.967468 474.476288,181.973068 499.303650,194.890533 
	C500.737701,195.636688 502.745178,196.608109 501.833649,198.567856 
	C500.701202,201.002563 498.661957,199.375305 497.070587,198.817703 
	C492.346832,197.162567 487.868805,194.415558 481.618805,195.583008 
	C503.403687,207.666702 518.678101,223.264618 516.041016,249.577393 
	C515.019165,259.773560 513.590332,270.284363 504.259552,277.441650 
	C505.056396,271.510406 506.268738,265.707458 505.629639,259.331360 
z"/>
<path fill="#000000" opacity="1.000000" stroke="none" 
	d="
M370.107117,338.751709 
	C382.645447,337.208679 394.720917,336.941467 406.688080,339.734497 
	C409.093933,340.295959 411.435059,341.213348 413.725372,342.161438 
	C415.070526,342.718262 416.645935,343.486755 416.110779,345.414490 
	C415.688721,346.934875 414.253876,347.194702 412.894470,347.257904 
	C411.070068,347.342682 409.240845,347.348328 407.413757,347.347107 
	C391.631348,347.336700 375.848633,347.262726 360.066711,347.343506 
	C356.684692,347.360779 353.294647,345.851654 349.849854,347.681671 
	C348.678833,348.303772 347.441528,346.896301 346.769379,345.678406 
	C346.169373,344.591248 345.995819,343.397583 346.921417,342.434357 
	C347.893036,341.423218 349.610504,340.602051 350.469452,341.578613 
	C353.126892,344.600128 355.530548,342.452759 358.098297,341.745728 
	C361.935638,340.689240 365.810394,339.768799 370.107117,338.751709 
z"/>
<path fill="#000000" opacity="1.000000" stroke="none" 
	d="
M553.163940,209.000000 
	C553.209412,219.310806 553.252808,229.121948 553.276306,238.933136 
	C553.279480,240.261780 553.272095,241.601624 553.109741,242.916550 
	C552.923157,244.427032 552.576355,246.017166 550.633606,246.122803 
	C548.350281,246.246964 547.952148,244.528000 547.815063,242.798004 
	C547.368896,237.167496 547.657288,231.524429 547.166931,225.869034 
	C545.876709,210.987122 544.667725,196.075760 545.702698,181.108246 
	C545.933472,177.769791 546.640076,174.528885 548.189941,171.536316 
	C548.737793,170.478516 549.582825,169.653961 550.940552,169.728287 
	C552.320557,169.803818 553.049988,170.653870 553.296997,171.901611 
	C553.842529,174.657318 555.315674,177.381485 554.663452,180.195084 
	C552.492371,189.560928 553.396118,199.054092 553.163940,209.000000 
z"/>
<path fill="#000000" opacity="1.000000" stroke="none" 
	d="
M223.211823,181.239563 
	C224.471298,201.674957 221.716034,221.539474 221.285416,241.480591 
	C221.247223,243.249191 220.920868,244.957794 218.699982,245.046265 
	C216.465393,245.135269 216.066971,243.419525 215.856186,241.683136 
	C215.776138,241.023682 215.759125,240.353424 215.757980,239.688019 
	C215.722519,218.876877 215.655884,198.065659 215.704269,177.254700 
	C215.710953,174.378250 215.278259,170.168793 219.033157,169.976440 
	C222.233780,169.812485 221.341949,174.107285 222.233032,176.420944 
	C222.762711,177.796188 222.869324,179.334366 223.211823,181.239563 
z"/>
<path fill="#000000" opacity="1.000000" stroke="none" 
	d="
M226.243378,154.132050 
	C225.096634,155.285568 224.379654,156.533157 222.794907,156.345398 
	C223.827988,151.442215 242.479065,132.182114 249.177460,129.630493 
	C242.051910,138.118500 233.479980,145.280670 226.243378,154.132050 
z"/>
<path fill="#000000" opacity="1.000000" stroke="none" 
	d="
M508.290527,94.007309 
	C516.854614,94.558167 529.962219,104.839813 532.049194,113.208282 
	C525.322937,105.331062 516.392395,100.345299 508.290527,94.007309 
z"/>
<path fill="#000000" opacity="1.000000" stroke="none" 
	d="
M522.536133,262.311523 
	C523.264038,262.771637 523.708862,263.039490 523.990234,263.426239 
	C525.805908,265.922211 527.351807,268.511597 524.580139,271.297363 
	C523.505127,272.377930 521.769409,272.472168 521.240479,271.061798 
	C520.118408,268.069885 518.110046,264.718170 522.536133,262.311523 
z"/>
<path fill="#000000" opacity="1.000000" stroke="none" 
	d="
M243.173981,268.868896 
	C243.719788,265.967896 244.282898,263.407074 247.564087,261.933899 
	C247.881897,265.398407 250.776108,268.498383 247.733673,271.299011 
	C245.751282,273.123901 244.162857,271.245117 243.173981,268.868896 
z"/>
<path fill="#000000" opacity="1.000000" stroke="none" 
	d="
M421.867615,347.664185 
	C419.842804,347.481201 418.092865,347.245850 418.055328,345.069427 
	C418.034119,343.839325 418.851440,342.948029 420.068817,342.603729 
	C421.443695,342.214935 422.723724,342.475128 423.513458,343.729187 
	C424.597595,345.450867 424.202728,346.816101 421.867615,347.664185 
z"/>
<path fill="#000000" opacity="1.000000" stroke="none" 
	d="
M572.719116,276.955811 
	C572.708008,274.692902 572.708008,272.821503 572.708008,270.950134 
	C574.673157,274.121155 576.068787,277.267609 574.569946,280.865295 
	C572.118958,280.440765 573.046509,278.597565 572.719116,276.955811 
z"/>
<path fill="#000000" opacity="1.000000" stroke="none" 
	d="
M220.553619,262.937164 
	C221.467346,265.068909 221.651642,266.937592 219.383682,267.658936 
	C218.116150,268.062042 217.117401,266.955994 217.172592,265.672852 
	C217.251373,263.840729 217.590897,261.923645 220.553619,262.937164 
z"/>
</svg>