<svg version="1.1" id="Layer_1" xmlns="http://www.w3.org/2000/svg" xmlns:xlink="http://www.w3.org/1999/xlink" x="0px" y="0px"
	 width="100%" viewBox="0 0 768 512" enable-background="new 0 0 768 512" xml:space="preserve">
<path fill="#000000" opacity="1.000000" stroke="none" 
	d="
M456.497314,95.383514 
	C480.499023,105.942543 501.918854,119.353310 517.072388,140.967010 
	C523.973022,150.809494 527.504822,162.134247 530.160767,173.701462 
	C530.837097,176.646667 532.360229,177.754364 534.964355,178.599747 
	C563.762512,187.948441 580.252319,208.083069 580.281067,236.857498 
	C580.294495,250.338455 581.160400,263.859802 579.365295,277.298370 
	C577.062378,294.538544 568.871887,307.935638 553.505859,316.635986 
	C551.796936,317.603607 549.883606,318.751038 548.887573,320.332977 
	C546.169495,324.649719 542.161560,327.071991 537.474365,327.642090 
	C532.077332,328.298462 530.881104,331.495697 530.319031,335.994598 
	C528.888611,347.443359 524.771729,357.766907 517.769470,367.088348 
	C507.405304,380.885071 493.275604,388.738953 477.412537,394.319305 
	C461.169006,400.033386 444.419617,403.513885 427.483856,406.212738 
	C424.232849,406.730835 422.125580,407.691223 422.077301,411.320801 
	C422.064301,412.298462 421.523804,413.263763 421.475250,414.247040 
	C420.545654,433.080109 407.993866,439.529266 394.911346,441.786102 
	C384.151184,443.642273 373.287872,442.904388 363.123352,438.111938 
	C355.506866,434.520752 350.344910,429.106262 348.415985,420.439392 
	C345.358276,406.700958 345.058594,406.800018 331.129181,404.340393 
	C313.350403,401.201141 296.105682,396.214447 279.737976,388.555298 
	C257.169617,377.994537 243.259933,360.637207 239.563019,335.710907 
	C238.928131,331.430267 237.496811,329.050842 232.841415,328.112854 
	C227.676498,327.072174 222.618332,325.152771 220.157608,319.473480 
	C219.533356,318.032745 217.428513,317.122986 215.860168,316.218750 
	C197.514816,305.642273 189.223419,289.153625 188.835968,268.620514 
	C188.538376,252.850311 187.095322,236.959000 190.671677,221.323425 
	C193.822937,207.546295 201.087570,196.473129 213.216537,189.058960 
	C220.217392,184.779480 226.578781,179.050598 235.327118,178.192917 
	C237.532013,177.976730 238.074768,175.948837 238.486191,174.148697 
	C244.125198,149.475525 257.932007,130.467606 278.053253,115.405128 
	C303.837860,96.103149 332.741516,85.577820 364.643494,82.554649 
	C396.169403,79.567116 426.774078,82.852028 456.497314,95.383514 
M247.394073,327.135590 
	C247.709000,328.937286 248.050964,330.734772 248.334671,332.541351 
	C251.540268,352.953918 261.830811,368.460144 280.218719,378.234100 
	C287.302002,381.999176 295.067474,384.113556 302.591248,386.785095 
	C322.160034,393.733612 342.437439,398.165405 363.028870,399.467560 
	C390.313202,401.192963 417.612885,400.082214 444.471924,393.732239 
	C459.260254,390.235992 473.974792,386.425354 487.534668,379.542053 
	C504.923431,370.715118 516.517151,356.954132 520.040710,337.257904 
	C522.127991,325.589722 522.736023,313.785828 522.924377,301.962799 
	C523.507629,265.341431 526.421326,228.697220 523.525635,192.106659 
	C522.161377,174.868774 516.008972,158.750778 506.743835,143.975906 
	C496.528259,127.685509 479.767334,119.182709 463.985931,110.526581 
	C430.739960,92.291061 394.460663,89.139229 357.257751,93.811447 
	C332.976135,96.860909 311.118561,106.258926 290.470154,118.926941 
	C262.114594,136.323364 246.467773,161.479980 245.214325,194.837341 
	C244.532745,212.975693 245.051392,231.160568 245.129135,249.324036 
	C245.138138,251.422775 246.418274,253.639725 246.040329,255.595322 
	C244.289856,264.652740 244.253021,273.807404 244.595062,282.905975 
	C245.138672,297.366302 245.078751,311.884979 247.394073,327.135590 
M568.689758,216.854309 
	C564.466614,206.867203 558.986145,198.001801 547.783508,193.290787 
	C547.783508,232.435104 547.783508,270.992859 547.783508,310.078613 
	C559.609558,303.726379 567.054382,294.667694 569.669739,281.989746 
	C572.857727,266.535156 571.558533,250.843918 571.764587,235.236023 
	C571.844299,229.195587 570.823547,223.329346 568.689758,216.854309 
M220.597717,252.848831 
	C220.597717,233.334686 220.597717,213.820526 220.597717,193.819244 
	C217.349930,194.682358 215.042603,195.973129 213.116913,197.785355 
	C207.085556,203.461472 202.247757,209.978882 200.199524,218.153290 
	C195.557693,236.678757 197.026093,255.491608 197.992447,274.234436 
	C198.622330,286.451385 203.675323,296.705536 213.442749,304.346497 
	C215.214035,305.732117 217.132370,307.696503 219.689240,306.448425 
	C222.318329,305.165131 221.736298,302.444916 221.623627,300.207977 
	C220.844666,284.742920 220.677856,269.267029 220.597717,252.848831 
M227.092606,222.499634 
	C227.472061,239.252930 225.458649,256.027588 227.399521,272.899597 
	C227.400665,269.332458 233.376373,268.636780 231.370132,264.462799 
	C229.015198,259.563354 229.993210,254.724106 231.247116,249.843704 
	C231.960236,247.068161 232.474243,244.173798 231.671280,241.444809 
	C227.662521,227.820618 229.903320,214.068863 230.543762,200.341110 
	C230.714600,196.679474 231.792480,192.866776 228.682053,188.322922 
	C226.532333,200.079147 227.353241,210.824966 227.092606,222.499634 
M540.015625,193.633789 
	C536.804688,200.659409 538.005249,207.360001 541.301270,215.233017 
	C541.301270,206.109055 541.301270,198.333389 541.301270,190.557724 
	C541.046875,190.552612 540.792480,190.547516 540.538086,190.542419 
	C540.411743,191.338043 540.285339,192.133682 540.015625,193.633789 
M534.487793,204.351410 
	C539.190430,201.093369 535.702454,198.258133 534.498474,193.967728 
	C532.053650,198.239975 531.531860,201.178268 534.487793,204.351410 
z"/>
<path fill="#000000" opacity="1.000000" stroke="none" 
	d="
M438.666382,297.653656 
	C431.611877,294.678650 425.682129,290.832886 421.071167,285.110809 
	C419.260956,282.864380 416.710876,281.397919 414.684418,279.263214 
	C410.578033,274.937531 409.556549,271.112701 413.107758,265.521332 
	C408.068878,265.873047 407.806305,263.193817 407.940125,260.021729 
	C408.122650,255.696716 407.651550,251.300308 408.265839,247.050919 
	C408.771423,243.553543 408.753967,238.910721 414.433929,239.035553 
	C415.663391,239.062576 415.959747,237.907974 416.418091,237.048386 
	C416.809631,236.314011 417.172302,235.561996 417.507050,234.799911 
	C422.198914,224.118332 427.756378,214.368591 441.093658,213.100479 
	C455.389587,211.741196 469.187653,212.690598 480.581482,222.840897 
	C488.589935,229.975327 490.693481,239.940414 492.000427,249.866791 
	C492.617310,254.552017 493.529297,256.712708 498.510071,255.089630 
	C499.548248,254.751297 500.805084,254.744110 502.140320,255.957108 
	C498.440216,258.824219 494.336487,259.336334 489.827881,259.267578 
	C489.436829,273.409088 484.366974,285.387756 472.077454,292.909851 
	C461.982666,299.088593 450.842346,301.544800 438.666382,297.653656 
M439.484192,282.325989 
	C425.709900,273.496185 419.240509,258.252686 424.739471,247.583832 
	C432.600433,247.798080 437.399963,242.579315 435.711914,235.582001 
	C433.041290,235.208923 430.974182,238.090347 427.507721,236.893585 
	C434.275299,227.788254 443.245392,224.487625 453.889618,224.626999 
	C472.591278,224.871872 482.227142,236.253220 488.103271,252.427948 
	C487.374054,248.131104 486.707062,243.861847 485.395081,239.800964 
	C479.642151,221.993881 455.054352,211.500671 439.528107,220.767792 
	C420.802704,231.944366 410.810059,252.704391 420.859436,275.211182 
	C426.699310,288.290344 442.235291,297.179474 454.535675,293.510468 
	C465.760895,290.162170 474.395782,282.709503 480.922302,273.142914 
	C483.949371,268.705811 484.581787,263.343750 483.252167,258.015411 
	C480.010254,278.133240 458.999451,291.506104 439.484192,282.325989 
M455.609314,256.043610 
	C457.270416,253.486359 456.863831,251.299011 454.183746,249.849899 
	C451.977417,248.656982 449.606689,249.313477 448.692535,251.408508 
	C447.576416,253.966324 448.553589,256.722565 450.688324,258.542175 
	C453.089294,260.588745 454.015320,257.996246 455.609314,256.043610 
M462.174957,260.182526 
	C462.325806,261.788513 463.018280,262.743378 464.700745,261.856598 
	C466.149445,261.093048 467.550598,260.075958 467.224640,258.130737 
	C467.070282,257.209747 466.661194,256.061035 465.481445,256.074005 
	C463.319427,256.097717 462.343292,257.467773 462.174957,260.182526 
z"/>
<path fill="#000000" opacity="1.000000" stroke="none" 
	d="
M276.036743,250.921936 
	C276.782837,244.208237 277.947845,238.011459 280.927063,232.312454 
	C288.394318,218.028214 300.822723,211.414047 316.328766,211.146210 
	C332.272278,210.870789 343.110718,219.667618 350.392059,233.307037 
	C351.557159,235.489502 352.307892,237.976669 355.308044,238.282532 
	C353.416992,244.303421 355.375153,249.268616 358.534424,253.797058 
	C360.386383,256.451630 360.945892,259.020355 360.507294,262.210999 
	C358.337982,277.992126 347.463623,286.906006 335.324829,295.069000 
	C320.243744,305.210663 296.434753,299.043732 285.816162,286.373718 
	C280.927002,280.540039 278.808594,273.582458 277.794830,266.251495 
	C277.253418,262.336029 278.943298,257.492249 272.240936,257.118561 
	C273.643127,254.611938 276.460388,253.972153 276.036743,250.921936 
M341.404724,266.612396 
	C337.401733,278.083984 329.431854,284.940277 317.334290,286.203461 
	C306.424103,287.342712 297.222473,283.895844 291.352844,274.021851 
	C285.803619,264.686859 287.140930,254.839844 288.756042,244.215942 
	C293.706207,246.820770 297.097168,245.652649 299.935516,242.445236 
	C301.314056,240.887421 302.328003,239.115555 301.038239,237.025742 
	C299.781250,234.988953 297.718719,234.923935 295.700928,235.330856 
	C292.143585,236.048279 290.005524,238.533661 288.372284,241.587189 
	C283.234741,251.192566 282.789612,261.531128 285.010468,271.741669 
	C289.058197,290.350861 311.933960,300.170135 330.292145,291.742432 
	C347.932251,283.644348 354.237396,266.854492 352.329926,253.281891 
	C349.410461,232.508118 335.110046,218.890717 316.589325,217.337906 
	C297.780884,215.761002 283.771454,228.216187 280.505096,247.416122 
	C281.729431,243.823013 282.646942,240.602844 284.735657,237.929352 
	C297.298798,221.848740 328.241669,220.049454 340.426178,238.886108 
	C342.641418,242.310806 345.177338,246.023727 344.567657,249.879333 
	C343.725861,255.202515 343.845306,260.770935 341.404724,266.612396 
M308.295380,254.573013 
	C307.409393,255.633621 305.590881,256.107117 306.136719,258.309021 
	C309.007294,259.521027 311.130493,262.051086 313.873230,264.210052 
	C315.829376,260.804291 318.826599,259.225281 322.133698,258.122314 
	C320.390533,256.139435 318.983307,254.524597 317.560150,252.923935 
	C316.276825,251.480576 315.376465,249.263672 313.033112,249.547073 
	C310.536194,249.849030 310.423340,252.760681 308.295380,254.573013 
z"/>
<path fill="#000000" opacity="1.000000" stroke="none" 
	d="
M426.705353,197.473907 
	C425.858704,192.058548 429.178925,190.298264 433.151367,189.329865 
	C440.007050,187.658585 446.680145,189.601959 453.354431,190.760773 
	C462.429413,192.336334 470.950592,195.586731 479.087402,199.863571 
	C481.677856,201.225128 484.324707,202.748276 482.976624,206.315628 
	C481.750183,209.561005 478.956329,210.810562 475.705200,210.191452 
	C470.984070,209.292404 466.348755,207.951447 461.658539,206.878952 
	C451.803589,204.625443 442.094116,201.580048 431.875732,201.263809 
	C429.434662,201.188248 427.855621,199.929077 426.705353,197.473907 
z"/>
<path fill="#000000" opacity="1.000000" stroke="none" 
	d="
M334.626465,202.321716 
	C325.649841,200.598541 317.012268,200.876572 308.380157,201.351578 
	C304.461334,201.567215 301.054749,203.352875 297.757355,205.350677 
	C296.341461,206.208511 294.917145,207.098083 293.394012,207.723160 
	C290.655640,208.846924 288.515625,207.636353 286.858154,205.515778 
	C284.986755,203.121445 286.197815,201.034775 287.989288,199.367599 
	C292.182983,195.464859 297.016541,192.447601 302.556824,190.990677 
	C314.200745,187.928665 325.899628,187.907883 337.456879,191.506805 
	C340.517029,192.459717 344.595673,193.271347 343.522736,197.845154 
	C342.530487,202.074936 339.318695,203.563187 334.626465,202.321716 
z"/>
<path fill="#000000" opacity="1.000000" stroke="none" 
	d="
M394.047668,339.356995 
	C371.233856,342.904358 351.557922,335.225464 338.460663,319.409698 
	C341.485260,316.611053 343.774933,318.436890 346.087891,320.426880 
	C354.461884,327.631714 363.890747,332.464935 375.009369,333.923401 
	C391.937531,336.143890 406.878143,331.460266 420.411621,321.480835 
	C421.213776,320.889343 421.930450,320.182098 422.731140,319.588409 
	C424.322723,318.408447 426.152924,316.644775 427.889587,318.818390 
	C429.413635,320.725922 427.439087,322.203369 426.156555,323.395782 
	C417.151154,331.768402 406.491058,336.891022 394.047668,339.356995 
z"/>
<path fill="#000000" opacity="1.000000" stroke="none" 
	d="
M286.334412,169.304352 
	C289.462006,167.385971 292.271027,165.644424 294.969604,163.971344 
	C294.822754,162.191788 292.544159,163.324158 292.725403,160.904251 
	C298.596313,157.386841 305.184509,154.858871 312.465729,153.677231 
	C325.254730,151.601746 334.176514,158.693710 343.119659,165.946060 
	C340.619293,168.406937 338.155273,168.508682 334.609833,164.917343 
	C330.226166,160.477020 325.110748,158.648651 319.107452,158.011017 
	C313.370056,157.401611 308.854889,157.616028 304.142303,162.520248 
	C299.218689,167.644043 292.310272,171.060806 285.872955,174.476501 
	C278.670380,178.298264 273.899078,183.746078 271.380402,191.390442 
	C270.935852,192.739838 270.581268,194.309433 268.961334,194.942703 
	C266.284973,187.673508 273.569550,176.820053 286.334412,169.304352 
z"/>
<path fill="#000000" opacity="1.000000" stroke="none" 
	d="
M421.305969,164.237427 
	C429.481232,156.044174 439.186920,152.804092 450.178314,153.872055 
	C464.367096,155.250732 477.952362,158.919235 490.403625,166.134171 
	C491.105560,166.540924 491.709229,167.143646 492.283783,167.728668 
	C492.469543,167.917831 492.415436,168.342560 492.465088,168.658829 
	C491.653046,170.943878 489.298553,168.419159 488.229858,170.011765 
	C488.701996,172.270584 492.082031,172.938980 491.258972,176.602646 
	C486.161682,174.835510 481.913239,171.886490 477.980804,168.614059 
	C466.931793,159.419266 454.194214,156.743896 440.245453,158.182953 
	C434.800537,158.744675 430.734955,161.851913 426.695923,165.119141 
	C424.233582,167.110947 421.698486,169.109589 418.173401,167.416977 
	C417.976410,165.231750 419.894684,165.206345 421.305969,164.237427 
z"/>
<path fill="#000000" opacity="1.000000" stroke="none" 
	d="
M257.201782,242.770172 
	C256.165649,238.264359 255.921616,234.133636 255.936752,229.953568 
	C255.948196,226.794968 256.540131,224.018692 259.824432,221.798233 
	C259.824432,231.712097 260.367645,241.421158 259.588348,251.022888 
	C259.215576,255.616043 253.870758,254.345306 250.563202,255.287918 
	C251.725037,251.994461 255.823700,254.174072 257.208862,251.494003 
	C258.611053,248.781052 257.854736,245.971558 257.201782,242.770172 
z"/>
<path fill="#000000" opacity="1.000000" stroke="none" 
	d="
M270.839783,339.763062 
	C269.203369,336.344574 267.710114,333.235138 268.363129,328.177917 
	C272.077728,332.947205 272.604034,337.400665 273.740662,341.846802 
	C271.756897,341.991028 271.555481,340.823822 270.839783,339.763062 
z"/>
<path fill="#000000" opacity="1.000000" stroke="none" 
	d="
M261.764465,206.053146 
	C260.884003,208.862427 261.237579,211.684967 258.281433,215.119919 
	C258.101105,210.061798 258.745789,206.563324 260.316803,203.143234 
	C262.430908,203.286697 261.761322,204.679718 261.764465,206.053146 
z"/>
</svg>