<svg version="1.1" id="Layer_1" xmlns="http://www.w3.org/2000/svg" xmlns:xlink="http://www.w3.org/1999/xlink" x="0px" y="0px"
	 width="100%" viewBox="0 0 768 512" enable-background="new 0 0 768 512" xml:space="preserve">
<path fill="#000000" opacity="1.000000" stroke="none" 
	d="
M142.466858,513.000000 
	C147.404007,501.904938 153.080582,490.996948 161.285141,481.599670 
	C167.603012,474.363403 174.697754,468.146790 183.389542,463.960419 
	C188.338806,461.576630 193.465118,460.201904 198.533524,463.759735 
	C200.217590,464.941925 201.611847,464.559448 203.044220,463.390778 
	C213.446579,454.903076 224.831512,448.084595 237.352310,443.189728 
	C237.752304,443.033386 238.042740,442.596802 238.861694,441.863068 
	C234.106415,440.292755 229.734894,438.885040 225.387177,437.407257 
	C206.430267,430.963989 189.119019,421.683746 173.874710,408.512024 
	C154.066406,391.396912 139.630432,370.995392 133.590256,345.197845 
	C132.993271,342.648102 131.676163,341.224609 129.055206,340.632446 
	C123.830338,339.452057 120.839142,335.799103 119.300377,330.885864 
	C116.746437,322.731201 115.579994,314.345032 115.712776,305.814545 
	C115.757950,302.912415 115.002884,300.915955 112.528931,299.084595 
	C105.763878,294.076843 103.366379,286.481201 102.056808,278.700775 
	C98.942657,260.199036 98.544167,241.605682 101.719070,223.050964 
	C102.674477,217.467453 105.137154,212.549652 110.278748,209.580521 
	C112.978027,208.021774 113.671814,205.800766 113.650253,202.911728 
	C113.594376,195.426208 113.661385,187.970703 115.510544,180.597794 
	C116.697311,175.865952 119.017815,172.061142 122.465279,168.744308 
	C126.302399,165.052567 130.006134,161.222534 133.804626,157.490036 
	C134.787262,156.524460 135.370361,155.450867 135.760803,154.110428 
	C138.550201,144.534103 142.739563,135.421997 144.966797,125.639633 
	C146.118729,120.580276 148.747528,115.993416 151.647461,111.732063 
	C168.930252,86.335556 188.797226,63.337959 214.733276,46.339039 
	C241.374710,28.877804 270.627808,18.626934 302.400055,15.593762 
	C343.238068,11.695116 384.194550,10.702273 425.142426,11.942167 
	C459.843170,12.992898 493.530487,19.758112 524.907776,35.448734 
	C550.129395,48.061127 573.176086,63.753586 592.362061,84.651077 
	C602.675232,95.884270 612.370300,107.812874 616.632385,122.651375 
	C619.114990,131.294510 622.640442,139.072403 627.358521,146.546478 
	C629.754395,150.341873 631.804504,154.363464 633.881104,158.350433 
	C636.258728,162.915237 638.544495,167.159027 643.672974,169.719223 
	C649.767090,172.761475 651.984985,179.035889 653.188599,185.405502 
	C654.297913,191.275955 655.058594,197.213577 655.913818,203.130127 
	C656.215332,205.215805 656.827087,206.844086 659.024231,207.786743 
	C664.390137,210.088928 666.992432,214.657394 668.282654,220.064987 
	C670.890442,230.995941 671.457764,242.141388 670.857056,253.287155 
	C670.401855,261.732269 670.474243,270.289398 668.198792,278.549316 
	C666.406555,285.055176 664.192261,291.376923 657.536377,294.658569 
	C655.053223,295.882874 655.257568,298.037933 655.182617,300.206177 
	C654.889282,308.693848 653.967468,317.100494 652.348816,325.453796 
	C650.928406,332.784210 647.251221,338.011292 639.956421,340.300598 
	C637.732056,340.998627 636.131653,342.260132 635.421387,344.530182 
	C627.410950,370.131714 611.672852,390.562561 593.764832,410.099335 
	C579.862671,425.265808 563.251587,434.426239 544.140808,440.234711 
	C541.500366,441.037231 538.863220,441.850647 535.958130,442.740570 
	C537.802490,444.848328 540.059631,445.042664 542.003479,445.790405 
	C551.446228,449.422699 559.563843,455.262787 567.668640,461.107849 
	C569.689514,462.565277 571.330017,463.273529 573.993347,462.308350 
	C578.837524,460.552826 583.522278,462.054779 587.861755,464.485107 
	C605.618652,474.429901 617.069031,489.865814 625.538452,507.882660 
	C626.245605,509.386993 626.962036,510.886932 627.837036,512.694458 
	C622.977905,513.000000 617.955811,513.000000 612.376221,512.647461 
	C605.342896,497.760498 596.095764,485.455078 582.643860,476.678528 
	C577.250977,473.160004 575.832031,473.582855 571.940186,478.685883 
	C563.932190,489.186249 558.488037,501.106262 553.000000,513.000000 
	C541.979126,513.000000 530.958191,513.000000 519.361511,512.639526 
	C511.825348,492.428558 504.864960,472.578125 497.724396,452.213745 
	C485.119568,457.510925 472.551056,460.656464 460.079987,464.090240 
	C435.309814,470.910370 410.132202,475.335022 384.350464,474.959137 
	C359.795990,474.601166 335.729126,470.895203 312.348389,463.132935 
	C306.946533,461.339539 305.772797,462.037079 306.340912,467.582764 
	C307.895569,482.758453 309.155090,497.981506 312.000000,513.000000 
	C310.611115,513.000000 309.222198,513.000000 307.316895,512.588135 
	C305.130798,499.014526 302.749969,485.891663 302.029114,472.678223 
	C301.505524,463.080261 298.956757,456.817749 288.735291,454.631256 
	C283.386353,453.487061 278.623566,449.947510 272.553497,448.876282 
	C267.399689,470.935425 259.384003,491.711945 253.000000,513.000000 
	C241.645767,513.000000 230.291550,513.000000 218.326355,512.671265 
	C217.010712,510.839844 216.347519,509.315979 215.594635,507.837830 
	C210.241241,497.326996 205.088028,486.689331 197.051056,477.838104 
	C194.977829,475.554840 192.897308,473.342682 189.410065,475.479370 
	C174.734467,484.471283 164.775375,497.400330 158.000000,513.000000 
	C152.977905,513.000000 147.955811,513.000000 142.466858,513.000000 
M608.674377,193.671417 
	C608.286255,187.029617 607.614807,180.389374 607.578003,173.745621 
	C607.525757,164.323853 604.231750,157.559128 595.473938,152.745407 
	C579.097900,143.744293 562.577148,135.181900 545.016785,128.729416 
	C538.479309,126.327240 532.144531,123.692078 524.809387,123.905167 
	C517.842102,124.107574 512.796448,118.138809 506.388123,116.361244 
	C486.523956,110.851288 466.522797,106.351921 445.791229,104.844910 
	C426.570923,103.447762 407.433105,101.325485 388.114166,102.028923 
	C355.849243,103.203720 323.602295,104.532066 291.895966,111.369499 
	C281.717590,113.564453 270.950775,113.208351 261.441589,118.357460 
	C260.383301,118.930504 259.049347,119.023109 258.091309,118.253792 
	C255.190475,115.924370 252.162323,116.739662 249.073761,117.605789 
	C222.397049,125.086723 196.504822,134.455475 172.120621,147.879257 
	C165.856766,151.327576 164.808334,156.236160 164.654800,162.152603 
	C164.568573,165.475189 165.026733,168.812378 164.931564,172.134155 
	C164.469070,188.277466 163.641312,204.414383 163.430939,220.559937 
	C163.072906,248.039536 163.308655,275.515472 164.231110,302.993256 
	C165.077682,328.210968 176.931442,346.521637 198.045364,359.357971 
	C207.524307,365.120819 218.035233,368.541870 228.683594,371.232269 
	C265.596893,380.558655 303.181305,385.062469 341.212372,385.646454 
	C376.182800,386.183441 411.130005,385.402252 446.030029,382.849884 
	C469.067566,381.165070 492.196228,380.530762 515.033203,376.653564 
	C531.594849,373.841827 548.301270,371.424683 563.835999,364.630554 
	C586.970032,354.512848 601.945557,337.949280 604.895569,311.879852 
	C606.639038,296.473083 606.392883,280.984344 607.580078,265.555420 
	C609.396057,241.954529 609.014832,218.287888 608.674377,193.671417 
M519.985168,78.593651 
	C511.999084,75.275276 504.142395,71.664246 495.778992,69.277008 
	C467.640442,61.245205 438.670288,60.161491 409.756104,59.460728 
	C369.298035,58.480179 328.882385,59.419281 288.697327,65.181892 
	C267.350647,68.243057 246.511978,72.949547 226.754227,81.787277 
	C223.961121,83.036652 220.107101,83.486290 221.519409,88.453865 
	C221.780411,89.371857 219.816772,91.211418 218.556503,92.222519 
	C213.261368,96.470772 207.224503,99.716553 202.403900,104.660721 
	C200.800293,106.305412 198.694916,109.521080 195.740173,107.185066 
	C192.925919,104.960129 195.538879,102.342232 196.253693,99.927391 
	C196.315613,99.718216 196.002121,99.397919 195.572769,98.568611 
	C185.220123,106.220581 174.346893,113.112633 167.492142,124.377609 
	C164.791763,128.815353 163.547195,133.908417 163.268494,139.126205 
	C163.008240,143.999115 164.183472,144.796768 168.321136,142.343475 
	C196.706924,125.512955 227.686249,115.667671 259.537262,108.014938 
	C293.273560,99.909256 327.552246,95.700768 362.113647,94.021866 
	C388.074188,92.760773 414.014923,94.393425 439.927917,96.525078 
	C466.224152,98.688263 492.015717,103.547935 517.169495,111.172592 
	C546.900818,120.184746 575.368469,132.342392 601.516479,149.439636 
	C602.798828,150.278137 603.942688,151.892334 606.293518,150.770126 
	C606.706787,147.075241 605.468323,143.852325 603.095947,140.872391 
	C595.373718,131.172577 586.308899,122.789696 576.831970,114.919029 
	C559.617859,100.622643 541.488403,87.646423 519.985168,78.593651 
M246.747711,49.136837 
	C249.493637,47.940437 252.228088,46.716675 254.989716,45.557693 
	C256.702667,44.838814 258.647491,44.058613 260.141113,45.624119 
	C265.567505,51.311680 272.015594,50.671276 278.126282,47.863350 
	C283.437866,45.422619 288.268372,44.438362 294.102051,45.923290 
	C305.472229,48.817513 316.522247,45.258251 327.601776,43.091621 
	C340.023804,40.662464 352.538849,37.809143 365.180145,38.362186 
	C385.476501,39.250130 405.792694,38.778675 426.071625,39.893383 
	C436.461517,40.464497 446.390411,42.969547 456.105713,46.671127 
	C468.273834,51.307240 480.247528,56.924023 493.991394,54.003941 
	C499.940369,52.739994 500.582489,52.284557 498.510651,46.909435 
	C498.821625,46.884964 499.166565,46.759190 499.438721,46.850449 
	C520.321167,53.852222 539.160400,64.694984 556.898254,77.569183 
	C559.179138,79.224686 561.627686,81.149925 562.414124,83.887177 
	C563.530151,87.771423 566.377014,89.847229 569.250488,92.077118 
	C576.505798,97.707474 583.145508,103.915825 588.738037,111.286354 
	C592.565735,116.331093 596.874573,121.044609 602.283508,124.636391 
	C602.269775,123.303848 601.965881,122.219513 601.447510,121.249809 
	C596.154358,111.348267 589.606934,102.344322 581.772034,94.308754 
	C536.733337,48.116398 480.931885,26.930391 417.422455,24.430115 
	C388.136902,23.277185 358.791534,23.384106 329.525940,25.436213 
	C316.436737,26.354031 303.255981,27.410097 290.395721,29.864777 
	C258.564911,35.940426 230.210907,49.883774 205.032501,70.225487 
	C199.815430,74.440384 194.414917,78.540825 190.679932,84.543495 
	C208.557861,71.866966 226.101608,58.714916 246.747711,49.136837 
M346.489349,454.694214 
	C363.079407,455.937012 379.672546,457.005432 396.323944,456.035950 
	C425.442108,454.340637 454.486420,452.917908 482.006775,441.141846 
	C490.027283,437.709808 499.074524,435.816864 507.972870,434.461761 
	C509.823822,434.179871 512.409912,434.430817 513.253479,431.893982 
	C512.341614,430.241058 511.152313,430.886475 510.049103,431.071014 
	C504.477264,432.002838 498.904419,432.928528 493.332642,433.860718 
	C472.683167,437.315430 452.075684,440.927887 431.143616,442.525482 
	C416.695892,443.628204 402.258423,444.231110 387.784149,444.534576 
	C370.971252,444.887054 354.182281,444.577911 337.478088,442.666656 
	C313.032074,439.869659 288.745514,436.106689 265.125122,428.913086 
	C263.286285,428.353058 261.553589,427.894043 260.623322,430.589355 
	C263.932159,433.076996 267.140045,436.361206 271.577728,435.298615 
	C274.310486,434.644287 276.507050,434.954773 278.728851,436.017548 
	C288.815063,440.842194 299.444489,444.247253 309.927155,448.018372 
	C321.423370,452.154114 333.456451,453.675018 346.489349,454.694214 
M626.307617,237.502243 
	C626.218262,249.501541 625.970825,261.502533 626.100647,273.499451 
	C626.174805,280.347076 625.557861,286.737610 620.750000,292.198242 
	C619.400024,293.731567 618.817322,296.060944 618.231079,298.124176 
	C616.323425,304.837921 614.027466,311.507050 612.900513,318.361023 
	C611.307678,328.048431 605.786194,337.713287 611.715149,347.747009 
	C611.855225,347.984009 611.753784,348.410370 611.672729,348.724609 
	C609.616821,356.697021 608.871887,365.085968 604.155945,372.218140 
	C603.665161,372.960449 602.969360,373.944427 604.126587,374.822601 
	C604.463684,374.777252 604.881531,374.846832 605.086609,374.669861 
	C605.706848,374.134460 606.328247,373.563324 606.802185,372.900970 
	C617.519287,357.924805 624.189819,341.064758 629.028625,323.496002 
	C631.800659,313.431244 630.195801,302.996490 630.065613,292.681274 
	C629.614380,256.923065 632.166382,221.146912 628.873718,185.393951 
	C627.867798,174.470978 622.895874,165.853043 616.471558,157.558182 
	C615.878052,164.813690 616.330139,171.889984 617.415955,178.933792 
	C617.590088,180.063339 618.356323,180.650482 619.398621,180.917908 
	C622.684753,181.761063 622.687683,184.783401 623.513855,187.210724 
	C623.972900,188.559479 623.589355,189.812668 622.451965,190.811905 
	C620.567810,192.467255 620.344910,189.384125 618.896057,189.544022 
	C618.793701,192.516327 619.760742,195.122421 620.626160,197.828552 
	C622.773682,204.543854 627.822205,210.442322 626.829529,218.034424 
	C626.024292,224.192719 626.377258,230.345276 626.307617,237.502243 
M138.044647,188.661453 
	C138.192078,192.151169 137.045853,197.558838 138.764984,198.718384 
	C142.018860,200.913101 140.162109,202.806229 140.341599,204.887634 
	C140.877914,211.106567 138.673691,217.060226 138.423477,223.114655 
	C137.528625,244.767288 139.439682,266.404877 139.467697,288.063934 
	C139.470520,290.249725 139.553864,292.668060 143.401154,294.296051 
	C141.671783,279.640656 145.945129,265.866180 144.505020,252.339890 
	C142.657715,234.988800 143.048630,218.230148 147.209625,201.348602 
	C149.070404,193.799225 150.645050,185.883347 144.660172,179.176682 
	C146.208054,176.625183 148.838058,176.016296 150.740936,174.455353 
	C153.952271,171.821121 154.292526,168.617096 153.538681,165.023300 
	C152.992935,162.421631 150.975143,161.255325 149.355560,163.501923 
	C144.076309,170.824997 134.601990,176.323425 138.044647,188.661453 
M157.102203,332.576080 
	C155.848785,331.070526 155.649445,329.326019 155.702591,327.423370 
	C155.787857,324.370819 155.113052,321.502319 153.156433,319.015198 
	C150.817352,316.041962 144.280045,313.130707 142.212036,314.731506 
	C138.837112,317.343933 140.484528,321.060211 141.059586,324.391418 
	C142.200378,330.999908 145.302261,336.983002 147.222519,343.338379 
	C151.011505,355.878662 156.461136,367.556549 164.494949,377.954315 
	C166.360260,380.368530 168.307571,382.752502 171.415894,383.820221 
	C172.497101,381.490326 171.412292,379.873535 170.367096,378.443390 
	C163.905807,369.602600 157.521835,360.852783 156.750107,349.233490 
	C156.515228,345.697205 155.509888,342.374725 157.812637,339.239929 
	C159.373138,337.115601 158.547684,335.151031 157.102203,332.576080 
M135.658005,291.326599 
	C135.393219,281.017456 135.060608,270.709534 134.877594,260.398956 
	C134.484863,238.273010 134.185135,216.145432 133.794907,194.019424 
	C133.760147,192.048050 134.289093,189.540817 131.007812,189.062729 
	C126.706444,228.971878 129.095047,268.488800 134.745544,307.952332 
	C135.048813,302.728638 135.352097,297.504913 135.658005,291.326599 
M235.598068,427.765503 
	C239.563293,428.978699 243.469360,430.520325 248.203995,430.481659 
	C244.594330,426.246307 219.482834,415.207153 208.462112,412.664093 
	C207.147202,416.166870 209.091354,417.700836 212.034500,418.906586 
	C219.559677,421.989471 227.021225,425.227844 235.598068,427.765503 
M562.974121,414.654327 
	C551.191650,420.491180 539.189209,425.735657 526.202026,428.336334 
	C524.160950,428.745056 523.129700,429.985443 523.070007,432.823608 
	C539.733154,428.544830 555.637329,423.414795 570.256531,413.957550 
	C567.219666,409.588470 565.617615,413.905334 562.974121,414.654327 
z"/>
<path fill="#000000" opacity="1.000000" stroke="none" 
	d="
M238.504288,280.596252 
	C217.463654,265.454041 209.953598,244.567871 212.955704,220.098282 
	C216.067184,194.737091 232.173019,179.793472 256.116150,172.296936 
	C255.522583,171.485809 255.331146,170.924011 254.975220,170.785767 
	C252.374725,169.775818 248.839478,169.243057 249.000809,165.782104 
	C249.155075,162.472687 252.766220,161.856949 255.308685,160.883514 
	C273.669373,153.853912 293.031952,150.079071 311.588837,143.671982 
	C313.476227,143.020340 315.355377,142.344147 317.250519,141.716003 
	C323.526001,139.636047 327.173431,140.650986 328.693939,144.878296 
	C330.363464,149.520096 327.440125,155.430923 322.233215,157.348557 
	C316.434143,159.484268 310.294525,160.267883 304.233887,161.303253 
	C296.043518,162.702454 287.839142,164.019974 279.639404,165.364212 
	C277.612701,165.696472 275.697754,166.171021 274.960449,168.478165 
	C275.689392,170.828445 277.699829,170.462540 279.461945,170.699417 
	C299.591003,173.405380 316.975067,181.498276 327.042084,199.756607 
	C338.104889,219.821030 339.241516,240.876999 328.362671,261.855194 
	C322.665283,272.841766 313.115570,279.090820 302.326843,284.070374 
	C280.550720,294.121246 259.452209,292.101379 238.504288,280.596252 
M247.813522,275.533142 
	C250.177887,277.089447 252.482544,278.746948 254.917450,280.183716 
	C263.358582,285.164642 272.120392,288.634521 282.484161,285.610474 
	C280.664093,283.807465 278.489136,284.203430 276.655121,283.671661 
	C269.963898,281.731567 264.074677,278.656586 259.194275,273.523956 
	C248.650711,262.435455 246.755554,248.817932 247.809158,234.506882 
	C249.076920,217.286987 256.799683,204.072510 273.034027,196.699951 
	C276.665588,195.050766 280.624573,193.923706 283.912537,191.764099 
	C288.658875,188.646667 293.527191,191.009018 298.250763,190.069992 
	C297.015625,190.813354 295.709961,190.834961 294.418793,190.983017 
	C293.124786,191.131424 291.544037,190.497818 290.563141,191.864197 
	C315.436066,198.617142 328.330414,214.999542 331.219177,239.938126 
	C332.027283,228.334457 330.162933,217.129837 325.516235,206.470810 
	C320.862518,195.795654 312.833771,188.244049 302.470917,183.163757 
	C298.749939,181.339584 294.347076,181.403778 290.713531,179.171860 
	C285.472717,175.952621 279.812958,175.398209 273.868500,176.656662 
	C267.361481,178.034210 260.882996,179.946289 254.302872,180.442169 
	C249.709259,180.788361 245.435150,181.430328 241.411499,183.497284 
	C225.701935,191.567261 219.047806,205.614304 216.469330,222.113495 
	C215.639496,227.423416 215.836288,232.868057 216.723389,238.090714 
	C220.432343,238.384903 218.725922,234.626495 221.130356,233.947906 
	C222.558212,236.201630 222.451813,238.891388 223.076324,241.372543 
	C226.698318,255.762604 230.547211,270.021057 247.813522,275.533142 
M270.683105,212.604034 
	C266.132812,211.533508 262.691956,212.921417 261.430969,217.569397 
	C260.387512,221.415604 261.987122,224.338470 265.827820,225.830505 
	C270.138733,227.505203 272.972870,225.160645 274.803436,221.862335 
	C277.000671,217.903366 274.997253,214.951172 270.683105,212.604034 
z"/>
<path fill="#000000" opacity="1.000000" stroke="none" 
	d="
M535.281006,285.420044 
	C509.257935,299.592041 483.689819,298.569916 459.142517,283.359406 
	C444.606201,274.352112 437.197266,259.816956 434.901337,243.125656 
	C432.305115,224.251343 436.550018,207.055405 450.002625,192.839340 
	C454.958893,187.601776 460.532990,183.139603 467.141541,180.108475 
	C469.216675,179.156677 471.342987,178.309921 471.184967,175.538467 
	C479.210876,176.458023 486.217987,173.117310 493.630035,172.297287 
	C503.162476,171.242661 512.323608,172.442261 521.238037,175.084793 
	C528.298767,177.177826 535.539917,179.242371 541.711426,183.713089 
	C544.328247,185.608704 546.990540,186.666718 547.760071,190.802200 
	C548.396790,194.223724 551.919067,197.061615 553.988586,200.270508 
	C571.546143,227.495056 564.139832,265.235138 537.635864,283.787109 
	C536.953430,284.264771 536.270386,284.741577 535.281006,285.420044 
M536.320557,275.815460 
	C541.406860,270.886108 545.236450,265.065399 548.389648,258.768890 
	C549.888977,255.775116 551.345215,252.751892 555.583435,252.909470 
	C553.676697,249.766006 553.559814,249.314163 555.632263,248.778000 
	C557.896667,248.192200 558.016052,246.485153 558.305420,245.062485 
	C562.568298,224.102554 556.940796,206.148376 541.319702,191.563202 
	C532.473389,183.303467 521.348206,180.161331 509.671265,178.064209 
	C501.452850,176.588257 493.538574,178.439926 485.606659,179.210144 
	C475.363617,180.204773 466.088379,184.854630 457.964630,191.177261 
	C449.932861,197.428268 444.704346,205.770844 441.449493,215.807846 
	C444.193359,215.408493 443.945374,211.069046 447.641296,212.550064 
	C446.710083,214.368927 445.668976,216.042435 444.962830,217.846985 
	C442.532013,224.058777 437.700989,229.128082 437.965210,236.650803 
	C438.548767,253.265121 445.800079,266.718628 457.707092,277.282166 
	C471.298553,289.340057 488.120453,292.488647 505.873932,290.399658 
	C517.334351,289.051178 528.095520,285.811310 536.320557,275.815460 
z"/>
<path fill="#000000" opacity="1.000000" stroke="none" 
	d="
M480.290253,149.565338 
	C492.182373,152.389404 503.510254,155.684296 514.643982,159.624924 
	C517.934143,160.789459 521.193970,162.068024 524.377014,163.496429 
	C526.300110,164.359421 528.693054,165.289932 528.041321,168.093536 
	C527.411316,170.803879 524.984863,170.103409 523.070984,170.126907 
	C510.165039,170.285492 497.761688,166.664551 485.110931,164.918304 
	C474.938019,163.514099 464.651855,162.213486 454.989410,158.315918 
	C453.147583,157.572968 451.224884,156.907013 449.572052,155.843979 
	C445.821045,153.431412 444.806274,149.454727 446.619507,145.381195 
	C448.484283,141.191940 451.898621,141.294724 455.483368,142.317169 
	C463.635803,144.642410 471.753571,147.089325 480.290253,149.565338 
z"/>
<path fill="#000000" opacity="1.000000" stroke="none" 
	d="
M353.427734,333.393799 
	C352.243164,330.694794 354.038574,329.402435 355.409973,328.036621 
	C363.514618,319.964905 373.299652,314.819397 384.297943,312.020966 
	C388.231842,311.020020 392.222260,311.581360 395.993713,313.310364 
	C404.439484,317.182220 411.658783,322.721344 417.961792,329.480377 
	C419.160034,330.765289 420.949493,332.382019 419.617828,334.224823 
	C418.136414,336.274780 416.304413,334.541534 414.773315,333.729126 
	C411.246948,331.857971 407.703583,330.002655 404.290070,327.937683 
	C388.716461,318.516785 374.084076,321.810181 359.789917,330.993652 
	C357.935455,332.185028 356.436554,334.430023 353.427734,333.393799 
z"/>
<path fill="#000000" opacity="1.000000" stroke="none" 
	d="
M354.845551,112.092735 
	C373.857056,111.470940 392.457336,111.383797 411.040680,112.656586 
	C413.000946,112.790848 414.897614,113.299797 415.057800,115.545349 
	C415.242462,118.133575 413.101196,119.043373 411.083649,119.048477 
	C407.279724,119.058105 403.476013,118.416656 399.669769,118.389168 
	C385.545380,118.287148 371.420044,118.326607 357.295044,118.308029 
	C355.449127,118.305603 353.546509,118.373703 352.660187,116.240112 
	C351.854340,114.300201 352.700897,113.063156 354.845551,112.092735 
z"/>
<path fill="#000000" opacity="1.000000" stroke="none" 
	d="
M294.987976,301.013000 
	C292.681854,300.550934 290.760986,300.165924 288.718262,299.756470 
	C294.347687,295.368652 304.668274,295.253235 310.236542,299.606140 
	C305.454651,302.965637 300.557953,303.273285 294.987976,301.013000 
z"/>
<path fill="#000000" opacity="1.000000" stroke="none" 
	d="
M523.205994,209.478546 
	C522.977539,212.521713 521.062927,215.349808 523.847900,217.918076 
	C524.191345,218.234726 524.379700,219.191330 524.538635,219.167770 
	C529.770447,218.392471 529.482178,222.517776 530.029053,225.564423 
	C530.643066,228.985580 531.601807,232.647552 530.969360,235.926804 
	C529.649475,242.770447 529.347534,249.769424 527.386230,256.520325 
	C522.341125,273.885681 507.928925,286.504303 491.223602,286.202698 
	C470.753754,285.833130 454.532227,275.097321 448.903534,256.850128 
	C445.407135,245.515350 443.877014,233.919678 447.792358,222.547485 
	C452.969238,207.511353 465.318909,200.475006 479.817139,196.898026 
	C488.259705,194.815063 496.926849,194.177689 505.192200,198.259003 
	C505.772644,198.545609 506.472076,198.760361 507.107697,198.740295 
	C514.877563,198.494995 519.886475,202.428894 523.205994,209.478546 
M477.572784,217.203629 
	C476.187378,214.218109 473.908722,212.302078 470.568298,212.600479 
	C467.773682,212.850113 465.558197,214.421570 464.668488,217.302109 
	C463.855255,219.935059 464.487091,222.268478 466.486359,224.145660 
	C468.669342,226.195312 471.294312,226.513184 473.909912,225.300888 
	C476.959259,223.887573 478.292511,221.346664 477.572784,217.203629 
z"/>
</svg>