<svg version="1.1" id="Layer_1" xmlns="http://www.w3.org/2000/svg" xmlns:xlink="http://www.w3.org/1999/xlink" x="0px" y="0px"
	 width="100%" viewBox="0 0 768 512" enable-background="new 0 0 768 512" xml:space="preserve">
<path fill="#000000" opacity="1.000000" stroke="none" 
	d="
M330.815643,432.337341 
	C330.977203,427.715210 327.831543,427.617767 325.023987,427.395508 
	C307.870483,426.037781 291.131195,422.614594 274.710999,417.530823 
	C247.256409,409.030762 226.805130,392.470825 215.693466,365.546997 
	C213.581253,360.429077 210.485733,358.350952 205.270325,358.387451 
	C188.255203,358.506561 178.010818,349.472870 172.761490,333.960632 
	C171.285461,329.598785 168.144211,326.581757 164.806061,323.934265 
	C156.585037,317.414185 153.037140,309.301880 153.613434,298.725098 
	C154.347244,285.257019 152.165146,271.783661 152.875702,258.278381 
	C153.312576,249.974670 153.494858,241.655136 154.619186,233.394775 
	C154.778549,232.223984 156.501251,230.511902 153.379135,229.804962 
	C151.958298,229.483246 153.320969,227.031311 154.107742,225.952072 
	C156.259903,222.999924 158.555496,220.127151 161.030487,217.440552 
	C166.863052,211.109390 169.740662,203.505157 171.185684,195.186569 
	C173.954437,179.247284 185.306381,172.782135 199.606079,169.730316 
	C208.097610,167.918045 207.069382,168.661530 206.709641,160.996277 
	C206.273743,151.708008 209.291656,142.995392 211.037994,134.063751 
	C213.332535,122.328407 215.468872,110.562042 217.654953,98.805611 
	C218.505692,94.230453 219.242767,89.633400 220.145538,85.068848 
	C221.430603,78.571510 222.713348,72.523064 218.804321,65.929398 
	C215.121460,59.717270 219.993134,49.478268 226.740158,46.576504 
	C231.557373,44.504704 236.311539,45.066792 240.452744,48.203075 
	C244.739609,51.449661 245.146133,56.295914 243.897995,60.940971 
	C240.559509,73.365646 239.620041,86.165344 237.501755,98.776405 
	C237.040619,101.521858 237.177261,104.367722 237.043945,107.059082 
	C238.881073,107.852394 239.469727,106.545181 240.222000,105.826012 
	C264.033447,83.062286 292.705322,69.762939 324.534332,62.776356 
	C345.915771,58.083035 367.648132,56.384041 389.487152,56.900925 
	C429.335175,57.844063 467.464172,65.603828 501.964142,86.806534 
	C511.494690,92.663742 520.495667,99.230385 528.574768,107.009491 
	C529.613586,108.009682 530.387146,109.426140 532.562256,109.614670 
	C533.137573,103.396835 531.463074,97.453255 530.493103,91.525452 
	C529.021240,82.530174 527.943176,73.420891 524.741394,64.773041 
	C523.364380,61.053726 523.447632,57.273273 525.011414,53.558369 
	C527.183105,48.399574 532.560242,45.146969 537.777344,45.893219 
	C543.928467,46.773071 548.860474,51.569332 549.258972,57.333424 
	C549.452759,60.136623 550.118835,63.278938 548.609558,65.697845 
	C545.230164,71.114044 546.606262,76.631653 547.567322,82.153137 
	C550.442871,98.673981 553.069824,115.252106 556.542969,131.649170 
	C558.363342,140.243317 561.410156,148.574982 561.330688,157.509323 
	C561.308655,159.984940 561.123352,162.459106 560.998230,165.263824 
	C565.804626,166.833374 570.615601,168.613785 575.542969,169.972382 
	C588.007324,173.409134 595.178162,181.854324 597.098572,194.184006 
	C598.507385,203.228760 602.861572,210.426529 608.390198,217.099197 
	C614.337402,224.277023 616.771362,232.117096 616.481628,241.494736 
	C615.952209,258.632690 616.366638,275.798126 616.224487,292.950775 
	C616.181763,298.100372 615.600708,303.245697 615.261841,308.392670 
	C614.984375,312.606934 612.070740,315.340698 609.389160,317.974518 
	C603.170898,324.082092 597.960327,330.511963 594.798950,339.001678 
	C589.648193,352.833710 578.334473,358.627258 564.020386,358.179962 
	C558.191223,357.997772 555.319824,359.516235 553.230591,365.362091 
	C542.482605,395.436066 519.189453,411.118744 489.640930,419.128967 
	C474.357880,423.272003 458.771912,425.852051 443.010651,427.286804 
	C439.130859,427.640015 436.271301,428.872772 437.039764,433.234894 
	C438.373413,440.804962 432.209869,443.729919 428.210388,447.730652 
	C401.872589,474.076843 360.568176,469.748199 337.798309,445.359894 
	C337.230713,444.752014 336.778290,443.765259 336.099030,443.575592 
	C330.218689,441.933960 330.741547,437.263977 330.815643,432.337341 
M269.170135,402.313080 
	C274.368591,404.078583 279.495239,406.104584 284.778961,407.560669 
	C300.527710,411.900665 316.616486,414.216156 332.862518,415.940308 
	C349.288910,417.683624 365.773804,418.360535 382.205872,418.298615 
	C399.978363,418.231689 417.806488,417.991608 435.550293,415.808563 
	C456.557068,413.223999 477.469269,410.377136 497.389618,402.844940 
	C512.571472,397.104462 525.695190,388.213165 534.141541,374.129852 
	C546.603088,353.351654 552.985840,330.355347 554.482361,306.349945 
	C555.859558,284.257812 556.061340,262.072510 555.706848,239.908020 
	C555.477722,225.585526 554.526733,211.304428 553.828430,197.005875 
	C553.136597,182.839752 548.711487,169.517181 545.605652,155.924484 
	C543.306580,145.862808 538.923706,136.276001 532.104126,128.313202 
	C512.119690,104.978561 486.360321,90.488342 457.685242,80.661308 
	C453.977356,79.390617 452.434784,80.691483 453.152710,84.856987 
	C454.110443,90.413895 454.746307,96.037994 455.265411,101.656792 
	C457.697754,127.984238 460.971863,154.243042 461.811584,180.702591 
	C461.919891,184.116241 461.768829,187.494049 460.900696,190.969193 
	C459.235870,190.064026 459.718262,188.748917 459.649231,187.693207 
	C459.160492,180.216537 458.946930,172.716278 458.258850,165.259247 
	C455.811890,138.739456 453.144135,112.239952 450.724274,85.717781 
	C450.243958,80.453346 448.465729,77.376556 442.737274,76.221283 
	C424.076447,72.457932 405.290833,70.345848 386.259552,70.163406 
	C360.689728,69.918297 335.362823,71.511795 310.721863,79.126358 
	C307.961517,79.979355 305.875000,80.899605 305.351257,84.125381 
	C303.192200,97.423676 301.698669,110.803474 300.332001,124.196793 
	C298.487793,142.269470 298.519775,160.443954 297.570007,178.565842 
	C297.514709,179.620865 297.723572,180.744385 295.854095,181.845947 
	C295.291412,164.712189 295.732300,148.308945 296.711090,131.902588 
	C297.687012,115.544388 299.866882,99.323296 302.686859,82.549805 
	C291.713959,85.647141 282.712463,90.982109 273.671356,96.225990 
	C244.494476,113.148689 224.960526,137.083359 218.814804,170.980637 
	C216.198669,185.410156 215.040787,199.943008 213.997421,214.541794 
	C212.251038,238.977280 211.926849,263.463989 211.629120,287.916046 
	C211.360321,309.991821 215.748154,331.548248 223.707031,352.304779 
	C232.280685,374.664703 245.555725,392.635376 269.170135,402.313080 
z"/>
<path fill="#000000" opacity="1.000000" stroke="none" 
	d="
M286.992004,355.012543 
	C287.258575,354.813629 287.644867,354.673035 287.774323,354.407288 
	C291.381378,347.001801 291.377045,346.999695 298.986908,341.872345 
	C297.891510,339.741638 295.591827,339.912811 293.875214,339.505280 
	C275.587952,335.163422 262.479614,324.691772 253.440704,308.064667 
	C247.875000,297.826538 245.611862,287.100250 243.557312,275.926086 
	C241.834946,266.558411 241.001038,257.478760 243.787430,248.319885 
	C244.847641,244.834961 245.093231,240.336258 250.951279,241.441345 
	C252.424362,241.719238 253.268646,239.567001 253.861008,238.358063 
	C259.040344,227.787659 268.321411,221.638565 277.829834,215.687881 
	C279.013794,214.946930 280.874176,214.933197 281.051514,212.925491 
	C279.897247,209.867279 275.923889,213.595261 274.619568,209.594894 
	C279.718658,204.849457 286.932465,203.757538 293.547394,200.675217 
	C279.676453,198.495377 265.669495,200.618622 252.610214,195.116013 
	C279.149780,194.072723 305.681763,197.979065 333.120636,192.899719 
	C331.402527,197.447220 328.006775,196.109650 326.831818,198.414413 
	C330.555634,199.382095 334.447449,197.976776 338.033142,199.448425 
	C337.502869,201.977371 333.323212,202.862900 334.739807,205.667252 
	C336.258179,208.673157 339.759125,207.707611 342.472839,207.703293 
	C373.633514,207.653717 404.795624,207.285690 435.953979,207.498108 
	C451.562866,207.604523 467.267548,207.537460 482.401855,212.675125 
	C505.694458,220.582321 518.060303,237.547287 523.283752,260.798462 
	C528.021851,281.889740 520.371460,300.042358 508.887177,316.531097 
	C493.132385,339.151337 466.015533,346.853577 438.195648,338.790955 
	C415.702759,332.272095 401.989319,317.305054 395.058868,295.546417 
	C393.957733,292.089294 392.186005,291.210144 388.932312,291.291718 
	C384.310486,291.407532 378.900299,289.645050 375.272522,291.504852 
	C371.667847,293.352814 372.563751,299.572449 370.899872,303.718201 
	C364.842743,318.810028 352.855713,327.766113 338.949768,334.499390 
	C329.746643,338.955566 319.817200,341.063202 309.504883,341.387665 
	C302.915833,341.594940 297.953491,346.070099 292.474762,348.996033 
	C290.201935,350.209778 290.704254,353.858185 291.597321,355.470093 
	C294.447571,360.614380 292.951050,366.142426 293.869446,371.414520 
	C295.552643,381.077209 296.705566,390.833099 298.024261,400.557648 
	C298.211090,401.935425 298.584900,403.462616 296.448517,405.640320 
	C293.029999,388.443604 292.011566,371.693146 287.130249,355.350098 
	C287.001068,354.999023 286.992004,355.012543 286.992004,355.012543 
M425.984009,259.567352 
	C422.745087,265.947632 422.728607,265.972443 428.587769,269.863312 
	C429.940460,270.761627 430.029297,271.865387 429.811493,273.299866 
	C429.488373,275.427521 429.361420,277.584991 429.151459,279.729797 
	C428.259583,288.838318 432.011139,295.573181 439.838898,300.015808 
	C447.828156,304.550140 455.677734,303.889832 463.360687,299.000671 
	C470.608185,294.388611 474.276123,287.260834 476.015503,279.401855 
	C478.211700,269.478760 476.268768,260.067749 468.389008,252.951218 
	C461.016937,246.293213 452.338776,244.549713 442.896729,248.079636 
	C436.584259,250.439575 431.278870,254.419556 425.984009,259.567352 
M322.694397,246.569962 
	C319.049103,246.189728 315.442444,245.976440 311.826691,247.043030 
	C291.376099,253.075562 284.429230,278.285950 299.114044,294.010651 
	C305.609711,300.966248 313.709961,304.686493 323.390137,301.970917 
	C333.930817,299.013977 339.481323,291.343719 341.568359,280.906952 
	C342.046600,278.515259 341.342133,276.410583 340.065887,274.293884 
	C338.310333,271.382324 335.765656,268.859772 334.875671,265.153259 
	C335.797485,264.940460 336.410034,264.684509 337.025177,264.678101 
	C339.044373,264.657074 341.290405,264.865997 342.166687,262.572021 
	C343.010712,260.362518 341.147919,258.912354 339.992126,257.343658 
	C335.846191,251.716461 330.054871,248.659622 322.694397,246.569962 
z"/>
<path fill="#000000" opacity="1.000000" stroke="none" 
	d="
M235.379120,317.528931 
	C239.686798,304.221619 239.786575,304.151093 232.082092,293.250946 
	C229.217773,289.198547 225.778763,285.550446 222.563187,281.750702 
	C222.159195,281.273285 221.567200,280.865143 220.979828,280.646851 
	C215.653183,278.667023 215.300766,277.785736 218.084137,272.565704 
	C223.526779,273.620697 223.743713,280.479187 228.598251,282.474854 
	C231.433243,278.453003 230.078583,273.668671 231.816940,268.483551 
	C233.990631,274.535309 235.100311,279.793182 235.040985,285.146423 
	C234.961487,292.320557 239.258926,297.112091 243.537659,301.871460 
	C244.737473,303.206024 246.259644,304.363495 247.026276,305.973389 
	C250.279526,312.805084 254.348434,319.002747 260.111267,324.003998 
	C260.402252,324.256531 260.342926,324.912689 260.557983,325.882874 
	C256.281860,325.266144 253.846329,328.773315 250.180634,329.894775 
	C243.431091,331.959686 236.201660,328.138428 235.143265,320.895660 
	C235.002426,319.931824 235.225815,318.914734 235.379120,317.528931 
z"/>
<path fill="#000000" opacity="1.000000" stroke="none" 
	d="
M424.541077,193.419098 
	C423.075623,193.425735 421.913086,194.152359 420.499176,192.848282 
	C423.018036,191.004227 425.620117,190.212311 428.381866,191.040115 
	C446.885773,196.586548 465.895111,195.698837 484.842133,195.624527 
	C490.838104,195.601013 496.794312,195.860901 502.743500,196.763870 
	C509.006165,197.714386 513.162964,201.047058 515.968506,206.697952 
	C515.172852,206.972702 514.730286,207.259918 514.593384,207.153580 
	C506.431183,200.813400 496.770691,200.219238 487.089417,200.344986 
	C476.086517,200.487885 465.152863,199.343399 454.175598,199.158478 
	C452.672211,199.133148 451.635376,198.815720 450.251007,200.688614 
	C447.699280,204.140808 441.707367,204.076706 436.883118,201.448883 
	C438.325928,196.510071 442.773315,199.609818 445.594238,198.046890 
	C438.597595,196.737137 432.021484,193.951569 424.541077,193.419098 
z"/>
<path fill="#000000" opacity="1.000000" stroke="none" 
	d="
M408.337402,363.612701 
	C410.168030,365.997894 414.237396,368.103851 411.938995,370.642426 
	C409.375427,373.473816 407.066925,369.430084 405.083191,367.828552 
	C400.056641,363.770264 394.703827,362.132050 388.365265,364.123535 
	C384.404968,365.367798 380.311676,366.189728 376.354187,367.441833 
	C371.413239,369.005157 367.495850,371.896393 365.194153,376.749298 
	C364.444611,378.329620 363.650360,380.170258 360.694092,379.864349 
	C359.481659,374.758698 362.102173,370.467255 365.495117,367.889618 
	C375.158051,360.548492 386.452637,357.262665 398.621124,358.064972 
	C402.280914,358.306274 405.281555,360.936371 408.337402,363.612701 
z"/>
<path fill="#000000" opacity="1.000000" stroke="none" 
	d="
M547.536682,286.514587 
	C547.872681,288.157928 546.831665,288.936646 545.810364,289.332550 
	C533.175964,294.229431 526.502319,305.144287 519.269531,315.492462 
	C515.971069,320.211731 512.872009,325.091614 508.462189,328.684814 
	C507.250702,328.187683 507.258972,327.462036 507.651886,326.945526 
	C515.685059,316.385345 521.672180,304.266113 531.493835,295.087463 
	C535.978271,290.896667 541.097717,287.511658 547.536682,286.514587 
z"/>
<path fill="#000000" opacity="1.000000" stroke="none" 
	d="
M287.007233,354.992828 
	C282.788391,354.150635 281.119324,356.056641 280.674713,360.184723 
	C280.047882,366.005096 278.915344,371.770996 277.551208,377.509155 
	C275.055542,367.995300 278.639557,358.767639 278.373047,349.362305 
	C283.033875,348.364746 284.795166,351.479889 286.830139,354.714752 
	C286.992004,355.012543 287.001068,354.999023 287.007233,354.992828 
z"/>
<path fill="#000000" opacity="1.000000" stroke="none" 
	d="
M473.491547,377.486206 
	C471.447784,369.408936 472.065216,361.272522 471.769928,353.190521 
	C471.656097,350.075592 472.019012,346.872650 469.455261,343.995331 
	C473.248230,343.117065 473.795593,345.631653 473.903931,347.491302 
	C474.487701,357.512329 474.993774,367.550232 473.491547,377.486206 
z"/>
<path fill="#000000" opacity="1.000000" stroke="none" 
	d="
M486.303528,357.195312 
	C487.700470,363.869781 489.971436,370.023529 489.477142,376.646118 
	C486.290375,369.530243 484.798615,362.065002 484.126495,354.270355 
	C486.175476,354.427704 485.980988,355.787964 486.303528,357.195312 
z"/>
</svg>