<svg version="1.1" id="Layer_1" xmlns="http://www.w3.org/2000/svg" xmlns:xlink="http://www.w3.org/1999/xlink" x="0px" y="0px"
	 width="100%" viewBox="0 0 768 512" enable-background="new 0 0 768 512" xml:space="preserve">
<path fill="#000000" opacity="1.000000" stroke="none" 
	d="
M229.468658,513.000000 
	C228.917282,511.702606 229.628799,510.726593 230.506973,509.980103 
	C240.153000,501.780273 249.552444,493.126923 261.917145,489.109955 
	C266.294617,487.687836 269.173004,485.001251 272.008057,481.536774 
	C281.817047,469.550140 293.576447,460.327850 309.254150,457.216003 
	C316.957672,455.686920 324.093231,457.982147 331.179138,460.484131 
	C336.908966,462.507294 338.376221,461.569763 338.612946,455.475647 
	C339.009796,445.259338 338.997559,445.315002 329.081757,443.139313 
	C302.285706,437.260010 277.150513,427.693085 255.164474,410.708618 
	C239.810669,398.847626 227.997604,384.260681 219.715637,366.816315 
	C217.075790,361.255951 213.326813,357.737549 207.540573,355.191376 
	C184.813751,345.190735 173.301971,326.292725 168.812439,302.841766 
	C165.380066,284.912781 164.531586,266.360077 168.215256,248.690170 
	C171.372467,233.545547 178.914642,219.276138 191.754623,209.059967 
	C195.268936,206.263794 198.918213,203.606354 202.699097,201.187790 
	C204.939957,199.754395 205.904984,198.087250 205.821854,195.471252 
	C205.726730,192.478149 206.343079,189.419495 205.942062,186.486130 
	C203.501846,168.636597 210.733795,153.694672 219.477600,139.012299 
	C224.855591,129.981720 230.714920,121.287849 236.607910,112.612488 
	C238.404114,109.968216 238.627884,108.070229 236.487915,105.604187 
	C229.500854,97.552460 222.577148,89.442276 215.799377,81.214279 
	C213.501373,78.424568 210.436401,78.862907 207.565430,78.534988 
	C195.487930,77.155556 187.376495,67.969978 187.665359,55.815868 
	C187.921463,45.039536 197.340179,34.578133 207.371521,33.928158 
	C216.656723,33.326527 227.646210,42.532047 229.165604,52.630333 
	C229.622391,55.666203 230.840546,57.770550 232.853134,59.931450 
	C239.663666,67.243896 246.314255,74.707649 252.930893,82.197563 
	C257.785278,87.692642 258.488922,87.808784 264.190063,83.174873 
	C285.205383,66.093491 308.028778,51.965302 334.312836,44.910728 
	C398.371582,27.717537 455.825531,41.281391 506.454071,83.898521 
	C509.969421,86.857635 512.083801,86.902916 515.086426,83.608368 
	C522.716309,75.236763 530.544556,67.045288 538.334351,58.820484 
	C539.947021,57.117752 540.171814,54.967228 540.650757,52.873127 
	C543.253113,41.493778 553.416260,33.668663 564.217041,34.731354 
	C573.782715,35.672531 582.184814,45.589226 582.315735,56.092575 
	C582.469238,68.407829 575.373230,77.335800 563.431335,78.349312 
	C557.342285,78.866089 553.357117,81.255142 549.826843,85.932449 
	C544.914062,92.441536 539.662292,98.719284 534.216614,104.792122 
	C531.162598,108.197868 531.358582,110.725212 534.089722,114.249100 
	C543.924744,126.938942 551.675842,140.881851 558.610657,155.362640 
	C563.710144,166.011017 564.919128,177.050552 563.604736,188.453491 
	C562.979797,193.874741 564.221985,197.697769 568.880859,200.779434 
	C585.844788,212.000412 595.503723,228.492767 601.063843,247.492691 
	C603.787170,256.798920 603.358337,266.631500 603.060303,276.278870 
	C602.585999,291.629303 601.101929,306.786255 594.785034,321.133820 
	C587.902161,336.766876 577.421448,348.733276 561.252930,354.913391 
	C555.746338,357.018188 552.319458,360.224365 549.821472,365.674866 
	C534.384155,399.358826 506.684906,419.479828 473.507080,433.108856 
	C460.096436,438.617737 446.105408,442.396332 431.699188,444.474884 
	C424.951691,445.448364 421.780518,451.405273 424.621704,457.858734 
	C426.054016,461.112091 428.856262,459.751312 431.152496,459.176697 
	C437.142883,457.677704 443.133392,456.249359 449.358734,457.227631 
	C466.920349,459.987213 480.058258,470.170471 490.158722,483.831909 
	C496.297180,492.134491 502.952911,499.477478 511.061646,505.688904 
	C513.567017,507.608032 516.036804,509.623291 517.857788,512.695801 
	C507.645782,513.000000 497.291534,513.000000 486.448364,512.587524 
	C485.361389,509.246429 484.721527,506.325684 484.172363,503.387970 
	C481.081757,486.854950 469.669678,477.314789 455.652069,470.446899 
	C448.341705,466.865234 444.407318,468.294250 439.208435,474.721649 
	C431.824432,483.850525 422.851044,490.987366 411.901550,495.006531 
	C389.113617,503.371063 366.585846,501.540070 344.448853,492.052155 
	C333.824005,487.498322 325.577728,479.734192 317.024536,472.345886 
	C313.596802,469.384949 309.638672,468.537567 305.426819,470.184631 
	C290.208862,476.135559 279.114441,486.106873 274.661713,502.367249 
	C273.696960,505.890289 272.883270,509.454651 272.000000,513.000000 
	C257.979095,513.000000 243.958206,513.000000 229.468658,513.000000 
M487.730988,82.772354 
	C452.186584,56.362724 412.044647,45.722912 368.300568,49.568184 
	C332.502747,52.714943 300.927887,66.921082 273.116547,89.655075 
	C251.649597,107.202904 236.760330,129.741302 223.912369,153.847458 
	C220.717361,159.842163 216.927124,165.653076 216.102936,172.642792 
	C214.595169,185.429901 215.599792,198.216187 215.867828,211.028351 
	C216.526230,242.498062 216.659515,273.973969 218.169022,305.428802 
	C218.777557,318.109497 220.244385,330.663025 223.055359,342.954102 
	C230.095123,373.735626 249.281723,395.396454 275.823914,411.298065 
	C303.943451,428.144592 334.987854,435.258118 367.130310,437.433777 
	C392.425140,439.145905 417.636047,437.292938 442.494781,431.155609 
	C467.936890,424.874268 491.468262,414.954926 511.783203,398.182312 
	C528.024658,384.772827 538.912292,367.872833 544.952087,347.600342 
	C550.627502,328.551147 552.090637,309.002197 552.552307,289.394287 
	C553.348145,255.589676 553.051880,221.758057 553.970337,187.958313 
	C554.315552,175.255371 550.946960,163.977722 545.354675,153.051254 
	C531.350403,125.689072 512.756226,102.043022 487.730988,82.772354 
M584.820007,241.703857 
	C583.204712,239.571136 581.905457,236.986984 578.194031,236.871521 
	C578.221985,240.656631 581.391174,243.455963 580.142029,247.742889 
	C574.866272,242.119843 571.020264,235.730484 563.472778,232.501785 
	C561.082520,263.507843 563.893677,293.849243 560.167847,324.207031 
	C561.877808,324.207031 562.410156,324.344330 562.824219,324.181274 
	C564.057190,323.695709 565.312195,323.204315 566.437927,322.517426 
	C577.581665,315.717285 582.244263,304.662018 584.453796,292.731415 
	C586.220886,283.189941 587.482727,273.479095 588.555664,263.827576 
	C589.354553,256.640961 592.233948,248.514862 584.820007,241.703857 
M199.691605,239.190735 
	C198.175430,241.370407 196.771912,243.639771 195.121643,245.712692 
	C190.462769,251.564758 187.147675,257.919403 187.119034,265.615570 
	C187.098007,271.269531 186.932190,276.927521 187.087845,282.576630 
	C187.401917,293.974396 189.572296,304.955353 194.896805,315.178436 
	C196.977692,319.173767 200.146225,322.066620 204.041519,324.086517 
	C206.938675,325.588776 208.970032,324.851837 208.738129,321.102051 
	C208.440994,316.297333 207.961746,311.502045 207.747818,306.694336 
	C206.742203,284.096069 206.638458,261.481812 206.622620,238.865997 
	C206.621429,237.162323 207.249680,235.124863 204.839172,233.914810 
	C202.547989,234.667618 201.491776,236.822311 199.691605,239.190735 
M211.776886,67.555992 
	C213.779785,67.019798 215.309769,65.747208 216.643005,64.258781 
	C220.984497,59.411976 220.495850,52.688488 215.537109,48.346062 
	C210.975357,44.351295 205.623642,44.957104 201.266312,50.112938 
	C198.520813,53.361568 197.317017,57.070614 199.312576,61.144825 
	C201.671890,65.961678 205.596893,68.206657 211.776886,67.555992 
M564.841125,47.464188 
	C560.134338,44.722298 556.507568,46.693626 553.496155,50.314930 
	C549.971741,54.553135 549.607727,60.601891 552.755676,64.595543 
	C555.254517,67.765694 558.490295,69.647285 562.795288,68.040268 
	C569.049561,65.705589 570.994995,62.938534 570.745300,57.059345 
	C570.573853,53.022991 568.387939,50.270874 564.841125,47.464188 
z"/>
<path fill="#000000" opacity="1.000000" stroke="none" 
	d="
M431.143311,142.690643 
	C460.821136,146.455551 488.293549,154.657318 511.091064,174.441223 
	C524.252380,185.862778 530.418274,201.001984 534.419006,217.578156 
	C539.566833,238.907089 539.352844,260.513855 538.851135,282.122528 
	C538.585693,293.554382 538.411194,305.000519 536.774048,316.449524 
	C533.566772,338.878601 522.289612,355.762878 504.045990,368.495239 
	C501.044525,370.589996 498.062012,372.720001 494.969513,374.673492 
	C492.722626,376.092773 491.458252,377.632690 493.288147,380.743103 
	C511.320435,372.574463 527.542358,362.487030 537.176086,344.191925 
	C535.490479,352.967041 530.355591,359.611389 524.104980,365.253662 
	C510.185883,377.818237 493.489746,385.023529 475.403687,389.292389 
	C471.196075,390.285492 467.014832,391.390717 462.805084,392.374298 
	C459.352722,393.180908 455.937622,395.226624 452.329193,392.629211 
	C451.854797,392.287720 450.745575,392.724823 449.963593,392.928802 
	C418.735931,401.074127 386.970245,400.183075 355.181915,398.431183 
	C328.753754,396.974731 303.269318,390.674622 278.135834,382.753906 
	C260.353668,377.149902 245.014114,368.000610 234.289978,352.267334 
	C231.014465,347.461884 228.612930,342.282288 228.921600,335.982269 
	C233.556549,345.652954 237.843201,355.272278 246.669479,362.187378 
	C255.302155,368.950714 264.496460,374.265350 275.205231,378.266144 
	C274.646545,374.389771 272.194824,372.847412 269.634216,371.394409 
	C253.496567,362.237488 241.429047,349.706207 236.704895,331.231384 
	C233.936356,320.404358 232.555908,309.341583 231.748840,298.211517 
	C230.325302,278.579712 230.160675,258.930664 231.749313,239.310623 
	C233.194016,221.468185 236.167526,203.977921 245.242401,188.092346 
	C247.450562,184.226944 251.457336,181.679398 252.465790,176.980621 
	C243.181763,185.361969 237.084137,196.141312 231.222794,207.793564 
	C229.180115,204.431458 230.797958,202.605148 231.586441,200.738129 
	C241.113602,178.178543 257.064301,162.190323 279.706421,152.529312 
	C298.918030,144.332031 318.315155,137.079910 339.173798,134.368851 
	C370.036285,130.357574 400.858459,129.188858 431.630188,135.157196 
	C439.626312,136.708099 447.649506,138.125549 455.622650,139.785065 
	C458.149292,140.310959 460.553833,141.423401 463.642273,142.482864 
	C461.035126,144.888901 458.727295,144.039185 456.651337,143.671738 
	C442.409119,141.150681 428.212311,138.364090 413.947968,135.979446 
	C394.554230,132.737320 375.088989,134.192123 355.654572,135.702454 
	C342.695648,136.709549 329.816895,138.444855 317.377045,142.328537 
	C305.471985,146.045303 293.600494,149.931976 282.569672,155.937057 
	C278.483185,158.161682 273.886505,159.366379 270.071716,162.152969 
	C269.041534,162.905472 267.549866,163.280518 267.963104,165.121933 
	C269.611633,166.218521 270.812042,164.942200 271.988617,164.214981 
	C293.759094,150.759491 317.896637,145.271088 342.986603,142.584686 
	C355.920044,141.199890 368.881714,140.339096 381.842987,140.186401 
	C398.148590,139.994293 414.477570,140.517059 431.143311,142.690643 
M304.496338,377.910339 
	C328.591827,382.514038 352.060120,391.072601 377.512817,385.418396 
	C388.536438,382.969543 400.404938,384.375275 411.883820,383.891418 
	C415.047241,383.758057 418.013153,385.382080 421.276001,384.445404 
	C424.565613,383.501068 428.011414,380.456451 431.349945,384.607391 
	C431.665283,384.999481 432.960144,384.713562 433.773346,384.579285 
	C454.359558,381.180695 474.532410,376.851807 492.939117,366.050476 
	C512.129333,354.789429 525.686890,339.821350 528.516541,317.101440 
	C532.496582,285.144775 533.891541,253.317276 526.830688,221.371994 
	C520.966919,194.843094 506.027496,176.762360 481.914490,165.166367 
	C458.287079,153.803909 432.842041,150.538788 407.326355,148.606216 
	C385.950195,146.987183 364.412994,147.479965 343.013794,150.258484 
	C319.333069,153.333221 296.755280,159.608322 275.926605,171.608154 
	C260.169739,180.686035 249.359344,193.563766 244.626556,211.280777 
	C241.867722,221.608292 239.995407,232.197189 239.493423,242.776627 
	C238.231140,269.379395 237.336838,296.056244 243.045502,322.373718 
	C245.741013,334.800232 250.354187,346.282562 260.470978,354.715179 
	C273.273560,365.386444 287.334961,373.735748 304.496338,377.910339 
z"/>
<path fill="#000000" opacity="1.000000" stroke="none" 
	d="
M464.794220,92.158928 
	C457.885437,94.347305 451.415497,91.241150 452.526672,86.370377 
	C454.918121,87.092804 455.968109,90.537300 459.236237,89.513145 
	C462.657593,88.440964 461.584229,85.688385 461.601959,83.127678 
	C464.642914,83.444130 466.791077,84.543022 467.696320,87.070740 
	C468.516785,89.361725 466.681000,90.678642 464.794220,92.158928 
z"/>
<path fill="#000000" opacity="1.000000" stroke="none" 
	d="
M446.239075,83.863899 
	C450.102203,78.328056 451.503296,77.899979 455.127533,81.174164 
	C452.567719,83.600388 450.340668,86.396332 446.239075,83.863899 
z"/>
<path fill="#000000" opacity="1.000000" stroke="none" 
	d="
M544.331970,322.497772 
	C541.866760,324.640381 541.866760,324.640381 538.826233,324.595001 
	C540.026428,321.784149 541.826660,319.934265 544.573792,319.145294 
	C546.287537,320.433929 545.081116,321.301178 544.331970,322.497772 
z"/>
<path fill="#000000" opacity="1.000000" stroke="none" 
	d="
M290.272217,229.851318 
	C315.764008,223.458649 338.937897,241.232285 339.375305,267.095032 
	C339.759705,289.824310 327.869843,304.652039 306.005554,308.710175 
	C289.865784,311.705811 270.809021,301.160889 264.915283,285.302826 
	C262.555389,278.953217 260.176910,273.350647 253.084518,271.220520 
	C251.450378,270.729706 250.121643,269.429871 250.562973,267.424377 
	C251.047913,265.220673 252.894440,264.443481 254.786987,264.810089 
	C260.388489,265.895142 261.794342,262.570038 263.135498,258.095947 
	C267.272217,244.295853 275.981293,234.608704 290.272217,229.851318 
M281.664032,283.823822 
	C280.892822,282.949036 280.207825,281.974060 279.332306,281.220490 
	C277.553986,279.689819 276.110779,276.536102 273.214661,278.340363 
	C270.117188,280.270111 271.310730,283.317841 272.553314,285.948395 
	C277.087860,295.547852 285.021545,300.368408 295.256714,301.786224 
	C306.630829,303.361847 316.145233,299.668976 324.107025,291.519775 
	C325.290253,290.308716 326.838898,289.401276 326.262909,287.444122 
	C325.847626,286.033112 324.657562,285.229523 323.187408,285.400146 
	C321.361572,285.612061 319.210663,285.945984 319.246246,288.353241 
	C319.281372,290.729370 317.799072,291.380707 316.139679,292.279755 
	C304.050598,298.829559 292.540710,296.178528 281.664032,283.823822 
M293.192719,260.840515 
	C296.231750,257.511078 297.618591,253.817886 295.311584,249.543289 
	C293.341766,245.893448 290.298645,243.907166 285.999298,244.179749 
	C281.853912,244.442581 279.264160,246.825928 277.874695,250.486725 
	C276.456085,254.224335 277.142426,257.786865 280.136627,260.497620 
	C283.976196,263.973663 288.276978,263.449432 293.192719,260.840515 
M299.334412,262.449799 
	C302.468048,265.781677 305.501343,265.363281 309.221832,261.085968 
	C305.866760,257.211639 303.146118,257.392975 299.334412,262.449799 
M289.300385,271.814911 
	C290.722443,270.344086 291.229187,268.736115 289.732910,267.059113 
	C288.984222,266.220001 287.947205,266.263519 287.090271,266.976654 
	C285.897766,267.968994 285.157715,269.280640 285.415497,270.851776 
	C285.758545,272.942383 287.160614,272.895599 289.300385,271.814911 
z"/>
<path fill="#000000" opacity="1.000000" stroke="none" 
	d="
M461.739990,308.528076 
	C441.380859,305.483490 426.665985,287.290192 429.155640,264.898346 
	C431.276276,245.825638 441.980713,233.511276 458.158966,229.590317 
	C478.102753,224.756744 497.509888,236.145798 504.191589,256.621613 
	C504.707031,258.201141 505.053619,259.835571 505.562897,261.417389 
	C506.469513,264.233185 507.856659,266.157227 511.386902,265.125275 
	C513.570923,264.486847 515.929443,264.688080 516.751160,267.332458 
	C517.618530,270.123840 515.407043,271.324585 513.373352,272.024414 
	C507.631805,274.000000 504.961426,278.156586 502.997345,283.747009 
	C496.896515,301.111847 479.381348,311.527374 461.739990,308.528076 
M484.968445,283.252045 
	C483.402893,286.023956 481.685669,288.616730 478.878479,290.380829 
	C470.145325,295.869049 461.208893,295.635040 452.285248,291.165955 
	C449.441132,289.741577 447.452087,289.266052 445.997833,292.563690 
	C453.452667,302.607269 470.131805,305.549561 481.850647,298.849762 
	C488.237427,295.198364 493.450928,290.464813 495.159607,282.833679 
	C495.769440,280.110107 495.547546,277.653076 492.725830,276.538055 
	C489.963898,275.446655 487.884766,276.803070 486.601257,279.356659 
	C486.080200,280.393311 485.679169,281.490295 484.968445,283.252045 
M449.074341,259.088562 
	C449.551056,259.767029 449.957428,260.510651 450.515808,261.113434 
	C454.362976,265.266479 458.455994,265.674683 463.446442,262.447784 
	C467.587769,259.769958 469.050018,254.771790 467.028229,250.204727 
	C465.028809,245.688232 460.378082,243.387085 455.521759,244.511459 
	C449.852051,245.824158 447.426941,250.765976 449.074341,259.088562 
M473.674255,266.163116 
	C475.682831,264.898590 477.156158,263.172394 478.104767,261.000519 
	C478.740417,259.545166 478.980316,258.030273 477.557953,256.964722 
	C476.020142,255.812653 474.355896,256.352203 472.964874,257.339203 
	C470.614288,259.007141 468.557373,261.146942 468.855896,264.198059 
	C469.064941,266.334290 470.972809,266.924103 473.674255,266.163116 
z"/>
<path fill="#000000" opacity="1.000000" stroke="none" 
	d="
M397.175415,341.174225 
	C405.011322,338.547211 412.337524,335.918884 416.116669,328.097504 
	C416.838928,326.602631 418.351501,326.994690 419.664459,327.476135 
	C421.438934,328.126862 422.402069,329.353516 422.225616,331.279327 
	C422.014893,333.579071 420.599548,335.214630 419.075287,336.796234 
	C401.689911,354.835632 366.622925,354.940826 349.190460,336.954193 
	C348.171021,335.902344 347.365784,334.578430 346.706268,333.258484 
	C345.887451,331.619720 346.012146,329.979889 347.705872,328.859741 
	C349.434387,327.716614 351.191498,327.612091 352.641968,329.295593 
	C364.660522,343.245056 380.012573,344.889221 397.175415,341.174225 
z"/>
<path fill="#000000" opacity="1.000000" stroke="none" 
	d="
M474.076782,203.504852 
	C469.372070,204.085037 465.099854,204.689148 460.813599,205.167313 
	C459.217712,205.345322 457.313171,205.760483 456.731232,203.475281 
	C456.238739,201.541290 457.364594,200.284546 458.873108,199.383881 
	C469.375824,193.113297 490.947235,195.424301 498.839325,206.928894 
	C499.798370,208.326920 500.882446,209.897552 499.453278,211.433884 
	C497.673767,213.346909 495.778595,212.305740 494.149384,211.001221 
	C488.395233,206.393875 481.919159,203.722687 474.076782,203.504852 
z"/>
<path fill="#000000" opacity="1.000000" stroke="none" 
	d="
M278.170349,199.947845 
	C285.943268,195.908493 293.931030,196.309784 301.879883,196.998489 
	C304.114746,197.192123 306.327271,198.277222 308.423248,199.231796 
	C309.992889,199.946671 311.267303,201.408600 310.663239,203.218002 
	C310.043488,205.074265 308.157928,205.272339 306.459106,204.897827 
	C302.517273,204.028732 298.532928,204.289749 294.559265,204.259583 
	C287.345795,204.204819 280.909302,206.571167 275.025909,210.624039 
	C274.210602,211.185699 273.411804,211.806870 272.520325,212.214371 
	C271.066315,212.879044 269.623108,212.967346 268.507507,211.490601 
	C267.513092,210.174225 268.005585,208.953323 268.837006,207.845535 
	C271.263062,204.613022 274.340454,202.119370 278.170349,199.947845 
z"/>
</svg>