<svg version="1.1" id="Layer_1" xmlns="http://www.w3.org/2000/svg" xmlns:xlink="http://www.w3.org/1999/xlink" x="0px" y="0px"
	 width="100%" viewBox="0 0 768 512" enable-background="new 0 0 768 512" xml:space="preserve">
<path fill="#000000" opacity="1.000000" stroke="none" 
	d="
M466.800385,70.058075 
	C506.248413,90.990196 535.203125,121.009674 551.295044,162.712311 
	C552.121948,164.855164 553.181641,166.576370 555.379578,167.422623 
	C565.507935,171.322266 570.279907,179.068802 571.455750,189.524857 
	C571.782715,192.431992 573.116516,195.022812 575.917236,196.356750 
	C593.905579,204.924194 597.831177,221.658737 600.189819,238.953201 
	C603.300110,261.759735 600.516968,284.465637 597.771179,307.114227 
	C596.732300,315.683716 595.110596,324.187256 594.224854,332.769379 
	C593.216797,342.536072 586.709351,347.154205 578.618225,350.300507 
	C575.030518,351.695587 572.228516,353.126495 571.136475,357.334808 
	C569.957092,361.880035 565.658081,363.722900 561.654053,364.604675 
	C554.122375,366.263275 550.332153,370.847290 547.864380,377.873016 
	C545.672668,384.112885 542.211182,389.918671 539.173401,395.845947 
	C536.452759,401.154419 532.278748,405.177795 527.414429,408.554047 
	C512.521179,418.891266 496.220978,426.476288 479.232117,432.509552 
	C467.736725,436.591919 456.955902,442.217346 445.720184,446.838196 
	C421.560242,456.774323 396.364716,457.964294 370.666962,456.729767 
	C346.305206,455.559509 324.330170,447.255371 302.582733,437.131836 
	C289.943787,431.248322 276.595428,426.951569 263.944153,420.888611 
	C242.556671,410.638916 227.484528,394.986084 219.519485,372.628723 
	C218.221939,368.986572 215.946625,367.123871 212.257141,365.963013 
	C206.405121,364.121826 200.411377,362.125641 197.975662,355.407227 
	C197.372406,353.743256 195.508392,353.283600 194.045898,352.502716 
	C190.525436,350.622955 186.949997,348.832275 183.525970,346.789032 
	C178.298630,343.669739 176.508682,338.434814 175.908752,332.843109 
	C172.999512,305.726349 169.443222,278.658142 169.648880,251.295975 
	C169.747696,238.149338 172.552063,225.563278 176.948303,213.259064 
	C179.293365,206.695679 184.571793,202.852631 190.086685,199.369217 
	C195.219788,196.126999 199.094345,192.675308 199.237045,185.745468 
	C199.417343,176.989624 205.177429,171.598694 212.656113,167.998688 
	C215.830276,166.470734 217.660797,164.241608 219.128876,160.945953 
	C243.798264,105.566383 284.488434,68.412743 344.385590,55.611382 
	C386.230255,46.668240 427.533813,50.109856 466.800385,70.058075 
M479.926971,391.457520 
	C489.637085,386.034119 498.565308,379.823456 503.160126,369.060608 
	C503.801880,367.557404 504.929688,366.238373 505.946747,364.922394 
	C515.315552,352.800690 524.199341,340.144653 537.740417,332.146637 
	C542.636841,329.254547 544.070557,325.176636 543.665466,320.045380 
	C543.325256,315.736694 542.633789,311.456726 542.231812,307.151581 
	C541.897522,303.571289 542.669617,300.208191 546.534180,299.095154 
	C550.248474,298.025391 550.791504,295.710052 550.790894,292.354980 
	C550.785950,266.195129 550.818909,240.034286 551.087524,213.876282 
	C551.141113,208.654282 548.416260,206.831375 544.058655,206.086136 
	C542.778320,205.867188 541.231262,206.280045 540.513000,204.803711 
	C536.942566,197.464706 529.712830,200.451202 524.547302,198.261551 
	C523.186218,200.277466 525.713684,200.491394 524.791931,202.314514 
	C521.068420,201.466293 517.223206,200.539291 513.353394,199.729568 
	C511.308472,199.301712 508.983978,197.948257 507.218658,199.784424 
	C505.350250,201.727814 503.317749,201.473541 501.236633,200.993820 
	C496.129089,199.816513 490.982361,200.187973 485.823822,200.184647 
	C483.049683,200.182846 480.385773,202.136383 477.340027,200.553955 
	C477.500671,195.950287 476.034637,193.560379 470.851166,195.841904 
	C469.284332,196.531570 467.234497,196.109421 465.407715,196.225189 
	C453.613434,196.972580 441.811859,197.623550 430.027405,198.503326 
	C408.554565,200.106354 387.061066,199.489334 365.605499,198.691513 
	C339.360596,197.715607 313.139923,196.039185 286.870300,197.452774 
	C281.907257,197.719818 276.932648,198.385864 272.131592,199.933823 
	C268.677734,201.047394 265.065338,203.490997 262.061005,198.859055 
	C261.650055,198.225525 259.831421,198.181778 258.745544,198.359558 
	C248.570358,200.025665 238.338150,201.420410 228.382889,204.222549 
	C223.545914,205.584045 221.371414,208.983047 221.188721,213.837967 
	C221.025894,218.165390 221.083771,222.510925 220.704926,226.818619 
	C219.356873,242.146362 221.175552,257.379639 221.921280,272.642242 
	C222.298706,280.367126 226.697098,287.231232 227.101685,294.940491 
	C227.625046,304.912994 228.059967,314.901276 228.079544,324.883636 
	C228.087387,328.895660 229.163177,331.479279 232.871689,333.175781 
	C237.472366,335.280396 241.261368,338.615417 244.697495,342.263367 
	C252.845261,350.913330 260.031891,360.380066 265.481476,370.898682 
	C271.111786,381.766083 279.870209,388.347443 290.789001,393.019836 
	C316.421448,403.988434 343.391052,408.473114 370.980957,409.587036 
	C387.265656,410.244476 403.568604,410.039612 419.818420,407.814117 
	C440.349304,405.002319 460.532593,401.160645 479.926971,391.457520 
M348.757721,181.730316 
	C363.668457,183.627167 378.688873,183.244019 393.651031,183.434479 
	C405.439056,183.584518 417.244537,182.244858 429.044647,181.610870 
	C435.693237,181.253662 442.399231,181.394394 448.981354,180.548355 
	C454.287354,179.866379 459.362061,180.339737 464.236176,181.965881 
	C471.070587,184.246048 477.923889,183.923935 484.841797,183.216110 
	C497.617065,181.908981 510.309235,180.459763 522.794006,185.467422 
	C527.533203,187.368347 532.752502,188.086792 537.905396,188.652969 
	C541.695801,189.069427 543.439697,187.401886 543.870544,183.735840 
	C544.619812,177.360535 543.195740,171.152481 540.988281,165.472626 
	C523.577942,120.674591 491.146027,90.550591 447.339081,72.527466 
	C413.626190,58.657242 378.547913,58.959549 343.261841,65.565903 
	C340.995850,65.990143 338.944824,66.763229 338.294128,69.705444 
	C337.928192,71.360046 336.204315,72.902420 333.995056,72.105690 
	C328.323456,70.060318 323.159027,72.057343 318.120697,74.174240 
	C300.459442,81.594772 284.390930,91.648125 270.441681,104.773270 
	C263.060547,111.718353 254.507935,118.003845 252.172134,128.915665 
	C251.960083,129.906250 250.874146,130.994446 249.912048,131.490997 
	C245.518173,133.758682 244.282593,138.678802 240.987747,141.846344 
	C240.727097,142.096909 240.875809,142.773300 240.867218,142.872269 
	C241.314804,144.802460 243.752670,144.306702 243.904022,146.125137 
	C239.727997,148.394135 236.785172,153.878326 237.670120,158.144363 
	C238.117859,160.302750 239.263458,162.242691 241.713577,162.755234 
	C244.133591,163.261475 245.366226,161.717377 246.376099,159.843857 
	C248.193237,156.472687 250.027405,153.110428 251.883026,149.760269 
	C257.840820,139.004044 264.263489,128.531403 271.054474,118.281204 
	C271.841919,117.092644 273.327545,115.486137 271.819092,114.300819 
	C268.540131,111.724312 270.951752,109.959747 272.405762,108.163055 
	C277.287109,102.131294 283.427826,97.403015 289.934174,93.435455 
	C303.846802,84.951538 317.276764,74.767677 335.035187,76.463432 
	C336.626282,76.615364 336.629486,74.048431 338.794312,75.341347 
	C341.562714,79.285889 342.412048,83.761444 340.879028,89.043770 
	C338.424011,97.503067 332.799469,102.557961 324.912659,105.622269 
	C321.923065,106.783829 319.608337,108.491356 320.012939,112.215126 
	C320.724243,118.761871 319.086670,124.543411 315.436279,130.143539 
	C313.627533,132.918365 312.614166,133.289780 309.692169,132.108185 
	C302.468170,129.186966 295.763794,134.708450 296.965607,142.512512 
	C297.470123,145.788467 296.340851,146.608917 293.298035,146.658356 
	C289.222107,146.724594 286.344238,149.046600 285.230316,152.884659 
	C284.501617,155.395493 283.247192,156.891647 280.906006,157.885193 
	C275.526276,160.168243 272.939362,164.846298 271.408386,170.072510 
	C270.136780,174.413055 272.224823,177.634766 276.703400,178.598480 
	C285.037537,180.391876 293.438599,181.191650 302.007141,180.489792 
	C317.316467,179.235809 332.613190,179.673447 348.757721,181.730316 
M555.939636,208.431320 
	C555.737671,212.918365 555.283203,217.412003 555.400146,221.890717 
	C555.534607,227.039703 552.937561,233.432816 561.701599,235.791809 
	C554.123962,236.752701 555.322327,241.834320 555.362671,246.185745 
	C555.532410,264.490173 555.688110,282.795746 556.067871,301.096375 
	C556.157410,305.409149 556.024780,309.626740 555.666260,313.936798 
	C554.994080,322.017242 553.920227,330.404938 556.967529,338.171265 
	C558.946350,343.214569 560.340210,347.195984 554.377991,350.235229 
	C552.838440,351.019989 552.835144,352.781616 553.550171,354.232849 
	C554.427612,356.013763 555.925354,355.504150 557.446167,355.081451 
	C561.033142,354.084351 562.674866,352.214569 562.957214,348.098907 
	C564.508484,325.487274 563.663452,302.835083 564.410339,280.206848 
	C565.299866,253.256592 564.673035,226.256500 564.722351,199.278046 
	C564.732361,193.813995 563.301514,188.721039 560.600220,184.042480 
	C559.450500,182.051300 558.251099,179.625488 554.659302,179.983871 
	C555.465210,189.278717 556.358643,198.345520 555.939636,208.431320 
M214.629776,288.528076 
	C214.390747,275.551483 214.161057,262.574707 213.907669,249.598389 
	C213.817886,245.000183 215.725159,239.336121 206.998352,238.700211 
	C215.978714,235.863083 213.829941,229.283813 213.923111,223.643936 
	C214.123657,211.504639 213.310577,199.351013 214.567871,187.222565 
	C214.760162,185.367752 215.285324,183.182175 213.314682,181.681213 
	C211.035034,181.433945 210.163513,183.171463 209.065979,184.602463 
	C205.475739,189.283524 205.407608,194.864639 205.386200,200.308655 
	C205.284866,226.068909 205.107025,251.833176 205.446564,277.589569 
	C205.755325,301.012268 206.732422,324.425690 207.324677,347.845490 
	C207.445160,352.610168 210.018661,354.080627 214.420258,354.124176 
	C215.012573,351.495789 213.616928,349.720276 212.677856,347.859406 
	C211.958817,346.434570 211.311142,345.024048 212.861176,343.845154 
	C214.918976,342.280182 214.731934,340.132690 214.726089,337.957886 
	C214.682693,321.811859 214.660324,305.665741 214.629776,288.528076 
M398.285217,445.680695 
	C402.589600,445.343567 406.916321,445.182129 411.194336,444.637695 
	C426.432587,442.698486 441.596283,440.494934 453.369659,429.083893 
	C454.302734,428.179504 455.514099,427.327454 456.741699,427.004822 
	C460.800507,425.938171 461.774231,423.451782 460.734619,419.734741 
	C456.957397,418.577057 454.463257,420.535095 452.285553,422.909668 
	C450.256897,425.121704 448.477997,424.969788 446.273407,423.179047 
	C442.201080,419.871124 436.671143,420.052521 432.338593,423.582550 
	C428.148041,426.996857 430.799438,430.409821 432.483246,433.807220 
	C432.835205,434.517334 433.028229,435.306183 433.622833,436.986725 
	C405.879150,442.819733 377.971313,440.195587 350.432526,442.259735 
	C365.900696,446.807404 381.657837,445.543152 398.285217,445.680695 
M537.476746,373.996704 
	C540.182861,367.670288 543.676636,361.608459 543.689331,354.253052 
	C541.422974,357.815460 539.156555,361.377899 536.698975,365.240906 
	C533.560547,362.754456 534.556580,355.915802 528.330505,358.252075 
	C528.077820,356.104706 530.520325,355.219147 529.770996,353.042084 
	C522.896729,359.954651 517.465698,367.634094 512.292847,376.113678 
	C516.248901,376.852356 514.088440,379.808563 514.667542,382.016205 
	C515.348022,382.128418 515.975708,382.216095 516.596924,382.337036 
	C519.570557,382.916016 522.998291,383.523651 523.469238,386.990814 
	C523.987549,390.807129 520.135986,390.878113 517.685547,391.951691 
	C514.165344,393.493927 510.618073,394.974518 506.205719,396.855042 
	C510.870453,398.989777 514.205811,398.878235 517.483459,396.514313 
	C519.228943,395.255402 521.181274,393.146759 522.940552,393.242981 
	C529.997681,393.628998 531.003845,388.348389 532.956482,383.710419 
	C534.244385,380.651428 535.729980,377.675751 537.476746,373.996704 
M244.367691,393.936279 
	C249.448593,394.220032 247.627945,391.365692 246.384949,389.162231 
	C241.744385,380.935944 236.960876,372.790436 232.254822,364.600891 
	C231.346924,363.020935 230.599091,361.348572 229.680817,359.775177 
	C228.858566,358.366364 227.903198,357.035187 227.006561,355.669769 
	C229.829330,369.700378 234.728424,382.592102 244.367691,393.936279 
M195.049576,209.497940 
	C193.296234,209.753113 192.106323,210.937103 190.860992,212.033249 
	C182.824814,219.106934 184.293900,229.448288 181.508987,238.452972 
	C183.314651,236.046906 185.656479,234.532364 187.792816,232.814011 
	C190.289642,230.805725 191.081909,227.984177 188.973358,225.876648 
	C184.964386,221.869614 187.412415,219.852753 190.422729,217.167603 
	C192.680130,215.154007 196.291245,213.770157 195.049576,209.497940 
M320.763733,432.784668 
	C322.342407,433.675476 323.876068,434.663757 325.516571,435.420532 
	C326.500488,435.874451 327.453888,435.458252 328.065491,434.481445 
	C328.564667,433.684174 328.585510,432.799347 327.952454,432.186829 
	C323.413300,427.795105 318.785248,423.508972 312.257263,420.056183 
	C312.119873,427.031860 317.575867,428.722198 320.763733,432.784668 
M574.236389,212.370041 
	C578.002380,216.923080 583.341248,219.941284 586.366699,225.216949 
	C584.758850,216.428436 579.123230,209.714676 573.002991,208.858047 
	C572.081421,210.166794 573.072937,210.981049 574.236389,212.370041 
M280.086914,405.268158 
	C277.623383,403.531219 275.159882,401.794281 272.633850,400.013275 
	C270.210754,405.437256 270.212555,405.433777 274.801697,407.791931 
	C275.826996,408.318817 276.857422,408.841888 277.845612,409.433380 
	C279.432037,410.382996 281.171783,411.643494 282.575775,409.521637 
	C283.907166,407.509491 281.710083,406.742523 280.086914,405.268158 
M547.664978,322.327332 
	C549.645325,323.869507 549.848755,322.194855 549.959839,320.928314 
	C550.247070,317.650818 550.473328,314.361298 550.533875,311.073090 
	C550.569763,309.128357 550.826477,306.983978 548.400696,304.570312 
	C548.036499,310.976410 547.732300,316.328003 547.664978,322.327332 
M261.143921,387.500000 
	C262.286560,383.679199 261.039520,381.792633 256.221497,380.848236 
	C257.036591,383.708832 258.345673,385.816132 261.143921,387.500000 
M588.230652,236.168152 
	C588.396912,236.164764 588.580444,236.204208 588.724426,236.145844 
	C588.866272,236.088364 589.088135,235.904465 589.069580,235.822647 
	C588.610413,233.801010 588.123962,231.785553 587.658203,229.835312 
	C586.304138,229.464859 584.873962,229.364471 584.584290,230.743713 
	C584.054688,233.265381 586.106689,234.547714 588.230652,236.168152 
M238.524933,179.266022 
	C240.230438,177.704346 239.893661,176.237946 237.915695,175.524765 
	C236.282547,174.935883 234.833923,176.103714 234.630646,177.660660 
	C234.283218,180.321854 236.229355,179.923050 238.524933,179.266022 
z"/>
<path fill="#000000" opacity="1.000000" stroke="none" 
	d="
M480.859009,303.142395 
	C469.092468,302.653015 459.912170,298.399475 453.459473,288.619080 
	C447.129333,279.024445 447.548004,268.625000 449.632202,257.544495 
	C445.758331,258.175323 443.486511,259.239655 444.181519,262.969421 
	C444.381805,264.044464 444.424652,265.029205 443.632599,265.748199 
	C437.936340,270.918793 432.663940,276.491486 427.438965,283.952637 
	C425.677399,273.188507 426.854370,264.302124 430.620239,255.851395 
	C439.983704,234.839432 457.252747,223.966919 479.013611,219.787369 
	C500.392822,215.681152 518.457520,224.286865 535.394470,236.158203 
	C537.570251,237.683258 539.025757,239.669434 536.703186,241.876633 
	C534.245544,244.212234 534.849670,246.450607 535.729492,249.088974 
	C542.247925,268.636169 542.666443,288.221466 536.141541,307.894226 
	C533.314026,316.419159 527.425842,322.726837 521.554993,329.105377 
	C519.511780,331.325317 516.643799,330.858459 514.124207,331.538055 
	C505.231415,333.936920 496.429138,333.614746 487.474243,331.465210 
	C479.455475,329.540405 471.321625,328.199280 463.323883,326.012634 
	C453.106384,323.219086 444.888550,317.751953 437.782898,310.220520 
	C437.009674,309.400970 436.040070,308.615570 436.285675,307.076385 
	C436.702301,307.051239 437.280334,306.827728 437.567871,307.025879 
	C461.870148,323.771606 486.958893,324.246368 512.041321,309.503326 
	C523.987732,302.481445 533.439636,292.674561 536.961731,278.370636 
	C538.495483,272.141479 537.753601,268.347900 532.777466,264.167816 
	C530.556274,262.302002 527.688843,261.000458 529.254150,257.002289 
	C529.924622,255.289764 528.174927,253.578751 526.786255,252.373718 
	C518.498657,245.182220 508.475250,242.857071 497.558075,242.093170 
	C510.641510,252.589233 515.676758,265.633240 509.986206,281.428101 
	C505.253418,294.564697 494.977081,301.329498 480.859009,303.142395 
M465.947296,263.499237 
	C468.869659,262.243561 470.759308,260.237915 469.394409,256.951721 
	C468.246674,254.188431 465.693634,253.153671 462.848358,253.889694 
	C460.447662,254.510757 457.664734,255.648026 457.910187,258.606201 
	C458.194366,262.031189 460.869324,263.515259 464.215912,263.656921 
	C464.544434,263.670807 464.875000,263.636444 465.947296,263.499237 
M500.298157,321.163818 
	C493.720032,324.473236 486.252075,324.447083 479.345642,326.523895 
	C488.691406,326.950592 497.023376,323.675323 505.033081,319.350189 
	C503.686920,319.886292 502.340759,320.422394 500.298157,321.163818 
z"/>
<path fill="#000000" opacity="1.000000" stroke="none" 
	d="
M260.360260,254.638565 
	C262.685455,249.676254 267.010193,246.884277 270.234833,243.312500 
	C269.202240,241.186081 267.653839,241.511292 266.206940,241.839813 
	C254.081589,244.592773 243.524902,249.566193 237.752472,261.565826 
	C235.734314,265.761139 235.460205,265.795685 232.361954,268.229706 
	C230.743744,263.404205 232.714813,259.055328 233.435654,254.633377 
	C234.178879,250.074158 237.123993,245.598221 233.332520,240.919250 
	C231.941559,239.202728 233.355560,237.473404 234.963760,236.294708 
	C265.762299,213.721680 299.371368,211.920746 328.476044,237.979630 
	C340.932434,249.132477 345.205841,264.036530 344.114471,280.538971 
	C344.071960,281.181396 343.832642,281.829620 343.579163,282.430481 
	C343.469727,282.689880 343.090485,282.835419 342.464569,283.316528 
	C338.083160,274.667664 331.497375,268.328125 322.344177,263.830841 
	C321.980896,267.898987 321.731934,271.293274 321.366516,274.674957 
	C319.681305,290.269257 305.973541,302.861755 290.293488,303.256409 
	C274.531891,303.653107 260.379303,291.838409 257.612274,276.401855 
	C256.266571,268.894379 257.191772,261.860687 260.360260,254.638565 
M263.805603,260.280060 
	C262.209045,261.856110 261.475983,263.593842 263.228271,265.470276 
	C264.502930,266.835175 266.196442,267.013397 267.788422,266.145416 
	C269.478851,265.223694 271.841034,264.272400 270.758209,261.779602 
	C269.543060,258.982117 267.005554,258.918457 263.805603,260.280060 
z"/>
<path fill="#000000" opacity="1.000000" stroke="none" 
	d="
M236.190277,298.618073 
	C234.103043,294.594025 232.643265,290.790070 232.957169,285.240601 
	C245.289597,299.866516 258.149109,311.996674 275.838318,318.195496 
	C294.573151,324.760742 311.255280,317.844055 328.522156,312.187744 
	C320.886719,322.032379 310.629059,326.940430 298.715668,329.244904 
	C274.746521,333.881287 245.516022,316.434814 236.190277,298.618073 
z"/>
<path fill="#000000" opacity="1.000000" stroke="none" 
	d="
M407.966370,362.986816 
	C412.392883,361.336365 416.431763,359.810242 420.481903,358.314606 
	C422.844910,357.441925 425.304657,357.192169 426.546448,359.839813 
	C427.982819,362.902557 425.363708,363.962433 423.251984,364.889679 
	C399.368927,375.376160 375.275848,375.553650 351.076996,366.080658 
	C348.463623,365.057617 344.350677,364.020050 345.966034,360.130219 
	C347.535736,356.350311 351.079895,358.367676 353.804199,359.422791 
	C371.354370,366.220001 389.268372,367.537109 407.966370,362.986816 
z"/>
<path fill="#000000" opacity="1.000000" stroke="none" 
	d="
M475.202637,179.533142 
	C473.255615,164.455978 471.473663,149.642838 469.791779,134.818359 
	C469.618774,133.293137 469.085571,131.193100 471.271332,130.567001 
	C473.263214,129.996429 474.042633,131.825394 475.121307,133.083588 
	C481.402527,140.409882 482.219208,149.276169 482.406036,158.344360 
	C482.426727,159.347809 482.708923,160.727081 481.683594,161.033966 
	C474.487091,163.188004 477.881683,168.581543 477.957825,172.924683 
	C477.980896,174.241287 478.573090,175.565781 478.494934,176.861938 
	C478.388428,178.628021 478.237427,180.745422 475.202637,179.533142 
z"/>
</svg>