<svg version="1.1" id="Layer_1" xmlns="http://www.w3.org/2000/svg" xmlns:xlink="http://www.w3.org/1999/xlink" x="0px" y="0px"
	 width="100%" viewBox="0 0 768 512" enable-background="new 0 0 768 512" xml:space="preserve">
<path fill="#000000" opacity="1.000000" stroke="none" 
	d="
M314.297058,365.068756 
	C317.075623,364.457764 319.643524,364.475311 321.903503,362.742523 
	C321.328674,360.179688 319.041199,359.581238 317.327332,358.539886 
	C307.359070,352.483002 297.411652,346.425842 288.291962,339.079895 
	C279.409821,331.925262 273.012054,323.143311 270.959930,311.872620 
	C269.618195,304.503632 266.077423,299.838867 259.220154,296.726349 
	C250.715897,292.866272 242.919479,287.666687 236.186935,281.050293 
	C234.893799,279.779449 232.914322,278.698639 233.246170,276.669373 
	C235.149582,265.029846 227.707809,257.493896 220.917999,250.240829 
	C212.741333,241.506302 215.973526,231.543945 216.251953,221.874405 
	C216.326004,219.302887 219.522018,217.849304 221.490768,216.072861 
	C228.676666,209.588928 233.306717,202.375244 232.170822,191.810043 
	C230.538208,176.624863 231.028198,176.572189 244.799820,169.967850 
	C244.950104,169.895798 245.096481,169.812195 245.252716,169.756485 
	C252.720398,167.093781 256.682129,163.125534 257.585022,153.936096 
	C258.957428,139.967972 263.610504,126.360466 270.082092,113.624748 
	C273.095978,107.693542 275.871948,101.639748 278.962219,95.749870 
	C280.273376,93.250954 279.136169,90.840881 279.349091,88.395653 
	C280.779236,71.971634 281.122009,55.511280 280.640717,39.034420 
	C280.536896,35.480053 281.183441,32.618488 285.632263,32.684345 
	C290.027771,32.749413 292.838684,35.621586 292.774628,39.861435 
	C292.616150,50.343983 292.468048,60.827049 292.406738,71.310440 
	C292.391449,73.922890 292.351959,76.611694 293.963348,79.260887 
	C298.175323,77.548195 301.027466,74.089722 303.841309,71.097099 
	C313.088776,61.262127 324.546112,56.220345 337.537689,54.248493 
	C368.836670,49.497955 400.166107,48.526024 431.412689,54.601860 
	C437.265015,55.739838 442.908600,57.940117 448.661926,59.603714 
	C451.124176,60.315685 453.134064,61.614048 454.986969,63.409657 
	C461.050903,69.286011 467.714630,74.417015 475.960175,80.080124 
	C475.960175,70.438614 475.972656,62.031258 475.955383,53.623962 
	C475.945435,48.791206 475.977264,43.955700 475.824402,39.126686 
	C475.683563,34.679043 477.807251,32.655384 482.126404,32.703541 
	C486.605286,32.753471 488.411255,35.437935 488.281799,39.493156 
	C487.745026,56.305328 490.306488,73.057640 489.198486,89.873444 
	C488.969849,93.343544 489.930756,96.331787 491.815186,99.266052 
	C497.865265,108.686577 501.882782,119.182442 506.416931,129.314697 
	C510.328491,138.055695 510.844391,148.065063 511.138062,157.689285 
	C511.281219,162.379379 512.980591,165.233887 516.839355,167.131607 
	C522.814575,170.070236 528.813538,172.970291 534.895142,175.678604 
	C537.767212,176.957596 538.841125,178.692154 538.406006,181.880341 
	C537.664246,187.314499 537.852783,192.904663 537.090576,198.267090 
	C536.248779,204.189346 538.965332,207.664337 542.624756,211.161179 
	C543.586121,212.079880 544.647339,212.895782 545.678284,213.739838 
	C558.298401,224.072311 558.808899,239.496292 546.958679,251.023254 
	C544.812622,253.110733 542.895142,255.431244 540.794983,257.568359 
	C538.050781,260.360931 536.794067,263.615479 537.304016,267.537323 
	C538.645752,277.855591 534.295044,284.660278 524.875427,288.967194 
	C517.620056,292.284576 510.822937,296.591553 503.647064,300.100708 
	C500.145264,301.813171 499.221863,304.838074 498.200378,307.976654 
	C497.172516,311.134888 496.318634,314.349335 495.353546,317.528534 
	C492.429993,327.159058 485.428497,333.337128 477.600372,338.991119 
	C467.056335,346.606781 456.004395,353.433746 445.153656,360.574493 
	C443.672852,361.549011 441.834778,362.210266 441.244202,364.243774 
	C442.414490,366.383240 444.578094,365.999481 446.099274,365.542847 
	C452.900421,363.501343 458.892334,365.851379 463.995300,369.594147 
	C472.310455,375.692902 481.981964,378.671875 491.102478,382.928864 
	C492.421936,383.544739 493.626923,383.351105 494.963928,383.278198 
	C515.037048,382.184296 533.781067,386.302185 550.061646,398.553619 
	C566.902222,411.226440 574.044250,429.261261 576.096130,449.481323 
	C576.679321,455.228149 574.368042,461.097046 574.141785,467.051941 
	C574.010437,470.509644 570.668518,470.272888 568.082825,470.360504 
	C572.153503,452.177948 569.319580,435.353180 560.181580,419.602173 
	C555.102478,410.847382 548.733765,403.665283 538.898743,399.371429 
	C535.540894,397.905426 531.706360,396.622223 528.559021,394.488647 
	C524.887695,391.999817 522.864502,393.273865 521.167908,396.710022 
	C520.601257,397.857605 520.139648,399.211945 518.668152,399.630219 
	C516.422424,399.309937 517.353271,396.713470 515.551514,395.645874 
	C509.386108,395.991821 503.091400,397.483032 496.911407,399.377411 
	C493.175385,400.522614 491.763123,403.058960 493.008698,407.128143 
	C495.065735,413.848328 498.368805,420.025208 501.047852,426.469269 
	C502.764587,430.598663 502.024811,433.928345 498.962006,436.895447 
	C495.168732,440.570160 491.954773,445.013916 486.951965,447.158203 
	C485.058990,447.969543 486.677826,449.120178 485.882843,450.234894 
	C481.013885,447.825836 476.618774,450.347931 472.333282,452.253845 
	C461.375916,457.127014 449.565369,459.816162 438.930786,465.489441 
	C436.285095,466.900757 434.266907,465.256317 431.594879,463.677521 
	C435.864868,459.069824 439.826691,454.722717 443.866211,450.449005 
	C456.281677,437.313629 466.441040,422.879761 470.239746,404.780853 
	C470.647919,402.836060 470.957275,400.841217 471.026642,398.859558 
	C471.405731,388.033569 467.207153,383.017365 456.447540,381.245300 
	C452.286316,380.559998 449.353241,381.621338 446.826263,385.525360 
	C439.751312,396.455719 431.795776,406.749969 421.063171,414.451782 
	C403.737427,426.884918 384.857025,427.255829 365.264984,421.293457 
	C354.664337,418.067413 344.578949,413.856903 336.609619,405.719208 
	C333.549591,402.594543 331.105316,399.124451 329.030487,395.263397 
	C325.650421,388.973419 321.368256,383.144958 319.990509,375.906433 
	C319.676788,374.258087 318.184540,373.602966 316.623901,373.322449 
	C314.974884,373.026062 313.317261,372.772461 313.369598,370.322571 
	C303.467102,372.698700 297.279144,378.882538 293.737030,387.939178 
	C292.872772,390.148956 293.151886,392.538696 293.786224,394.823639 
	C298.102570,410.371216 304.802887,424.635132 314.571655,437.669556 
	C319.897949,444.776459 326.228394,450.871368 331.729126,457.737213 
	C334.111755,460.711212 338.755249,459.963837 340.898499,463.405518 
	C339.368500,466.045074 337.198853,464.466888 335.585114,464.047729 
	C321.267792,460.329041 307.113861,455.889648 292.672028,452.773956 
	C282.971039,450.681152 277.143829,444.398285 271.684662,437.278809 
	C268.084656,432.583893 267.531189,427.486298 270.501129,421.891510 
	C274.809601,413.775238 277.808167,405.112122 279.412964,396.019257 
	C280.586395,389.370605 278.948242,386.478241 272.924286,386.456085 
	C248.917084,386.367737 217.975037,396.836395 206.233719,424.652405 
	C201.069107,436.887787 199.800690,449.696930 200.089417,462.800903 
	C200.149948,465.548248 200.918762,468.403198 199.388550,471.579895 
	C195.344391,470.319733 191.362564,468.521057 191.809479,463.851196 
	C193.739899,443.680115 196.858414,423.698822 210.411896,407.420044 
	C221.962906,393.546387 237.804718,387.277069 254.995987,383.822662 
	C261.200256,382.575989 267.434387,381.507721 273.808411,381.714020 
	C274.638306,381.740845 275.699860,381.964050 276.269623,381.557404 
	C283.604584,376.323395 293.339142,377.107697 300.601593,371.898010 
	C304.729248,368.937042 309.200531,366.862274 314.297058,365.068756 
M345.004364,343.705994 
	C348.045197,343.677094 350.296692,345.568512 352.720825,346.967743 
	C355.501160,348.572601 358.301239,349.855591 361.623718,349.824951 
	C373.452515,349.715820 385.284241,349.517670 397.110809,349.669220 
	C413.917816,349.884552 425.382690,340.946411 434.975586,328.316650 
	C432.078064,327.183777 428.525665,329.632050 426.147827,326.445190 
	C427.503845,324.011444 429.776062,324.653107 431.573944,324.765198 
	C436.560150,325.076141 440.112122,323.183136 443.001862,319.110504 
	C447.047333,313.408997 451.519135,308.011536 455.719604,302.417206 
	C456.535339,301.330780 458.039673,300.382690 457.339020,298.517639 
	C446.945465,296.618561 436.166931,297.743073 425.398376,295.151642 
	C427.157837,292.573853 428.890991,293.409912 430.455017,293.494843 
	C438.768219,293.946289 447.081085,294.404480 455.393188,294.875854 
	C457.982635,295.022705 460.258209,294.443665 462.363098,292.763580 
	C470.214966,286.496338 477.521362,279.749847 482.864349,271.103180 
	C483.669678,269.799927 484.266052,267.987457 486.376404,268.023773 
	C487.376892,269.298676 486.447327,270.325439 485.888702,271.221588 
	C481.826416,277.738251 477.795074,284.465485 471.641968,289.128601 
	C460.292664,297.729706 454.182220,310.403778 445.591156,321.137390 
	C444.037933,323.078003 444.407898,326.068573 441.990540,327.537933 
	C437.363220,330.350555 433.790161,334.356476 430.499084,338.508789 
	C426.843201,343.121399 422.244812,346.659149 416.937714,348.362640 
	C409.670105,350.695435 405.201111,355.031769 402.856354,362.052795 
	C401.866974,365.015320 401.312561,368.195190 403.157227,370.661133 
	C405.222565,373.422058 408.137665,371.506866 410.436615,370.426788 
	C416.315002,367.664948 422.121307,364.737213 427.855438,361.686005 
	C430.783417,360.127991 433.787109,358.423340 435.584930,355.505554 
	C438.796051,350.293854 442.996582,346.107117 448.027740,342.712921 
	C451.003906,340.705170 452.516571,337.869415 452.954559,334.402863 
	C453.855164,327.274902 455.403534,325.575073 462.656708,324.187225 
	C466.245850,323.500427 470.010620,323.390747 473.148651,321.243500 
	C475.841522,319.400818 478.674652,318.469482 481.986237,318.359558 
	C485.608704,318.239380 488.854340,317.051361 490.268860,313.104980 
	C498.757721,289.421967 504.955505,265.356354 502.656769,239.852707 
	C502.567505,238.862793 502.476990,237.852417 502.205780,236.903381 
	C501.426819,234.177490 499.638672,232.135651 496.802673,233.402954 
	C494.562561,234.403946 491.207672,235.973190 494.241699,239.628891 
	C495.293823,240.896576 495.243958,242.373566 494.952057,243.903397 
	C493.876099,249.542313 491.771240,254.760117 488.542175,259.502838 
	C487.856140,260.510406 487.269958,261.990845 485.548798,261.230377 
	C484.424225,259.471954 486.947479,258.101624 486.113556,255.963043 
	C481.794922,261.448456 477.541565,266.390442 471.979248,269.861176 
	C469.051758,271.687836 466.749329,273.400330 468.769165,277.011627 
	C466.822418,278.710510 465.269073,277.972046 464.024902,276.814972 
	C462.257355,275.171112 460.488953,275.444244 458.480164,276.140289 
	C449.902039,279.112579 441.318207,278.546478 433.074066,275.201843 
	C420.372070,270.048645 408.233734,262.457916 404.217072,249.268738 
	C397.769135,228.096237 406.574127,208.997131 429.644989,199.588577 
	C449.094116,191.657013 466.425934,198.022446 482.811127,209.009216 
	C486.032562,211.169281 488.770996,216.095871 493.926758,212.309616 
	C494.110901,212.174393 494.756805,212.704803 495.203705,212.884796 
	C500.752502,215.119522 502.127014,214.339172 502.860596,208.420197 
	C504.568451,194.640793 502.961670,180.774658 503.832123,166.990036 
	C504.912598,149.880005 500.737427,133.995453 493.819641,118.607277 
	C486.371246,102.038605 475.358490,88.231529 461.374451,76.737740 
	C457.173798,73.285126 454.072296,74.146683 452.291992,79.209908 
	C451.798370,80.613853 451.522797,82.103966 451.246185,83.573189 
	C449.297882,93.922005 446.276215,103.941856 442.035614,113.582504 
	C441.551239,114.683693 441.482727,116.372292 439.550171,116.145470 
	C438.896515,113.399506 438.854126,113.380562 440.028320,110.752411 
	C445.232391,99.104248 447.253967,86.539703 450.470856,74.324837 
	C451.632355,69.914421 450.266907,66.728592 445.333130,65.203384 
	C439.607971,63.433537 433.948792,61.474377 428.062653,60.290588 
	C408.292938,56.314579 388.269867,56.757393 368.324951,57.603588 
	C353.398712,58.236858 338.460663,59.640301 324.026886,64.253494 
	C319.846039,65.589745 317.801056,67.497162 318.296143,72.024460 
	C318.474121,73.651886 319.213226,75.666435 317.483917,77.146988 
	C315.040833,76.315216 316.178040,72.974693 313.867310,72.094528 
	C313.363312,72.277763 312.837189,72.352043 312.452789,72.625526 
	C290.696533,88.103401 276.817169,109.100761 269.109558,134.441483 
	C263.837524,151.774704 264.374603,169.645508 264.107513,187.442474 
	C264.029144,192.664017 264.095459,197.887726 264.095459,203.313217 
	C274.001434,195.143433 279.814148,184.847397 285.774963,174.652985 
	C286.612671,173.220306 287.510101,171.756958 288.662476,170.585892 
	C292.532196,166.653366 296.661407,162.688599 302.318085,161.955978 
	C320.066772,159.657303 337.891327,160.468643 355.699646,161.336731 
	C371.151611,162.089996 386.562256,163.830963 402.085663,162.022964 
	C416.795044,160.309784 431.526123,158.408356 446.395294,159.061874 
	C451.426270,159.282990 456.437622,159.951019 461.877869,160.453598 
	C459.444550,156.800674 454.834808,155.973175 453.277954,151.784286 
	C467.368500,154.976685 486.735443,176.324081 485.419800,187.645981 
	C481.866547,183.828857 480.994080,179.123505 478.890594,175.136719 
	C475.742004,169.169189 470.869171,164.317078 464.696289,163.484528 
	C447.845001,161.211792 430.849884,161.741531 413.913544,163.759827 
	C401.857269,165.196564 389.784668,166.777206 377.578156,165.894104 
	C356.489380,164.368454 335.413910,162.703506 314.227478,163.338898 
	C302.617737,163.687088 292.829681,167.219971 287.314362,178.110611 
	C283.315491,186.006912 277.789001,192.893738 273.447876,200.555374 
	C271.067352,204.756775 271.071320,207.946136 275.164490,210.813782 
	C279.572296,210.306351 283.622192,208.717743 287.607361,206.545715 
	C296.717224,201.580612 306.249237,197.273392 316.749298,196.795197 
	C340.931580,195.693924 358.216339,208.256409 364.637604,231.634064 
	C365.898438,236.224335 367.920013,241.436249 365.186371,246.206024 
	C358.132660,258.513519 348.543701,268.248566 335.240173,273.780029 
	C324.249084,278.349976 313.327972,278.681061 302.521851,272.870422 
	C297.044891,269.925385 292.278839,266.091309 287.518005,261.768280 
	C286.530884,265.271942 285.370483,265.955231 282.840149,262.966064 
	C277.937775,257.174744 273.577026,251.064880 270.149628,244.119141 
	C270.276367,249.673737 266.048889,253.690979 266.251984,259.313538 
	C266.549713,267.556091 267.672974,275.636719 269.974304,283.397278 
	C273.142822,294.082184 271.854401,306.309875 280.501373,315.184601 
	C280.694031,315.382355 280.724854,315.825958 280.693298,316.141083 
	C279.809479,324.968323 285.813232,329.603088 292.134277,333.232483 
	C299.388245,337.397552 305.995819,342.395172 312.785095,347.165131 
	C327.175812,357.275726 342.863617,364.922852 358.894440,371.962006 
	C362.248322,373.434723 363.711945,372.343719 364.327271,368.820282 
	C365.092804,364.436584 364.543762,360.205536 363.780487,355.930450 
	C363.464966,354.163330 362.407959,353.379425 360.725372,353.199890 
	C353.889130,352.470428 348.915436,348.213257 344.014771,344.002869 
	C344.014771,344.002869 344.242310,343.766418 345.004364,343.705994 
M239.134995,246.002563 
	C239.157028,246.334412 239.132202,246.677444 239.208252,246.996399 
	C240.101944,250.743729 244.303864,254.260101 247.383438,253.487579 
	C251.289368,252.507721 249.607559,249.088806 249.631393,246.782227 
	C249.840958,226.498703 249.870850,206.213104 249.893082,185.928040 
	C249.896667,182.661804 249.599319,179.395218 249.440735,176.121582 
	C239.936005,177.050018 237.516006,179.913116 238.477402,188.426682 
	C238.812500,191.394073 239.575546,194.448334 239.196426,197.338730 
	C237.106064,213.275497 239.177444,229.192154 239.134995,246.002563 
M530.591980,219.500198 
	C530.627075,208.359940 530.659119,197.219681 530.698975,186.079437 
	C530.712891,182.183456 528.282959,179.209366 525.082336,178.932388 
	C521.628784,178.633545 520.599182,182.438843 520.423035,185.484909 
	C520.164124,189.959824 520.276917,194.459045 520.306824,198.947403 
	C520.417664,215.570221 519.824829,232.200699 520.760437,248.812668 
	C520.874695,250.841522 520.544189,253.362106 523.194641,254.346558 
	C526.106384,255.428055 527.270630,252.681442 529.050781,251.440414 
	C530.913208,250.142075 530.670288,247.933258 530.665527,245.940002 
	C530.645569,237.460114 530.609375,228.980270 530.591980,219.500198 
M398.510986,359.403564 
	C397.583984,357.510925 398.750397,355.583740 398.620575,353.259033 
	C387.664795,353.229156 376.911682,352.680420 366.003479,353.416351 
	C366.569550,355.753693 368.875153,355.590027 369.132172,357.711517 
	C366.023254,361.458954 367.089233,366.222382 366.977112,370.804443 
	C366.910980,373.506409 368.187469,374.733002 370.906647,374.701782 
	C376.057220,374.642609 381.209229,374.720001 386.360321,374.687317 
	C398.715271,374.608887 399.669098,373.562317 398.783905,361.215881 
	C398.760162,360.885040 398.697662,360.557007 398.510986,359.403564 
M317.151062,258.603394 
	C319.309875,258.724854 321.474365,259.013214 323.626617,258.940491 
	C336.653351,258.500366 346.547852,252.796463 352.666687,241.139694 
	C354.000244,238.599106 355.351654,235.577179 351.202637,234.031296 
	C349.665771,235.190796 349.441345,236.743973 348.826813,238.086533 
	C344.346985,247.873672 332.381348,255.031631 322.141083,254.061264 
	C310.181976,252.928024 302.114166,245.465240 299.207733,233.180573 
	C298.157318,228.740799 299.468079,223.887238 296.970459,219.695099 
	C294.413269,219.919281 293.929993,221.947830 293.369781,223.533401 
	C291.036316,230.137741 291.591644,236.617233 294.874969,242.799652 
	C299.476166,251.463608 306.912323,256.313049 317.151062,258.603394 
M467.764069,244.136765 
	C461.487457,253.526840 452.528564,257.247498 441.539459,256.102051 
	C430.292084,254.929672 422.923676,247.818481 420.614563,236.494263 
	C420.269775,234.803406 420.399506,232.310776 417.769226,232.664230 
	C415.196136,233.010010 415.106934,235.270706 415.376709,237.380432 
	C415.481567,238.200317 415.707947,239.007263 415.913269,239.811340 
	C419.677002,254.550125 435.359467,263.691803 451.627380,260.373596 
	C463.783936,257.893982 472.923431,251.438858 475.976074,238.860504 
	C477.495209,232.600983 478.235291,225.887314 472.115753,219.217102 
	C472.253723,228.442490 473.327606,236.600510 467.764069,244.136765 
M463.420807,240.490372 
	C462.796906,237.087692 461.151184,236.993134 458.525513,238.734100 
	C451.168640,243.612045 443.551575,244.778137 435.700195,239.812195 
	C433.801361,238.611206 431.893799,237.355606 430.060730,239.772446 
	C428.081451,242.382126 429.521545,244.385849 431.391388,246.290146 
	C440.345093,255.408783 457.522003,252.640594 463.420807,240.490372 
M324.557617,242.337738 
	C320.408325,242.632141 317.090271,240.072906 313.426941,238.829117 
	C311.269104,243.600037 313.787323,248.529633 319.194824,249.595413 
	C327.468018,251.225998 335.036957,249.452515 341.355347,243.600464 
	C342.950500,242.123077 344.644775,240.231323 342.859863,238.025787 
	C341.126160,235.883514 338.965820,236.172913 336.716553,237.818771 
	C333.372711,240.265594 329.907928,242.635635 324.557617,242.337738 
M317.476440,218.518082 
	C318.981842,222.150818 327.366333,227.819809 331.069946,227.721771 
	C333.032990,227.669800 334.086487,226.557602 334.503632,224.757996 
	C335.286072,221.382248 331.679871,216.309647 327.316895,214.506287 
	C323.075897,212.753326 319.532654,212.913712 317.476440,218.518082 
M447.554688,210.381882 
	C444.315491,210.791519 441.643250,212.104584 441.463593,215.722610 
	C441.279846,219.423065 443.931274,221.426254 446.983795,222.573914 
	C450.108307,223.748657 453.438751,224.549606 456.264679,221.684280 
	C457.773590,220.154343 457.613922,218.427368 456.718994,216.647751 
	C454.959106,213.148087 452.154449,211.064682 447.554688,210.381882 
M220.392761,229.081619 
	C221.391739,231.171402 222.370743,233.642410 225.269989,232.849457 
	C227.802658,232.156754 228.025620,229.733383 227.828125,227.486389 
	C227.622009,225.141251 228.964890,221.759644 226.024490,220.870712 
	C222.838699,219.907593 222.505569,223.670944 221.186249,225.577316 
	C220.659348,226.338654 220.609650,227.430222 220.392761,229.081619 
M308.258087,223.675232 
	C305.288696,223.950516 303.503326,225.456787 304.551483,228.480103 
	C305.202637,230.358368 307.364532,230.193726 308.791107,229.335205 
	C311.440979,227.740509 311.257721,225.761566 308.258087,223.675232 
M483.796234,80.534752 
	C483.441650,78.958427 484.298615,76.925835 482.177887,75.819633 
	C480.406952,81.183357 480.695312,83.935966 483.243286,86.557823 
	C485.677856,85.079376 484.132904,83.101830 483.796234,80.534752 
M287.627167,68.399559 
	C288.176941,65.614487 287.427734,62.975769 286.873199,59.496578 
	C285.385406,62.900421 285.241333,65.692154 285.396729,68.475105 
	C285.482086,70.003265 286.414856,69.906357 287.627167,68.399559 
M481.105743,46.180984 
	C481.273376,47.670280 480.718658,49.323624 482.361267,51.421265 
	C482.713348,48.398121 483.001343,46.203167 483.196167,43.999977 
	C483.231781,43.597202 482.888000,43.160877 482.721405,42.745182 
	C480.391541,42.732315 481.056213,44.306767 481.105743,46.180984 
M428.601501,223.417633 
	C427.413940,224.506592 426.480377,225.862000 428.212524,226.990753 
	C429.779938,228.012161 430.459686,226.554718 430.916473,225.267654 
	C431.524658,223.553955 431.674683,222.201630 428.601501,223.417633 
z"/>
<path fill="#000000" opacity="1.000000" stroke="none" 
	d="
M255.315887,464.575775 
	C243.207855,470.161163 234.034409,464.673309 233.180466,451.807587 
	C233.080368,450.299530 233.584961,449.301483 234.488495,448.256378 
	C240.350189,441.476288 248.169373,439.735413 256.483643,443.700958 
	C258.750916,444.782349 260.558350,445.485229 262.060425,442.774292 
	C265.762360,448.425873 262.142883,459.926971 255.315887,464.575775 
z"/>
<path fill="#000000" opacity="1.000000" stroke="none" 
	d="
M530.640991,465.911743 
	C525.319214,468.470490 520.323364,468.442780 515.520020,465.708893 
	C509.292847,462.164520 507.309296,454.052277 511.019684,447.931580 
	C514.499878,442.190582 523.182312,440.694611 529.671143,444.826630 
	C532.805847,446.822784 536.692566,449.629578 536.400452,452.917328 
	C536.100708,456.291565 535.625854,460.472931 532.976990,463.480957 
	C532.319031,464.228180 531.628967,464.947144 530.640991,465.911743 
z"/>
<path fill="#000000" opacity="1.000000" stroke="none" 
	d="
M417.082001,422.929199 
	C419.148743,422.597198 420.938782,421.723022 422.749878,423.637238 
	C420.657471,425.518402 418.439301,427.064087 415.903687,425.883820 
	C414.357239,425.163971 415.216736,423.645660 417.082001,422.929199 
z"/>
<path fill="#000000" opacity="1.000000" stroke="none" 
	d="
M397.029541,428.040558 
	C397.254730,430.489807 396.266479,431.703705 394.529816,431.545044 
	C393.469086,431.448120 392.407043,430.926971 392.528809,429.819580 
	C392.833588,427.047913 395.046448,427.992493 397.029541,428.040558 
z"/>
<path fill="#000000" opacity="1.000000" stroke="none" 
	d="
M444.784363,138.119049 
	C445.817963,139.565369 447.265137,140.400543 447.117737,142.643890 
	C442.792084,140.832947 440.823700,136.866974 437.973267,133.935410 
	C435.529205,131.421799 433.443115,128.699966 429.511536,128.304199 
	C425.497131,127.900085 422.451141,128.890366 421.503662,133.099335 
	C420.535034,137.402084 417.883606,138.311798 413.849121,138.288315 
	C393.031189,138.167175 372.211823,138.244049 351.393341,138.338379 
	C347.969604,138.353882 345.060944,138.160370 344.430298,133.854019 
	C344.107880,131.652283 342.282440,131.145386 340.274292,131.108475 
	C335.660858,131.023697 332.112793,128.082733 327.303955,127.020027 
	C334.634064,121.784523 348.262329,124.533287 353.274170,131.561569 
	C353.162903,132.799011 352.196106,133.072769 351.253204,133.468903 
	C350.594116,133.745804 349.526733,133.364700 349.205292,134.991394 
	C353.146149,134.991394 356.951996,135.017853 360.757385,134.986862 
	C377.892029,134.847336 395.025482,136.211136 412.164062,134.982056 
	C414.753082,134.796387 417.259674,134.884293 418.114166,131.602219 
	C416.458862,131.818893 414.372101,132.935318 413.796600,130.269806 
	C413.297058,127.956245 414.475647,126.426247 416.694580,125.752708 
	C419.270416,124.970833 421.939789,124.659065 424.601990,124.892052 
	C428.417053,125.225929 431.377472,124.347908 433.267578,120.621712 
	C434.206116,118.771484 435.777863,117.142281 438.329590,117.566490 
	C438.415131,118.132767 438.586823,118.488678 438.488373,118.737808 
	C437.425781,121.426414 432.810303,122.424889 434.116547,125.881203 
	C435.047211,128.343750 437.710052,130.148880 439.589874,132.256363 
	C441.252441,134.120255 442.901093,135.996552 444.784363,138.119049 
z"/>
<path fill="#000000" opacity="1.000000" stroke="none" 
	d="
M343.903015,344.122986 
	C342.535034,344.267639 341.441162,343.836151 340.809265,342.749695 
	C333.084503,329.468323 320.552917,320.269318 311.459259,308.153229 
	C308.461151,304.158661 305.380859,300.224762 302.434113,296.192963 
	C297.040527,288.813293 291.872162,281.312988 284.033325,276.090546 
	C279.111969,272.811829 276.480286,267.543274 273.607391,262.200623 
	C276.654999,262.049744 277.845703,264.079712 279.032837,265.717560 
	C282.890778,271.040131 287.560181,275.393372 292.925079,279.212311 
	C297.411377,282.405853 300.298584,287.398346 303.344696,291.777649 
	C310.019562,301.373901 317.275665,310.427582 324.811981,319.318787 
	C327.918884,322.984253 331.291992,325.077423 336.345673,324.907196 
	C339.740936,324.792847 343.872467,324.682922 345.229156,329.293182 
	C341.814636,328.483246 338.553345,327.582275 334.678589,327.806274 
	C336.540131,333.921326 342.274384,337.345825 344.114563,343.447632 
	C344.242310,343.766418 344.014771,344.002869 343.903015,344.122986 
z"/>
<path fill="#000000" opacity="1.000000" stroke="none" 
	d="
M370.469910,291.288696 
	C377.004700,286.985260 384.017944,286.369568 391.219757,287.206146 
	C393.319366,287.450043 396.129089,288.342102 394.342255,291.307648 
	C391.997437,295.199188 388.618652,298.290466 383.845764,298.905396 
	C379.924225,299.410614 371.847717,294.845215 370.469910,291.288696 
z"/>
<path fill="#000000" opacity="1.000000" stroke="none" 
	d="
M376.126831,324.174500 
	C372.648804,324.972290 369.601410,325.741821 366.530853,326.403717 
	C364.802948,326.776215 363.003265,326.674866 362.524048,324.591370 
	C362.100281,322.748962 363.637085,321.952942 365.085785,321.477844 
	C377.395508,317.440765 389.688141,316.398132 401.885742,321.909607 
	C403.418365,322.602112 405.153381,323.493164 404.354309,325.544067 
	C403.660339,327.325195 401.909729,326.834503 400.440887,326.507019 
	C394.645996,325.215088 389.033783,322.881714 382.934052,323.327850 
	C380.797852,323.484070 378.676117,323.837708 376.126831,324.174500 
z"/>
<path fill="#000000" opacity="1.000000" stroke="none" 
	d="
M321.259705,113.545662 
	C317.959015,103.407028 316.758759,93.337570 315.909790,83.137154 
	C318.428619,82.980400 318.202942,84.423622 318.394196,85.471527 
	C319.405487,91.011963 320.681580,96.526321 321.286774,102.112450 
	C321.912262,107.885612 325.909637,112.402145 326.623932,118.099197 
	C326.822723,119.684967 327.855072,121.170372 326.455780,123.045364 
	C322.892731,120.965698 323.208252,116.818207 321.259705,113.545662 
z"/>
<path fill="#000000" opacity="1.000000" stroke="none" 
	d="
M345.157379,192.509201 
	C343.657227,190.490463 342.850098,188.578125 344.556000,186.839706 
	C346.137573,185.227982 348.028351,186.426941 349.677612,187.025330 
	C351.697021,187.758041 353.648621,188.697067 355.579224,189.648972 
	C357.285797,190.490433 358.844879,191.524460 357.866547,193.859436 
	C357.014099,195.893845 355.609833,197.152786 353.261963,196.807129 
	C350.208679,196.357574 347.623810,194.939438 345.157379,192.509201 
z"/>
<path fill="#000000" opacity="1.000000" stroke="none" 
	d="
M418.455444,192.231323 
	C416.049652,194.359512 414.581268,197.670364 410.876495,196.386917 
	C409.515900,195.915573 407.832367,195.109924 408.176147,193.254028 
	C408.839355,189.673584 411.913788,188.322144 414.778656,187.027145 
	C416.221191,186.375076 418.128082,185.597000 419.489532,187.012756 
	C421.195007,188.786301 419.443207,190.358887 418.455444,192.231323 
z"/>
<path fill="#000000" opacity="1.000000" stroke="none" 
	d="
M375.432861,333.571381 
	C381.802307,333.788513 387.805298,333.732422 394.064850,333.042755 
	C393.387390,335.933197 391.629456,336.175873 390.027649,336.215485 
	C385.550354,336.326202 381.064148,336.349518 376.590881,336.171204 
	C375.390320,336.123291 372.228912,336.370728 375.432861,333.571381 
z"/>
<path fill="#000000" opacity="1.000000" stroke="none" 
	d="
M495.016052,205.554810 
	C491.344269,201.356262 488.496674,197.028961 486.290863,191.856277 
	C489.837128,193.177856 497.075836,202.767609 496.813599,205.584656 
	C496.737213,206.405106 495.839661,206.144424 495.016052,205.554810 
z"/>
<path fill="#000000" opacity="1.000000" stroke="none" 
	d="
M385.674622,228.509308 
	C389.181305,227.680756 392.073242,225.863922 395.617554,226.018036 
	C393.135010,230.141403 387.661407,231.926773 382.728668,230.396942 
	C382.916595,228.825577 384.277985,228.951385 385.674622,228.509308 
z"/>
<path fill="#000000" opacity="1.000000" stroke="none" 
	d="
M369.876801,225.260864 
	C372.758850,226.831406 375.932190,226.908051 378.414337,228.955734 
	C374.496460,230.603790 370.056763,229.325439 366.208679,225.596603 
	C367.076660,223.754364 368.380768,224.832153 369.876801,225.260864 
z"/>
</svg>