<svg version="1.1" id="Layer_1" xmlns="http://www.w3.org/2000/svg" xmlns:xlink="http://www.w3.org/1999/xlink" x="0px" y="0px"
	 width="100%" viewBox="0 0 768 512" enable-background="new 0 0 768 512" xml:space="preserve">
<path fill="#000000" opacity="1.000000" stroke="none" 
	d="
M369.291504,77.957535 
	C412.883392,75.736557 453.972107,83.605347 492.560486,103.221794 
	C523.455566,118.927345 547.969971,141.657547 565.914734,171.367935 
	C567.995361,174.812805 569.799744,178.418335 574.300720,179.284775 
	C574.908813,179.401825 575.766479,179.843155 575.943054,180.336609 
	C578.303589,186.935837 585.085571,188.335861 589.659851,192.306839 
	C598.661804,200.121475 603.798218,210.322159 605.236511,222.198975 
	C607.608459,241.785004 606.838318,261.400482 605.449524,281.007782 
	C605.221985,284.220276 605.297180,287.140564 607.645691,289.864319 
	C611.255127,294.050537 608.759094,298.918610 608.104004,303.326904 
	C606.890442,311.492615 603.258728,318.521332 598.116333,325.268311 
	C593.483826,331.346283 587.406555,335.306732 582.262207,340.360138 
	C575.684631,346.821289 569.385010,353.944611 563.387634,361.196014 
	C539.010071,390.671112 508.227112,409.396027 469.750671,414.422485 
	C460.191437,415.671326 450.721832,417.617310 441.089142,418.333038 
	C438.503510,418.525146 436.655457,419.695160 435.512970,421.943939 
	C434.306793,424.318146 432.901581,426.654846 432.129791,429.175262 
	C428.416809,441.300323 419.701660,446.773682 407.667542,447.850067 
	C390.708893,449.366974 373.783508,449.633667 356.936859,446.444550 
	C346.886566,444.542053 339.383423,439.255127 336.911255,429.252319 
	C334.579987,419.819550 328.309662,418.072113 320.073242,417.226410 
	C299.651764,415.129456 279.592377,411.209076 260.594116,402.996704 
	C239.115051,393.711975 222.077606,378.834747 207.467575,360.892273 
	C203.291794,355.764008 198.674744,351.035919 194.187531,346.239899 
	C189.567993,341.302460 184.104904,338.052887 179.195877,333.849976 
	C168.829742,324.974915 164.337982,312.794983 162.726807,299.544037 
	C160.044952,277.487305 160.262375,255.306320 160.860809,233.169571 
	C161.267441,218.127228 168.055496,205.305573 177.418182,193.813232 
	C179.587280,191.150757 182.631760,189.737488 185.865921,188.721283 
	C187.288452,188.274307 189.258545,188.152878 189.990448,187.156647 
	C194.515747,180.996948 201.427185,176.766098 205.379181,170.528641 
	C224.093704,140.991318 249.731232,119.235107 280.016754,102.704948 
	C306.400238,88.304565 334.956329,80.905968 364.865875,78.571594 
	C366.190979,78.468178 367.502411,78.189049 369.291504,77.957535 
M304.626770,359.707703 
	C316.261932,360.370209 327.891602,361.460205 339.533386,361.611023 
	C368.690491,361.988739 397.852966,361.972290 427.013489,362.055237 
	C458.013702,362.143402 488.917267,360.874268 519.414795,354.705353 
	C524.203979,353.736572 529.410706,353.281921 532.025024,347.924835 
	C532.503357,346.944733 533.945801,345.805176 535.296753,347.382538 
	C536.529053,348.821289 537.762024,347.729980 538.919922,347.371094 
	C544.519836,345.635529 547.584045,341.930328 548.791809,336.048035 
	C551.743164,321.673920 553.674011,307.152039 554.542480,292.556366 
	C556.066528,266.941772 555.965027,241.274261 555.594299,215.619812 
	C555.541626,211.976212 555.173401,208.266296 554.365112,204.720703 
	C553.072510,199.050919 550.733093,194.162827 544.416565,192.071716 
	C535.514221,189.124588 526.439331,187.188263 517.147156,186.251343 
	C491.929657,183.708679 466.619019,183.325500 441.302094,183.143433 
	C433.473358,183.087143 425.638763,183.137207 417.843353,182.247192 
	C415.302490,181.957123 412.596069,181.983353 410.387238,179.197174 
	C414.358612,178.039459 417.686707,179.539948 421.038666,179.572937 
	C453.012238,179.887558 484.990845,179.945602 516.892090,182.637222 
	C521.466797,183.023193 523.239929,180.960052 522.936584,176.297943 
	C522.783752,173.948914 522.203003,171.627716 521.766846,168.998962 
	C523.680237,169.912674 522.815857,172.270432 524.789612,172.635880 
	C526.657410,171.333633 525.925781,169.357269 525.858398,167.662460 
	C525.409668,156.387070 522.374207,145.673279 518.543152,135.155716 
	C517.089783,131.165634 514.742798,127.860077 511.172363,125.338737 
	C478.322113,102.141159 441.523468,90.153183 401.677155,87.488503 
	C380.715576,86.086716 359.779053,87.138367 339.052979,91.324303 
	C310.742432,97.042030 284.553009,107.423027 261.428467,125.043304 
	C257.927063,127.711258 255.743958,130.987045 254.364777,135.034561 
	C250.482315,146.428436 248.464111,158.234879 246.805420,170.089630 
	C245.752625,177.613937 251.491180,182.919708 258.865814,182.156921 
	C265.486237,181.472122 272.143127,181.032822 278.795135,180.779541 
	C303.589111,179.835480 328.387665,179.009689 353.184723,178.146866 
	C357.554657,177.994827 361.887970,178.179962 366.845154,179.568558 
	C364.314911,180.895248 362.339600,181.011353 360.367920,181.088776 
	C332.747711,182.173141 305.114227,182.998383 277.511658,184.423096 
	C261.758118,185.236191 245.928253,186.031433 230.673370,190.863831 
	C222.661118,193.401901 219.742035,196.930969 219.347946,205.158768 
	C218.175919,229.628387 217.764801,254.113480 218.414459,278.598877 
	C218.801208,293.174805 220.731934,307.640045 222.341431,321.970093 
	C223.346725,322.263306 222.981720,319.706482 223.880432,321.311371 
	C225.050644,323.401062 225.747314,325.667969 224.888702,328.434509 
	C222.061218,337.544952 227.256485,344.970245 236.835388,345.951233 
	C237.749008,346.044800 238.289032,346.396820 238.883224,347.066803 
	C241.905762,350.474884 246.215851,351.779663 250.303360,352.575562 
	C267.947235,356.010895 285.770599,358.294281 304.626770,359.707703 
M483.184784,364.079193 
	C406.293304,367.878479 329.479401,368.604248 252.727432,357.787476 
	C252.990677,358.753693 252.995285,359.306030 253.260437,359.666840 
	C264.232483,374.596771 279.235107,382.702454 297.082062,386.932709 
	C311.893707,390.443542 327.352264,391.708221 341.266571,398.679352 
	C344.366241,400.232361 348.256500,400.148407 350.820282,402.754974 
	C352.977692,404.948303 355.547089,405.590729 358.404236,406.051331 
	C374.669617,408.673492 391.157196,407.592529 407.549225,409.206207 
	C428.831146,411.301361 450.496857,410.270477 470.782990,401.421783 
	C473.809143,400.101807 476.571289,398.174255 479.602020,396.867432 
	C492.794159,391.179260 503.870514,382.454865 514.401367,372.922974 
	C515.985779,371.488831 517.626099,370.419189 515.848450,367.603668 
	C514.354492,365.237488 516.414368,363.882812 518.813110,364.056580 
	C523.647583,364.406708 524.498047,361.522308 524.820801,357.096100 
	C511.065338,360.600128 497.598846,362.405975 483.184784,364.079193 
M186.691650,244.505280 
	C186.925156,232.645401 186.269821,220.884415 182.869629,209.417587 
	C182.490479,208.138962 182.412582,206.665955 180.697281,206.465698 
	C179.152802,206.285385 178.148727,207.274338 177.518295,208.476746 
	C173.566345,216.013885 169.454315,223.649857 169.409714,232.360504 
	C169.307404,252.338699 168.524994,272.342102 170.368210,292.287842 
	C171.152496,300.774658 172.760162,309.092499 176.601578,316.820099 
	C178.131805,319.898376 179.922409,322.924500 183.912323,322.610260 
	C187.552826,322.323517 188.989990,319.373322 190.313278,316.361511 
	C192.356613,311.710815 192.678329,306.115021 197.077377,302.724457 
	C202.490875,298.552063 202.020905,292.950134 201.027725,287.315582 
	C199.547409,278.917480 200.432266,270.454926 199.943420,262.044281 
	C198.741592,241.366241 203.189392,220.969574 202.738846,200.342239 
	C202.721359,199.541168 202.852814,198.619583 203.244797,197.946213 
	C205.466949,194.128723 203.418533,191.904175 201.078201,190.078018 
	C191.977112,194.707413 195.200165,202.408356 196.445572,210.337570 
	C192.539352,207.837524 191.446640,204.738693 189.502472,202.362488 
	C188.778030,201.477066 187.965698,200.411407 186.585434,201.096115 
	C185.220047,201.773483 185.444824,202.884384 185.918884,204.088547 
	C190.518509,215.771500 191.079910,228.069336 191.298248,240.395737 
	C191.490005,251.222244 191.284744,262.059570 191.659088,272.878113 
	C192.091354,285.369904 190.465652,297.432587 185.571289,308.980042 
	C184.984406,310.364716 184.673386,312.178589 181.887802,312.131287 
	C185.597260,300.627716 187.183228,289.214996 186.864365,277.497620 
	C186.574326,266.839203 186.733292,256.168640 186.691650,244.505280 
M238.209061,143.707275 
	C226.828476,154.994568 217.770554,168.117172 208.519318,181.099197 
	C206.626816,183.754898 207.788422,185.934540 209.041199,187.958908 
	C210.587296,190.457199 212.980148,192.275803 216.168167,191.265244 
	C225.432709,188.328552 234.642624,185.219467 243.639633,182.255219 
	C239.704391,165.877136 247.975082,151.104782 248.268250,135.286880 
	C244.486435,137.367340 241.621735,140.319305 238.209061,143.707275 
M551.963440,190.291809 
	C557.726562,193.437485 560.500244,192.168533 562.192017,185.837021 
	C562.728149,183.830566 562.093445,182.301773 561.203979,180.652756 
	C552.413391,164.354507 540.634644,150.437668 527.128723,137.906860 
	C526.291016,137.129623 525.563171,135.690140 523.591064,136.426620 
	C526.924927,146.074371 528.477295,156.128754 531.351624,165.806442 
	C532.546265,169.828598 532.722351,172.623047 530.232605,176.127197 
	C527.150513,180.464951 527.755554,181.921371 532.800659,183.824295 
	C538.866333,186.112152 545.084717,187.995377 551.963440,190.291809 
M578.618774,272.498596 
	C578.859009,262.188080 578.166504,251.815048 580.688232,241.622879 
	C581.823486,256.401459 580.238464,271.294464 582.825684,285.954102 
	C583.559631,275.509674 584.487183,265.083954 584.580261,254.650772 
	C584.722961,238.660217 585.690796,222.777252 588.484985,207.022278 
	C588.961365,204.336411 588.313049,202.112854 585.506104,200.510483 
	C582.697083,202.869843 579.949829,205.214767 581.358765,209.459747 
	C581.824341,210.862442 581.522827,211.601929 580.481506,212.417801 
	C578.781616,213.749680 578.444763,215.708725 578.058289,217.712372 
	C575.490723,231.024170 574.808105,244.484833 575.528137,257.961121 
	C575.981873,266.454193 576.294983,274.956146 575.768127,283.396820 
	C575.335327,290.329163 577.985291,297.751099 573.032471,304.221222 
	C572.189392,305.322571 572.514893,307.452820 572.597290,309.092834 
	C572.691895,310.973816 574.055542,312.235657 575.524719,310.754089 
	C578.189941,308.066376 581.640564,305.724365 580.597473,300.810577 
	C578.689697,291.823486 578.392822,282.667328 578.618774,272.498596 
M230.764954,368.802826 
	C232.537277,374.337097 236.812241,377.141113 241.803268,379.459137 
	C246.051819,381.432281 247.056534,381.024902 248.202362,376.401276 
	C249.041489,373.015228 248.813599,368.706268 253.367996,367.963470 
	C248.182556,357.443451 239.600571,351.060394 228.131058,348.469513 
	C226.562729,348.115234 225.045013,347.016785 223.475006,348.469574 
	C221.745667,350.069763 222.633621,351.827179 223.144180,353.547638 
	C224.714798,358.840302 227.028900,363.768921 230.764954,368.802826 
M559.942871,280.242249 
	C558.907593,299.822083 558.343506,319.447205 554.091370,338.709564 
	C553.772583,340.153717 552.729004,342.232513 555.400146,342.694855 
	C557.513489,343.060638 558.347839,341.491852 558.780884,339.781464 
	C559.473022,337.047211 560.203857,334.309448 560.658325,331.530640 
	C562.597290,319.674072 562.315491,307.668091 563.052429,295.728394 
	C564.616028,270.396729 562.763733,245.173691 561.481567,219.924438 
	C561.326599,216.872559 560.664429,213.846436 560.237366,210.808365 
	C560.565735,233.733292 560.271423,256.511444 559.942871,280.242249 
M213.582840,289.844116 
	C211.861496,261.448395 210.791367,233.047501 213.314560,204.596497 
	C210.032578,210.053757 209.924042,216.094757 209.415695,221.961395 
	C207.269196,246.733566 208.805252,271.526825 209.392456,296.309967 
	C209.486710,300.287750 209.956848,304.274292 210.534149,308.215637 
	C210.823151,310.188660 210.721573,312.721680 214.253448,313.368500 
	C216.245392,305.716309 213.413254,298.244751 213.582840,289.844116 
M593.271851,287.808502 
	C593.949280,284.986481 594.284546,282.264832 591.971130,279.883331 
	C590.493347,278.362061 588.678040,277.984772 587.985596,279.981720 
	C586.091003,285.445618 585.389771,291.204407 585.486633,296.984314 
	C585.510986,298.440613 586.856689,299.710785 588.628174,299.593903 
	C590.261108,299.486206 590.645996,298.107056 590.986877,296.784302 
	C591.689636,294.056885 592.406006,291.332947 593.271851,287.808502 
M216.585495,348.007385 
	C215.699982,346.443146 215.726410,343.970306 212.959625,344.120728 
	C211.552521,350.645477 213.798172,355.538483 219.429291,358.130768 
	C220.220123,354.451416 217.565323,351.824524 216.585495,348.007385 
M530.381165,362.501587 
	C529.351257,364.364197 528.875061,366.081512 531.450195,367.129333 
	C534.293579,362.788483 534.217041,362.316528 530.381165,362.501587 
z"/>
<path fill="#000000" opacity="1.000000" stroke="none" 
	d="
M532.885132,219.356201 
	C539.726624,237.507828 540.779236,256.027069 539.767334,274.749847 
	C539.103027,287.042114 537.881165,299.280365 534.195679,311.138367 
	C527.036926,334.171143 512.586609,345.082062 488.488403,345.269165 
	C443.543915,345.618164 398.595856,346.279968 353.654877,345.978790 
	C330.515503,345.823730 307.367676,345.536926 284.224457,345.247314 
	C279.579071,345.189240 274.892639,344.828613 270.309357,344.087067 
	C258.533417,342.181793 249.665665,336.098267 244.438324,325.139038 
	C239.356934,314.485840 236.992050,303.100159 235.778854,291.487823 
	C233.908020,273.580750 233.504608,255.641678 235.638306,237.704330 
	C236.367889,231.570862 237.516357,225.531342 239.702240,219.757904 
	C244.269455,207.694763 253.483978,202.021683 265.973358,200.643967 
	C284.027435,198.652390 302.133453,197.815994 320.279907,197.821228 
	C359.755859,197.832642 399.237366,197.565964 438.705688,198.149689 
	C461.981079,198.493958 485.290039,199.079880 508.492401,201.554611 
	C520.012024,202.783295 527.953918,208.595398 532.885132,219.356201 
M280.611755,261.271545 
	C279.147369,275.889618 286.439484,287.239136 299.767822,291.086029 
	C312.036591,294.627136 324.600647,289.186066 330.587036,277.739288 
	C335.635864,268.085236 336.163666,256.485291 331.189026,252.544144 
	C329.976807,257.718201 328.859436,262.700317 326.142670,267.096130 
	C320.404236,276.381104 314.591614,276.448456 309.057953,267.181885 
	C308.206635,265.756287 307.486664,264.252655 306.649994,262.817749 
	C305.529144,260.895386 304.036896,259.050812 301.829834,258.775208 
	C297.774017,258.268860 294.278107,256.338593 290.530853,255.051086 
	C284.825195,253.090729 282.438721,254.456863 280.611755,261.271545 
M448.939301,286.628540 
	C466.269196,296.549286 484.630493,289.607513 489.988739,271.046204 
	C490.751007,268.405731 492.162903,264.686218 489.239288,263.377869 
	C486.263062,262.045990 485.946045,266.211609 484.636810,268.066681 
	C482.527100,271.056030 480.879700,274.489166 476.398743,274.349579 
	C472.078583,274.214966 469.773834,271.318268 468.278748,267.908112 
	C465.109619,260.679413 459.629150,257.680176 451.982483,258.174286 
	C449.957550,258.305145 448.362762,257.900391 447.628998,255.758728 
	C446.757294,253.214249 445.044830,251.899384 442.284119,252.464310 
	C439.452179,253.043823 437.625244,254.472137 437.044281,257.635773 
	C434.851562,269.576019 439.412323,278.733765 448.939301,286.628540 
M484.002319,231.683929 
	C489.136566,229.636032 491.330383,226.551956 490.154602,223.035095 
	C488.807251,219.004974 483.501923,215.822922 479.328552,216.816910 
	C475.566528,217.712921 473.111389,219.975327 473.271545,224.196472 
	C473.427856,228.315598 476.560913,231.092804 481.728455,231.745575 
	C482.219269,231.807587 482.725037,231.751724 484.002319,231.683929 
M285.530792,226.128632 
	C286.129913,226.915421 286.654266,227.775375 287.340698,228.476715 
	C290.847565,232.059738 294.981201,231.929596 299.232666,230.216507 
	C301.616974,229.255783 303.146667,227.220978 302.486511,224.709885 
	C301.399231,220.574066 298.367798,218.029404 294.272766,216.870407 
	C288.727020,215.300842 284.446381,219.430222 285.530792,226.128632 
M461.994507,249.364182 
	C464.475159,247.258163 463.315369,244.799484 462.560394,242.466522 
	C461.821869,240.184448 460.556030,238.138000 458.030975,237.585083 
	C456.278259,237.201263 455.363800,238.673813 454.592865,239.970718 
	C453.235596,242.253906 452.661957,244.721725 454.330536,247.013916 
	C456.041687,249.364594 458.137238,251.309097 461.994507,249.364182 
M299.208679,246.250961 
	C302.740784,248.011642 306.239716,246.722443 308.301941,242.801422 
	C309.155029,241.179459 309.861969,239.412338 308.610535,237.678223 
	C307.511444,236.155212 305.668213,236.121231 304.102020,236.179657 
	C299.635071,236.346344 296.822998,241.526337 299.208679,246.250961 
z"/>
<path fill="#000000" opacity="1.000000" stroke="none" 
	d="
M463.702271,109.895683 
	C463.350403,109.490540 462.963287,109.138618 462.781067,109.223991 
	C452.240631,114.162636 442.740448,108.242363 432.949951,106.198776 
	C417.239777,102.919556 401.314545,102.109703 385.386383,101.195091 
	C377.419128,100.737617 369.433258,100.607933 361.456940,100.300629 
	C360.519592,100.264519 359.427338,100.459808 358.881775,99.322678 
	C368.921051,92.782028 452.666901,100.503532 470.082062,109.701469 
	C468.569397,111.519890 468.731171,114.670311 465.642639,115.032158 
	C464.212311,115.199730 462.515198,114.653595 461.805695,113.150055 
	C460.952271,111.341576 463.310608,111.300842 463.702271,109.895683 
z"/>
<path fill="#000000" opacity="1.000000" stroke="none" 
	d="
M390.000000,163.114105 
	C367.090363,163.110428 344.680725,163.110428 321.305511,163.110428 
	C324.692841,160.157990 327.791321,159.657547 331.122253,159.661209 
	C348.434601,159.680237 365.748901,159.810364 383.058868,159.601730 
	C399.696777,159.401199 416.329834,159.084198 432.964386,159.697601 
	C435.683319,159.797852 438.485779,159.607208 440.433685,163.117798 
	C423.789124,163.117798 407.144562,163.117798 390.000000,163.114105 
z"/>
<path fill="#000000" opacity="1.000000" stroke="none" 
	d="
M244.570267,339.076752 
	C240.623734,340.331299 239.440536,337.236786 237.800949,335.168579 
	C235.464813,332.221741 234.441483,328.346527 230.918472,326.214478 
	C232.523758,323.733582 234.089417,323.627686 235.592560,325.307678 
	C238.461823,328.514465 241.139893,331.873474 244.499969,334.635132 
	C245.756012,335.667419 245.441162,337.356445 244.570267,339.076752 
z"/>
<path fill="#000000" opacity="1.000000" stroke="none" 
	d="
M541.452148,325.652863 
	C542.623596,325.578094 543.599060,325.508240 543.890381,326.452057 
	C544.887817,329.682831 540.255920,336.271301 535.968079,337.005157 
	C536.452393,332.505249 538.465332,328.993011 541.452148,325.652863 
z"/>
<path fill="#000000" opacity="1.000000" stroke="none" 
	d="
M228.642944,205.648773 
	C230.320038,200.173019 232.797638,198.623779 237.761856,199.849731 
	C236.809937,202.609955 234.917099,204.685623 233.041245,206.704346 
	C231.409363,208.460510 229.834869,208.173050 228.642944,205.648773 
z"/>
<path fill="#000000" opacity="1.000000" stroke="none" 
	d="
M527.514893,341.375366 
	C525.076660,341.943298 523.917725,341.098694 523.966187,338.989105 
	C524.007568,337.191711 524.961914,335.861450 526.748596,335.365753 
	C527.957214,335.030518 529.157227,335.408508 529.743286,336.501404 
	C530.927002,338.708679 529.931763,340.233887 527.514893,341.375366 
z"/>
<path fill="#000000" opacity="1.000000" stroke="none" 
	d="
M541.125488,344.164703 
	C539.219666,345.469666 537.555908,345.724670 536.950073,343.181152 
	C536.588684,341.663727 537.581909,340.487427 538.974792,340.386169 
	C541.532471,340.200195 540.632568,342.602844 541.125488,344.164703 
z"/>
</svg>