<svg version="1.1" id="Layer_1" xmlns="http://www.w3.org/2000/svg" xmlns:xlink="http://www.w3.org/1999/xlink" x="0px" y="0px"
	 width="100%" viewBox="0 0 768 512" enable-background="new 0 0 768 512" xml:space="preserve">
<path fill="#000000" opacity="1.000000" stroke="none" 
	d="
M201.937408,328.103851 
	C195.862625,324.073456 191.051834,319.287445 187.517883,313.302521 
	C186.420410,311.443878 184.934128,310.441895 182.881165,309.872894 
	C180.127335,309.109589 177.419052,307.892639 175.623154,305.652649 
	C166.491974,294.263611 157.979660,282.373077 157.811096,267.022339 
	C157.538467,242.198273 157.726028,217.367477 157.917450,192.541031 
	C157.972824,185.360443 158.940720,178.252594 162.841873,171.900803 
	C164.243774,169.618256 165.435013,167.277100 168.396973,166.550247 
	C171.441742,165.803085 171.210785,163.097839 171.206467,160.845444 
	C171.186661,150.517242 171.411484,140.167557 170.824112,129.866898 
	C170.133072,117.748337 175.536072,109.102295 184.823853,102.261299 
	C195.658096,94.281235 207.905731,88.910477 220.271622,83.999916 
	C255.832870,69.878319 292.633301,60.484783 330.611603,55.494846 
	C353.996979,52.422260 377.491455,51.556877 400.895538,52.978497 
	C461.625275,56.667362 520.078613,69.698936 574.187805,98.746696 
	C577.982666,100.783897 581.667480,103.183952 584.980591,105.926216 
	C591.007141,110.914482 594.568054,117.163864 594.335205,125.416107 
	C594.039185,135.905991 594.329956,146.411209 594.182068,156.907211 
	C594.134216,160.300385 594.653687,162.736420 598.023071,164.698486 
	C601.992554,167.009964 603.773010,171.426727 605.798706,175.479309 
	C612.393005,188.671921 612.368225,202.808472 611.890320,217.007309 
	C611.430969,230.651886 610.608643,244.288681 610.402588,257.935791 
	C610.255920,267.646149 608.559570,276.704041 603.243591,285.023560 
	C600.201416,289.784668 597.681580,294.884979 595.020813,299.882751 
	C592.768921,304.112671 589.340088,306.978210 584.759094,307.982269 
	C581.516968,308.692902 579.674744,310.576080 577.725647,313.003876 
	C564.750305,329.166077 549.974792,343.634766 533.272705,355.791168 
	C518.551941,366.505524 501.031036,371.498566 483.638977,376.214020 
	C464.626190,381.368835 445.113251,383.556824 425.556000,385.369263 
	C424.941132,385.426239 424.336761,385.596802 423.684814,386.500153 
	C433.927307,387.890686 444.155365,389.400543 454.415985,390.641235 
	C466.906891,392.151581 478.999817,394.905975 490.148712,400.991821 
	C490.878754,401.390350 491.606476,401.853668 492.394745,402.076233 
	C515.835022,408.693756 527.183899,427.192627 536.761841,447.354523 
	C538.438965,450.884888 539.153809,454.649902 542.364014,457.612457 
	C545.041199,460.083038 544.678040,463.784210 542.581665,467.257477 
	C537.349548,475.926147 529.075439,478.235443 519.799072,479.410858 
	C510.176514,480.630157 500.507874,479.977631 490.884674,480.985352 
	C435.394562,486.796112 379.729523,484.033661 324.134613,483.846802 
	C296.836182,483.755066 269.541229,482.018433 242.220108,482.337463 
	C236.985413,482.398560 232.413193,480.714447 228.190369,477.850586 
	C221.516068,473.324158 217.281860,466.717438 213.399033,459.911163 
	C211.221664,456.094391 212.421906,452.201050 214.065338,448.407501 
	C219.140778,436.691589 227.971344,428.194244 237.836792,420.610535 
	C247.510483,413.174225 258.150360,407.865387 269.564972,403.193604 
	C291.131042,394.367035 313.544403,390.525787 336.313629,387.553009 
	C337.092285,387.451355 337.827393,387.015961 339.063324,386.558136 
	C336.688324,384.065582 334.000732,384.522308 331.490265,384.291443 
	C299.941528,381.390076 269.287079,375.087677 240.900085,360.271423 
	C230.145767,354.658295 220.829285,347.200012 212.830688,338.088440 
	C209.640427,334.454254 206.475922,330.794586 201.937408,328.103851 
M555.127869,320.603760 
	C561.452332,310.597229 566.292786,300.108368 565.578247,287.865204 
	C565.374939,284.381805 564.731445,280.905151 564.765198,277.430023 
	C564.925415,260.917328 563.781250,244.502777 561.709900,228.127090 
	C559.160950,207.975189 553.249573,189.160782 540.957520,172.634048 
	C532.571411,161.358795 521.554077,154.532776 507.768402,152.326279 
	C498.393829,150.825806 488.901764,150.254700 479.409790,150.239044 
	C435.266418,150.166321 391.121552,149.971008 346.979889,150.247162 
	C320.496765,150.412842 293.982056,149.185425 267.532776,151.300827 
	C257.926544,152.069138 248.186462,152.769882 239.244064,156.832993 
	C222.388962,164.491333 214.635590,179.260284 210.340134,196.024292 
	C204.926727,217.151291 201.564331,238.690109 199.692581,260.441803 
	C198.372864,275.778259 195.371124,291.197174 204.519272,305.521393 
	C208.225525,311.324677 208.898849,318.661011 213.722977,324.101837 
	C225.396164,337.267395 239.144150,347.477722 255.170792,354.737274 
	C276.850830,364.557648 300.076141,367.975067 323.249115,371.884491 
	C330.262299,373.067657 335.307495,371.812103 340.108398,366.544617 
	C342.736847,363.660706 345.812439,360.680145 350.675293,360.729095 
	C369.171112,360.915314 387.672607,360.948456 406.166931,360.683929 
	C414.778046,360.560760 422.348480,362.421967 428.291138,368.984497 
	C432.055267,373.141205 436.510345,373.508575 441.485382,371.622040 
	C450.107635,368.352509 459.042511,366.686157 468.237732,365.902618 
	C503.190582,362.924286 532.760681,349.381775 555.127869,320.603760 
M582.917847,150.500000 
	C582.909241,143.168884 582.398132,135.794510 583.024475,128.518051 
	C583.741577,120.186607 580.108459,114.991737 573.328613,111.003380 
	C558.050659,102.015831 541.960632,94.847069 525.215149,89.125969 
	C511.664154,84.496246 498.192352,79.534332 483.771820,77.863129 
	C504.740051,86.572479 523.756042,97.494614 534.737610,119.811874 
	C533.101074,119.503036 532.659546,119.554962 532.482788,119.363037 
	C531.701904,118.515274 530.999268,117.595581 530.264526,116.705086 
	C523.109253,108.033516 516.869629,98.652977 506.409363,93.065247 
	C492.628113,85.703529 479.621277,76.576958 464.251556,72.850395 
	C445.000671,68.182793 425.327667,65.405403 405.558350,64.497810 
	C361.758240,62.486988 318.469696,66.030502 275.941833,77.568283 
	C259.776398,81.953957 248.081314,92.355545 239.464279,105.302872 
	C224.677979,127.519653 213.053024,151.556656 206.215286,177.616302 
	C205.791428,179.231705 205.701324,181.328049 203.332047,181.747055 
	C201.845520,180.181137 202.623749,178.522018 203.081375,177.027832 
	C205.177155,170.185013 207.370514,163.371872 209.555923,156.556763 
	C215.028763,139.489746 225.365082,124.750648 232.564529,108.510742 
	C234.339005,104.508026 236.698944,101.068802 240.101517,98.177666 
	C245.395813,93.679131 250.381424,88.817299 255.497864,84.109436 
	C247.537796,86.131493 239.953674,88.617455 232.528702,91.511658 
	C218.252213,97.076538 204.004883,102.761108 191.226334,111.432594 
	C185.274216,115.471672 181.897797,120.466965 182.106033,128.411255 
	C182.656006,149.392883 182.200363,170.398636 182.384705,191.392670 
	C182.637589,220.191315 182.594193,248.993561 184.249527,277.770966 
	C185.044418,291.590118 192.556946,301.696747 201.295181,312.602966 
	C200.576096,305.800812 199.560089,300.298340 196.464523,295.368561 
	C194.898483,292.874542 194.786346,290.035034 194.727753,287.169067 
	C194.447861,273.478577 195.935883,259.900635 197.752838,246.389694 
	C200.389908,226.780182 202.995773,207.126923 209.084961,188.181946 
	C216.690765,164.518356 232.514969,151.023422 257.605835,148.565125 
	C276.191833,146.744156 294.802887,145.739456 313.458344,145.941177 
	C374.080292,146.596680 434.735016,143.783279 495.327118,147.692078 
	C512.391296,148.792892 528.525696,152.204285 540.053894,166.266312 
	C550.089966,178.508224 557.728516,192.167084 561.206238,207.738220 
	C566.701172,232.341248 568.837158,257.294952 568.183960,282.501709 
	C568.007202,289.323303 568.423706,296.159973 567.250366,302.939636 
	C567.068237,303.991913 566.701599,305.305023 568.565552,306.188141 
	C572.469910,300.771698 577.543091,296.149261 580.707520,290.093353 
	C581.754944,288.088776 582.720764,285.545959 582.426270,283.429810 
	C581.585022,277.386292 582.726379,271.454681 582.726257,265.473816 
	C582.725586,227.482544 582.839722,189.491272 582.917847,150.500000 
M330.493530,472.853210 
	C338.815216,473.126892 347.136169,473.607178 355.458710,473.636841 
	C384.449188,473.740265 413.440338,473.642700 442.430969,473.713379 
	C456.781982,473.748352 471.008575,473.021729 484.958252,469.169037 
	C490.787659,467.559021 492.825317,465.722382 492.943024,459.593933 
	C493.048492,454.102753 492.921661,448.593689 492.595001,443.110504 
	C491.958405,432.424042 489.412781,422.385834 481.857056,414.240417 
	C480.265198,412.524323 478.707520,410.776489 476.524780,408.372070 
	C478.629395,409.064728 479.728302,409.426392 480.827209,409.788055 
	C471.222229,402.571808 460.192993,400.675720 448.759155,401.607819 
	C441.874268,402.169067 435.429016,402.994934 428.996704,399.162079 
	C424.814026,396.669678 417.460480,398.028351 416.790100,400.785675 
	C415.945648,404.259064 413.466461,404.890991 410.919098,405.132080 
	C388.816925,407.224060 366.752289,406.644745 344.650330,404.034790 
	C344.713287,402.377197 347.390442,402.249664 346.366913,400.257965 
	C345.437439,398.449310 343.903473,398.206848 342.168579,398.236267 
	C340.835907,398.258820 339.499664,398.232971 338.171295,398.321960 
	C325.201019,399.191040 312.468781,401.661255 299.694672,403.910156 
	C294.316864,404.856964 289.169373,406.153168 283.735840,409.060211 
	C286.940948,409.378204 289.421936,406.902740 292.068390,409.132172 
	C291.133545,410.967468 289.384430,411.258118 287.969513,411.953156 
	C283.420013,414.187958 279.339691,416.995056 276.364532,421.188232 
	C267.299469,433.964569 266.879364,448.191162 269.878296,462.773041 
	C270.543335,466.006683 272.516663,469.148682 276.759308,469.813202 
	C294.246521,472.552032 311.839539,473.187317 330.493530,472.853210 
M225.475525,457.514648 
	C226.452118,460.034912 228.052841,461.888458 230.199203,463.689728 
	C236.305908,468.814575 243.120850,466.536652 249.734879,466.172852 
	C254.232208,465.925476 255.668152,463.362915 254.449966,458.972595 
	C253.839661,456.773132 253.743011,454.388519 253.698547,452.082184 
	C253.524017,443.027313 256.217987,434.395081 257.743866,425.589539 
	C258.120514,423.415955 259.727051,421.009735 257.102539,419.224640 
	C254.549118,417.487885 252.238739,419.107849 250.154526,420.312225 
	C242.435654,424.772705 236.223969,430.897675 230.532486,437.745575 
	C225.811295,443.425964 224.087189,449.572021 225.475525,457.514648 
M503.249634,453.457733 
	C503.259064,454.456940 503.271332,455.456085 503.277466,456.455322 
	C503.318085,463.058990 503.730347,463.429535 510.107483,462.069733 
	C513.844543,461.272919 517.581604,460.444885 521.265747,459.437469 
	C528.111816,457.565308 532.575012,448.893890 529.407471,442.912628 
	C524.607544,433.848785 518.308228,425.920349 509.752991,420.013306 
	C506.787811,417.965942 505.279510,417.845612 504.006287,422.235687 
	C501.069153,432.362915 502.920288,442.406982 503.249634,453.457733 
M601.731079,219.500183 
	C601.627991,211.681046 601.676636,203.856064 601.375549,196.044556 
	C601.117371,189.344543 599.001770,183.198715 594.434265,176.672928 
	C592.709534,211.967896 593.687378,246.050354 593.118652,281.037506 
	C598.184387,275.227539 600.315918,269.383179 600.641479,262.910889 
	C601.351990,248.784500 602.069092,234.654831 601.731079,219.500183 
M169.657562,274.935242 
	C170.371323,276.250031 169.934067,278.392731 172.570236,278.677368 
	C170.816269,246.645477 172.126526,214.706985 171.589691,182.399246 
	C169.716354,183.688171 169.020630,185.155090 168.934372,186.558105 
	C167.136887,215.795074 167.468307,245.023010 169.657562,274.935242 
M384.499634,374.711487 
	C397.974823,375.035034 411.373474,373.882996 425.754425,373.289581 
	C420.520782,369.756958 348.352112,369.131622 342.150909,372.561096 
	C356.551605,375.130463 370.044647,374.648743 384.499634,374.711487 
z"/>
<path fill="#000000" opacity="1.000000" stroke="none" 
	d="
M227.719666,257.383484 
	C235.483994,252.222595 243.138290,247.461945 248.660019,240.096451 
	C249.935959,238.394455 251.445663,237.457397 253.813660,238.543152 
	C279.610321,250.371216 305.816132,248.973190 332.116455,240.572601 
	C336.409882,239.201218 339.434906,240.043106 342.337036,243.241165 
	C344.404480,245.519424 343.957184,247.132248 341.475525,248.330002 
	C312.525482,262.302795 283.129242,266.031433 253.086975,251.827850 
	C250.906586,250.796997 249.233002,250.545517 247.053848,251.622238 
	C242.283401,253.979294 237.410309,256.133667 232.537231,258.275513 
	C230.611176,259.122070 228.747223,260.378937 226.442261,259.970398 
	C225.591797,258.605591 226.859818,258.240601 227.719666,257.383484 
z"/>
<path fill="#000000" opacity="1.000000" stroke="none" 
	d="
M512.926025,237.803482 
	C514.979126,237.660309 516.285583,238.434189 517.255066,239.615250 
	C522.846924,246.427597 528.970703,252.691345 537.318176,258.416046 
	C532.644470,258.682648 530.244385,256.474884 527.847107,254.974182 
	C520.957214,250.661316 515.000061,248.988480 506.533752,253.169464 
	C489.188873,261.734955 470.421814,262.669861 451.485687,258.358032 
	C442.764740,256.372253 435.223267,251.607315 427.135284,248.139709 
	C423.828247,246.721878 425.372864,244.245300 426.978943,242.467560 
	C428.863037,240.382019 431.409058,239.288513 434.192810,240.357468 
	C459.953674,250.249466 485.363800,248.023438 510.589386,238.316650 
	C511.205078,238.079727 511.876892,237.988556 512.926025,237.803482 
z"/>
<path fill="#000000" opacity="1.000000" stroke="none" 
	d="
M299.585449,214.969452 
	C288.047485,216.591187 276.948792,217.079407 265.929932,214.333618 
	C263.010925,213.606216 260.183014,212.601532 257.822083,210.637039 
	C255.637299,208.819153 255.257462,206.361710 255.876999,203.816391 
	C256.486877,201.310715 258.873383,201.232956 260.771851,201.263016 
	C277.813080,201.532761 294.561310,198.646088 311.412781,196.834579 
	C313.963745,196.560364 317.405945,195.412827 318.703186,199.219040 
	C319.891510,202.705521 318.076721,205.347473 315.642090,207.589340 
	C311.212616,211.668137 305.828705,213.757889 299.585449,214.969452 
z"/>
<path fill="#000000" opacity="1.000000" stroke="none" 
	d="
M426.059814,309.108643 
	C400.316406,324.681885 374.943909,325.026306 349.661865,308.949280 
	C346.568634,306.982269 343.626129,304.894775 339.637146,305.059235 
	C337.101685,305.163757 336.677307,303.485352 337.407379,301.300079 
	C338.796997,297.140839 344.379486,295.565369 348.648926,298.372803 
	C356.179657,303.324738 363.689941,308.630371 372.795319,309.828003 
	C390.613190,312.171539 407.950378,310.890350 423.417908,300.309174 
	C424.971863,299.246124 426.573151,298.329987 428.436340,298.321960 
	C430.709137,298.312134 432.807739,299.097076 433.714600,301.376984 
	C434.699158,303.852020 432.719147,304.977325 431.066895,306.081573 
	C429.548126,307.096527 427.937256,307.973663 426.059814,309.108643 
z"/>
<path fill="#000000" opacity="1.000000" stroke="none" 
	d="
M471.274994,199.640488 
	C482.265686,201.071686 492.813782,202.437668 503.343994,203.930069 
	C505.514069,204.237610 507.701294,205.028687 508.026672,207.686722 
	C508.329987,210.163757 506.331604,211.117889 504.606140,212.101013 
	C500.021057,214.713516 494.901978,215.785126 489.784698,216.137161 
	C480.828918,216.753250 471.817566,217.076416 462.921997,215.278625 
	C460.652466,214.819946 458.368683,214.218658 456.236328,213.333801 
	C449.649841,210.600662 446.684235,206.471054 447.821869,201.965897 
	C448.732361,198.360229 453.323334,196.958191 460.468842,198.073929 
	C463.917633,198.612457 467.373444,199.106094 471.274994,199.640488 
z"/>
<path fill="#000000" opacity="1.000000" stroke="none" 
	d="
M335.717957,321.757690 
	C333.458069,319.954773 333.891907,318.386841 335.524078,316.960480 
	C337.056641,315.621185 338.791321,315.336914 340.540314,316.561279 
	C341.701111,317.373901 342.540771,318.552490 341.963196,319.968292 
	C340.813263,322.787292 338.438446,322.496216 335.717957,321.757690 
z"/>
<path fill="#000000" opacity="1.000000" stroke="none" 
	d="
M387.956726,102.715538 
	C396.105377,102.896393 403.706482,103.695435 411.274536,104.813194 
	C412.578583,105.005791 413.872803,105.416344 415.107483,105.892448 
	C417.095612,106.659134 418.575287,108.000946 418.627838,110.283348 
	C418.684540,112.744133 416.858948,113.654465 414.894257,114.346199 
	C406.446960,117.320366 397.601105,117.804329 388.809906,117.936691 
	C378.502441,118.091896 368.183411,117.557480 357.871063,117.264389 
	C354.094208,117.157043 350.718689,115.780182 347.753998,113.477013 
	C346.160858,112.239357 344.581696,110.809853 345.052521,108.509445 
	C345.497040,106.337692 347.132538,105.150497 349.192810,104.621964 
	C353.879913,103.419548 358.673035,102.846481 363.492920,102.771896 
	C371.481750,102.648247 379.473663,102.720741 387.956726,102.715538 
M359.822266,107.362450 
	C356.612946,107.446877 353.441040,107.719803 349.914551,108.910576 
	C353.222900,111.850548 356.485535,113.546677 360.236176,113.595169 
	C373.212891,113.762947 386.192352,113.764481 399.170563,113.735092 
	C402.402679,113.727776 405.363220,112.810600 408.073547,108.804268 
	C391.779297,108.305428 376.266357,107.830498 359.822266,107.362450 
z"/>
<path fill="#000000" opacity="1.000000" stroke="none" 
	d="
M550.838684,157.084412 
	C547.064941,145.888275 540.719299,136.231537 536.183289,124.937584 
	C540.479126,125.271538 542.180115,128.430756 542.660461,130.318710 
	C543.722656,134.493744 546.140930,137.809998 547.878967,141.529419 
	C555.307617,157.426605 560.472534,174.006516 563.002808,191.385818 
	C563.096497,192.029739 563.050781,192.709335 562.960510,193.357040 
	C562.924683,193.614197 562.590088,193.829636 561.541443,195.067871 
	C558.031921,181.967377 555.853699,169.287766 550.838684,157.084412 
z"/>
<path fill="#000000" opacity="1.000000" stroke="none" 
	d="
M446.247375,439.266602 
	C447.091309,442.543945 449.248932,445.421509 447.358765,448.829620 
	C443.412201,445.109100 442.898743,440.618866 446.247375,439.266602 
z"/>
<path fill="#000000" opacity="1.000000" stroke="none" 
	d="
M310.795502,446.657959 
	C311.036407,443.348541 312.813812,441.770935 315.525726,441.189697 
	C317.772186,442.906372 311.552612,445.276306 316.707520,446.288940 
	C314.598907,447.970978 312.843506,448.418335 310.795502,446.657959 
z"/>
</svg>