<svg version="1.1" id="Layer_1" xmlns="http://www.w3.org/2000/svg" xmlns:xlink="http://www.w3.org/1999/xlink" x="0px" y="0px"
	 width="100%" viewBox="0 0 768 512" enable-background="new 0 0 768 512" xml:space="preserve">
<path fill="#000000" opacity="1.000000" stroke="none" 
	d="
M560.134033,269.970184 
	C559.676086,271.275421 559.543396,272.384399 558.950256,273.124329 
	C547.486206,287.425507 540.583008,305.501282 524.661987,316.033752 
	C518.561707,320.069305 515.284058,324.614990 513.610168,331.805634 
	C509.106293,351.152802 495.022827,361.325043 477.104156,367.303436 
	C465.374725,371.216827 453.245361,373.267151 441.133026,375.435760 
	C433.494629,376.803314 433.352478,376.981567 433.334290,384.718475 
	C433.322083,389.906281 433.906311,395.014099 435.421753,399.981995 
	C436.280579,402.797455 438.166290,404.442169 441.217194,404.658356 
	C450.510437,405.316986 459.793335,406.395386 469.094849,406.581573 
	C477.147736,406.742737 484.190186,409.798889 490.634521,413.736969 
	C494.624298,416.175079 493.714661,421.868408 493.508392,426.160065 
	C493.340637,429.651520 489.735504,429.163544 487.132172,429.392578 
	C469.082428,430.980347 450.938538,431.127930 432.913055,433.197693 
	C407.033295,436.169342 381.031860,435.605255 355.065094,435.018707 
	C339.766815,434.673157 324.576233,432.577209 309.362335,430.949097 
	C301.265869,430.082642 293.104645,429.808167 284.969086,429.326782 
	C281.990784,429.150574 278.969910,429.261078 276.608124,427.033051 
	C279.409485,415.178955 286.090698,409.403900 299.333954,407.723236 
	C308.398071,406.572937 317.495514,405.655365 326.595978,404.831787 
	C331.837616,404.357452 334.035889,401.497772 334.799957,396.520721 
	C335.564301,391.541748 335.699463,386.586151 335.657593,381.588226 
	C335.630737,378.376678 334.060699,376.767365 330.893646,376.308197 
	C316.356415,374.200531 302.288757,370.294617 288.390991,365.557861 
	C268.909302,358.917969 256.594208,346.095001 252.779068,325.652008 
	C252.374405,323.483643 251.229248,322.630798 249.513443,321.742371 
	C240.242523,316.942200 231.086960,311.446594 226.095932,302.114899 
	C221.191849,292.945801 214.409348,285.408783 208.373260,277.193939 
	C201.082153,267.271057 199.621689,255.454651 198.834549,243.564392 
	C198.449783,237.752228 198.154999,231.934006 197.758026,226.122742 
	C197.347748,220.116455 199.639145,215.308990 204.460922,211.901505 
	C206.863144,210.203842 207.944275,208.079620 208.535782,205.378265 
	C208.886383,203.777069 209.181656,201.681000 210.289612,200.813034 
	C214.773956,197.299957 214.856888,192.982391 213.909958,187.941193 
	C212.985397,183.018829 214.726517,178.774124 218.734680,175.549042 
	C221.455444,173.359833 224.207504,171.183746 226.720978,168.768127 
	C231.608200,164.071152 235.963699,159.399338 237.040054,151.889450 
	C239.288574,136.201248 248.606003,124.421364 260.760071,114.969574 
	C280.412384,99.686600 303.581268,92.423264 327.365082,86.716599 
	C352.026367,80.799393 377.135162,79.518219 402.263580,80.926422 
	C435.906799,82.811806 467.947083,91.230682 497.263550,108.399101 
	C517.146851,120.043175 530.584351,137.088791 536.321533,159.360291 
	C537.872070,165.379181 540.204407,169.332886 545.056885,172.629166 
	C550.388489,176.250900 553.213074,181.019577 551.527161,188.000259 
	C550.608643,191.803757 552.618469,195.218704 554.179871,198.966599 
	C556.812805,205.286835 561.623352,209.732590 564.742004,215.417358 
	C568.216187,221.750244 568.786316,228.725296 568.098694,235.817688 
	C566.973511,247.423904 565.796997,259.022949 560.134033,269.970184 
M262.296631,316.319244 
	C262.864624,319.928070 263.105408,323.625977 264.059418,327.129669 
	C267.485718,339.713074 273.669495,349.212158 288.475006,350.265533 
	C294.518036,350.695465 301.129120,351.400452 304.924561,357.796906 
	C305.641815,359.005768 307.677734,359.567169 309.213501,360.133606 
	C320.085388,364.143127 331.516693,365.711456 342.922180,366.500916 
	C373.506256,368.617798 404.102661,369.154205 434.590546,364.696289 
	C449.743896,362.480530 464.883148,360.309662 479.310394,354.830658 
	C492.940002,349.654541 502.350098,340.428711 504.518158,325.762878 
	C506.850159,309.988525 508.016296,294.042114 509.703339,278.172089 
	C511.214874,263.952972 512.535706,249.709641 514.315430,235.524017 
	C516.630371,217.072708 520.264771,198.850204 524.109924,180.651886 
	C526.203064,170.745850 526.575256,160.968307 522.031799,150.930008 
	C512.670105,130.246460 496.652100,117.720482 476.269714,109.517349 
	C431.307312,91.421677 384.964050,88.093903 337.541901,96.373199 
	C316.764404,100.000679 296.839355,106.256844 278.071533,116.106209 
	C254.704773,128.369080 244.179306,148.103699 245.597885,173.803528 
	C246.456390,189.356369 249.308044,204.821518 251.666962,220.264542 
	C256.490356,251.841843 259.346588,283.628357 262.296631,316.319244 
M369.336212,418.649414 
	C348.582642,418.995392 327.831543,417.446747 306.718292,417.269409 
	C308.423889,423.467590 311.618073,425.652802 316.702301,426.306610 
	C337.505402,428.981720 358.311066,430.906708 379.341919,430.891266 
	C404.846008,430.872498 430.193817,429.355286 455.452759,425.927399 
	C459.994720,425.311035 461.751038,422.369202 463.078094,418.553436 
	C431.936584,418.553436 401.077850,418.553436 369.336212,418.649414 
M230.286636,278.322754 
	C230.816330,283.694885 234.485123,285.604095 241.837631,284.161591 
	C241.905090,283.089874 242.133118,281.939941 242.023285,280.823273 
	C241.111282,271.550568 240.071213,262.290131 239.207626,253.013153 
	C238.740158,247.991180 237.834732,243.211182 234.870499,238.929901 
	C232.934723,236.134018 231.526123,233.162079 235.121384,230.222580 
	C235.899246,229.586594 235.994034,227.711014 235.880249,226.453735 
	C235.100250,217.835983 234.254868,209.222137 233.243622,200.629028 
	C233.042984,198.923981 232.831345,197.083023 231.136627,195.755585 
	C224.943741,190.904877 224.992798,189.674194 231.248398,184.890533 
	C232.435104,183.983093 233.712219,183.190765 234.970154,182.380310 
	C237.113815,180.999237 237.169601,179.384415 235.722366,177.339569 
	C232.098175,177.981049 230.098343,180.494736 228.288910,183.020004 
	C225.752075,186.560394 224.167450,190.332809 224.247223,195.012634 
	C224.411819,204.670135 223.830032,214.372604 225.739151,223.901184 
	C227.617630,233.276993 228.331100,242.544724 227.738480,252.195572 
	C227.226074,260.540070 228.608307,269.109375 230.286636,278.322754 
M219.766251,270.840057 
	C222.519791,267.548523 223.220703,263.728638 222.651505,259.587097 
	C222.085617,255.469559 221.270004,251.368240 221.014038,247.231979 
	C220.813278,243.987900 220.003296,241.753311 216.386169,241.408417 
	C214.938797,241.270386 213.828400,240.590012 213.879868,238.885925 
	C213.923706,237.434540 214.888718,236.843628 216.153351,236.717224 
	C219.641617,236.368561 219.956100,234.032471 219.573196,231.301117 
	C218.752396,225.445923 217.884583,219.597336 217.035538,213.742798 
	C208.033646,215.334732 202.901505,221.871841 204.359634,228.655350 
	C204.881760,231.084381 204.873276,233.624680 205.349503,236.066895 
	C206.714859,243.068787 206.729019,250.261185 208.697220,257.203339 
	C209.583069,260.327850 213.179047,261.717163 212.972214,265.404663 
	C212.736557,269.606110 215.376663,271.208771 219.766251,270.840057 
M536.470703,195.789474 
	C535.134094,194.139679 533.966064,194.934021 533.489502,196.346725 
	C531.384338,202.587540 532.220032,208.955826 532.738708,215.344193 
	C534.951721,209.165344 536.392029,202.923355 536.470703,195.789474 
M551.981934,254.367538 
	C545.825745,256.317810 544.005859,258.045868 544.150330,261.804047 
	C549.558777,260.754364 552.432312,258.267578 551.981934,254.367538 
M558.353394,231.487762 
	C558.353394,234.251007 558.353394,237.014267 558.353394,239.777512 
	C559.685547,234.107056 560.569641,228.440018 559.045654,222.748276 
	C558.524353,223.184006 558.292725,223.632950 558.290527,224.082993 
	C558.280090,226.241943 558.331787,228.401199 558.353394,231.487762 
z"/>
<path fill="#000000" opacity="1.000000" stroke="none" 
	d="
M442.098938,196.713791 
	C449.466614,195.093582 456.355255,195.093536 463.189240,197.355331 
	C466.500305,198.451172 469.868774,199.374329 473.214935,200.363235 
	C478.715607,201.988892 482.221069,205.809814 484.698456,210.768860 
	C489.134064,219.647507 490.019836,229.330093 490.039856,238.931412 
	C490.055176,246.276001 484.135101,250.897873 479.450012,255.812332 
	C469.108124,266.660492 455.930725,266.012024 442.656403,264.678192 
	C439.562714,264.367340 436.523254,263.517426 433.399384,263.212646 
	C443.514069,269.549896 454.261292,271.654083 466.332733,269.888977 
	C478.800720,268.065918 486.980225,261.096130 493.247711,250.479218 
	C494.560822,253.775192 495.121643,256.529755 497.818085,258.266052 
	C499.800873,259.542816 498.562134,261.188782 497.331543,262.435455 
	C494.401093,265.404297 491.835724,268.538300 489.897705,272.350037 
	C487.695099,276.682129 483.494629,277.154999 480.267426,273.673676 
	C471.679169,279.960754 461.895020,280.133575 451.752106,278.641724 
	C436.519012,276.401093 426.901337,266.309540 418.358887,254.856689 
	C415.023254,250.384628 412.460724,245.335938 409.348938,240.226135 
	C411.741669,238.377213 411.993866,235.484772 412.400513,232.542557 
	C414.868530,214.686676 423.699280,201.978928 442.098938,196.713791 
M424.742767,239.310364 
	C423.622894,235.119339 422.802887,230.851547 423.292480,226.524139 
	C424.092163,219.455765 427.042786,213.528778 432.960846,209.204773 
	C434.387817,208.162170 436.861115,206.754715 434.909119,204.461304 
	C433.165771,202.413025 431.401794,204.267990 429.628326,205.155014 
	C426.880096,206.529633 426.339386,209.576569 424.488098,211.447098 
	C416.999908,219.013107 416.077087,228.438828 416.029816,238.251556 
	C416.010712,242.217911 417.325348,245.936737 420.774384,247.534729 
	C425.044830,249.513290 428.714081,252.330292 432.777863,254.544449 
	C435.218872,255.874420 437.836060,256.571594 442.165222,256.274536 
	C433.854095,252.251434 428.200317,247.362411 424.742767,239.310364 
M481.056183,237.556259 
	C480.692169,233.935013 485.162720,232.482025 484.910004,228.873428 
	C484.521423,223.324112 483.527466,217.956329 480.213684,213.323669 
	C478.561646,211.014114 477.003052,208.494598 473.674011,207.477570 
	C473.145081,210.650375 476.098785,211.101669 476.984161,212.862473 
	C477.945587,214.774597 479.885956,216.516708 478.146515,218.955795 
	C475.231964,218.570755 475.004333,215.816040 473.332520,214.577820 
	C471.661011,213.339813 470.905945,210.856903 467.234833,210.166580 
	C475.612030,219.675140 479.184021,229.283127 473.823822,240.327850 
	C468.793030,250.693832 459.934509,255.737854 448.634155,256.960022 
	C462.724823,258.190216 475.465790,250.698410 481.056183,237.556259 
M441.244598,234.717361 
	C441.258453,237.752731 443.115448,239.182999 445.804382,239.656128 
	C449.170044,240.248322 452.382538,240.024017 454.909149,237.236832 
	C457.041107,234.885025 456.740479,232.883362 454.267944,230.996368 
	C450.439178,228.074402 446.344757,229.009842 441.244598,234.717361 
M455.878204,198.922501 
	C446.390533,198.324585 442.757751,199.208771 440.471527,203.382126 
	C449.393158,202.390182 457.570068,204.144455 465.315155,207.278702 
	C467.215668,202.348740 465.427582,200.532990 461.542145,199.998535 
	C459.910034,199.774048 458.304932,199.353073 455.878204,198.922501 
M435.807007,219.312637 
	C432.769867,221.568466 431.457214,224.366333 433.718262,227.800125 
	C435.577423,230.623627 438.376068,231.620712 441.459106,229.984894 
	C444.244995,228.506760 445.511047,225.753220 444.327454,222.841675 
	C442.981903,219.531876 440.409637,217.531494 435.807007,219.312637 
z"/>
<path fill="#000000" opacity="1.000000" stroke="none" 
	d="
M349.480347,252.324783 
	C337.665863,273.208954 314.434509,282.522064 292.044037,275.918457 
	C286.417053,274.258850 281.161224,269.957336 273.856293,273.913361 
	C275.227875,269.975159 274.588348,267.891235 272.253510,266.018677 
	C269.624359,263.910065 268.162781,261.362335 270.913757,257.881531 
	C271.971710,256.542938 271.713287,254.163971 272.337402,250.681274 
	C279.813232,259.286865 285.708588,268.262604 297.268829,270.296600 
	C308.017761,272.187866 318.011566,272.025177 327.441345,265.678223 
	C324.780670,266.075623 322.665100,266.538544 320.010895,264.329559 
	C318.066010,262.710907 313.948059,261.273346 310.523468,265.190460 
	C308.232361,267.811035 304.080719,265.509827 301.375336,263.851959 
	C299.264069,262.558136 297.298401,261.115143 294.910767,260.336273 
	C283.186005,256.511505 279.894012,246.590805 278.862640,236.120621 
	C276.951935,216.723770 288.425903,201.676300 307.322388,197.315796 
	C324.412201,193.372192 341.995636,202.801285 348.880432,219.843353 
	C353.145477,230.400650 356.018005,241.118378 349.480347,252.324783 
M339.988800,249.484085 
	C346.019867,243.579361 348.376404,226.309891 344.127747,217.286819 
	C338.714050,205.789581 329.043488,200.309372 316.789764,199.361313 
	C300.990143,198.138885 281.187195,211.001373 281.568329,233.292877 
	C281.664642,238.928802 281.790833,245.879532 286.910034,248.619766 
	C291.508179,251.081116 295.729279,254.542267 300.546570,256.230225 
	C314.453979,261.103210 327.689026,259.476776 339.988800,249.484085 
z"/>
<path fill="#000000" opacity="1.000000" stroke="none" 
	d="
M360.745392,302.598816 
	C377.806122,301.129883 394.454651,302.025238 411.073120,301.501251 
	C417.855530,301.287384 421.125427,307.372955 417.641876,313.236572 
	C414.532288,318.470703 409.950470,321.323303 403.684692,321.307648 
	C390.228058,321.274048 376.774109,320.676331 363.321503,322.038300 
	C356.899017,322.688507 352.208771,318.986237 348.873108,313.845001 
	C345.010071,307.890991 347.733978,302.942017 354.791504,302.669281 
	C356.618958,302.598663 358.450104,302.624725 360.745392,302.598816 
z"/>
<path fill="#000000" opacity="1.000000" stroke="none" 
	d="
M462.468506,182.345535 
	C454.640167,183.659042 447.410889,185.382782 440.620026,188.729889 
	C436.231354,190.892990 427.389862,187.362717 425.427521,182.921143 
	C423.280548,178.061691 424.928497,173.836044 430.073761,172.288391 
	C452.061066,165.674805 473.293854,166.144318 493.060822,179.448135 
	C495.232727,180.909912 497.621857,182.048874 499.885284,183.323486 
	C499.266418,187.418930 495.607544,188.848724 493.420349,191.376755 
	C492.009155,193.007874 490.044586,191.483582 489.781830,189.704224 
	C489.156372,185.468750 485.839020,184.666061 482.719208,183.810379 
	C476.241882,182.033859 469.569550,182.172653 462.468506,182.345535 
z"/>
<path fill="#000000" opacity="1.000000" stroke="none" 
	d="
M291.275024,174.951874 
	C303.237701,171.962662 314.845917,170.488876 326.614594,173.756226 
	C332.114655,175.283188 336.723297,177.909195 339.286774,183.326660 
	C340.402863,185.685364 341.278992,188.179886 339.461029,190.363022 
	C337.687134,192.493271 335.097839,193.365051 332.255859,192.850723 
	C326.720612,191.849014 321.276093,190.319382 315.878448,188.870117 
	C305.559235,186.099396 295.430054,185.123169 285.125000,188.289642 
	C282.361389,189.138809 279.689667,190.151611 277.289734,187.834534 
	C274.124054,189.651260 274.479218,192.835449 273.529907,195.372986 
	C272.985443,196.828445 272.497528,198.527100 270.581604,197.974457 
	C268.475464,197.366928 268.698151,195.625305 269.279297,193.871933 
	C272.773285,183.329742 280.864655,178.095367 291.275024,174.951874 
z"/>
<path fill="#000000" opacity="1.000000" stroke="none" 
	d="
M262.291412,171.232391 
	C260.622498,171.090988 259.523254,170.639221 259.606293,169.153412 
	C259.699493,167.485367 261.144318,167.143005 262.415192,166.761963 
	C270.081757,164.463196 277.954895,163.131561 285.826965,161.796722 
	C304.416504,158.644516 322.923492,159.958084 341.487457,162.361252 
	C352.751984,163.819473 364.118347,162.644257 375.427124,162.053940 
	C390.736115,161.254807 406.088226,162.360306 421.383148,160.860336 
	C434.458344,159.578049 447.530548,157.938370 460.641785,157.431580 
	C478.167664,156.754150 495.575104,158.227051 512.312744,164.139893 
	C513.881470,164.694077 516.144653,164.777771 515.944885,167.779968 
	C510.761444,167.788818 505.945312,165.872589 500.980011,165.013748 
	C478.133789,161.062134 455.264496,161.180878 432.329468,163.940872 
	C429.856384,164.238510 427.343384,164.329941 424.850128,164.314789 
	C399.197754,164.158844 373.569092,165.176910 347.930206,165.656403 
	C339.343292,165.816971 330.659088,165.011246 322.024384,164.466110 
	C306.505188,163.486328 291.147980,165.816315 275.901367,168.640579 
	C271.489563,169.457809 267.094788,170.366928 262.291412,171.232391 
z"/>
<path fill="#000000" opacity="1.000000" stroke="none" 
	d="
M376.743530,343.105103 
	C377.685913,337.935028 380.889465,335.947632 385.378143,336.397247 
	C389.327332,336.792755 391.759888,339.525940 391.812714,343.434753 
	C391.868652,347.575470 389.316711,350.188660 385.244263,350.984863 
	C380.905060,351.833252 377.825439,349.048889 376.743530,343.105103 
z"/>
<path fill="#000000" opacity="1.000000" stroke="none" 
	d="
M466.900146,317.725067 
	C467.568420,316.982025 467.994476,316.442657 468.536652,316.073883 
	C469.856781,315.176025 471.191711,313.525818 472.905792,314.954590 
	C474.327118,316.139343 473.271301,317.467621 472.245331,318.317963 
	C470.670654,319.623108 469.164856,321.749725 466.732605,319.854828 
	C466.429382,319.618530 466.703949,318.640625 466.900146,317.725067 
z"/>
<path fill="#000000" opacity="1.000000" stroke="none" 
	d="
M502.319550,177.709091 
	C503.555817,178.904114 504.646301,179.958054 503.416595,181.316269 
	C502.220245,182.637589 500.928162,181.693649 499.857239,180.978226 
	C498.486572,180.062561 497.220093,178.971817 497.378876,177.094757 
	C499.199158,175.592773 500.590515,176.723358 502.319550,177.709091 
z"/>
<path fill="#000000" opacity="1.000000" stroke="none" 
	d="
M342.547913,236.188538 
	C338.718628,248.769043 328.659271,256.855072 317.042145,257.014618 
	C304.348572,257.188995 292.596588,249.053284 288.548615,237.289093 
	C284.783173,226.345978 291.950226,212.139481 303.906128,207.055756 
	C312.073059,203.583115 320.532318,204.561615 328.963104,205.766693 
	C329.713715,205.873978 330.833344,206.338684 331.034943,206.903778 
	C333.751526,214.518417 341.679718,219.220337 342.573273,227.917908 
	C342.847198,230.584320 343.393616,233.149094 342.547913,236.188538 
M307.419983,231.781555 
	C304.050720,234.296631 305.343658,236.833191 307.829163,238.725311 
	C310.971680,241.117538 314.613007,241.483307 318.105225,239.253754 
	C320.108582,237.974731 321.987274,236.279770 321.361725,233.595352 
	C320.763245,231.027084 318.528687,230.005051 316.144989,229.535233 
	C313.195679,228.953888 310.571869,230.039993 307.419983,231.781555 
M299.194000,229.227936 
	C303.593414,231.339767 306.788635,230.630966 308.214111,227.011490 
	C309.700470,223.237488 308.107758,220.662369 304.620361,219.018784 
	C302.123016,217.841782 299.971100,218.640381 298.444977,220.583694 
	C296.380890,223.212051 296.456940,226.055161 299.194000,229.227936 
z"/>
</svg>