<svg version="1.1" id="Layer_1" xmlns="http://www.w3.org/2000/svg" xmlns:xlink="http://www.w3.org/1999/xlink" x="0px" y="0px"
	 width="100%" viewBox="0 0 768 512" enable-background="new 0 0 768 512" xml:space="preserve">
<path fill="#000000" opacity="1.000000" stroke="none" 
	d="
M180.929321,230.358490 
	C183.180359,221.655884 186.554260,213.920853 191.264603,206.751221 
	C195.747604,199.927612 201.713577,195.039017 209.666550,193.071320 
	C213.390320,192.149994 214.685471,189.786804 214.524750,186.593552 
	C213.711075,170.427841 221.560318,158.629944 233.264893,148.718246 
	C236.483780,145.992416 239.037003,142.818878 241.068237,139.092987 
	C265.921783,93.503922 304.824280,68.100594 355.616272,60.618526 
	C393.213470,55.080158 429.618164,59.491276 464.092682,76.405022 
	C492.463562,90.324219 513.372253,111.817055 528.265808,139.423737 
	C529.793152,142.254868 531.670898,144.612579 534.038757,146.816925 
	C540.899414,153.203796 546.690063,160.536133 551.426270,168.622955 
	C554.722839,174.251694 555.380066,180.598465 555.237488,186.979630 
	C555.162170,190.350052 556.354492,192.242493 559.711792,193.060669 
	C568.504700,195.203476 574.540100,200.856140 579.137573,208.440231 
	C585.373535,218.727158 589.772156,229.700012 589.989929,241.770340 
	C590.343933,261.393433 591.832336,281.092682 588.228088,300.597382 
	C586.429260,310.332123 583.467224,319.676453 577.412170,327.721893 
	C572.429382,334.342499 565.876404,338.027283 557.440613,338.408325 
	C549.206665,338.780304 549.223022,338.929993 547.118774,346.829498 
	C545.722717,352.070312 543.314880,356.886841 539.660339,360.817322 
	C534.736572,366.112946 530.794128,371.962646 527.288818,378.268921 
	C512.388855,405.074921 489.209442,420.903015 459.828308,428.096130 
	C452.393738,429.916260 445.720306,432.857605 439.713196,437.591644 
	C430.707550,444.688660 419.851990,447.008728 408.886017,447.991547 
	C389.445099,449.733917 369.960327,449.686401 350.629974,446.356903 
	C343.508636,445.130249 336.466583,443.071960 330.951935,438.314819 
	C322.245941,430.804840 311.573151,428.321594 301.045441,425.292908 
	C275.675354,417.994324 255.922012,403.710144 243.617325,379.825104 
	C240.115768,373.028107 235.968872,366.555725 230.400101,361.124268 
	C225.447800,356.294128 223.024048,350.114258 221.684616,343.477905 
	C221.039612,340.282196 219.479279,338.209473 216.028717,338.384583 
	C196.403534,339.380707 188.940384,326.971802 183.912384,310.114716 
	C177.986404,290.247070 178.367462,269.650299 179.306747,249.148407 
	C179.587662,243.016678 179.438522,236.823685 180.929321,230.358490 
M575.444336,312.454926 
	C579.710266,304.325500 581.384888,295.485474 581.579468,286.488800 
	C581.906860,271.351135 581.839844,256.197815 581.577087,241.057343 
	C581.434021,232.814606 577.995422,225.475571 573.838867,218.279709 
	C573.359863,221.912140 572.373169,224.491104 568.514343,225.852463 
	C566.626160,226.518585 565.647949,229.208420 566.436523,232.266403 
	C567.661987,237.018188 567.010620,242.744644 563.439941,245.696030 
	C556.710876,251.258057 555.842957,258.973480 554.711487,266.175415 
	C553.172424,275.971588 554.240112,286.080566 553.558228,296.057831 
	C553.280701,300.117279 555.001709,304.467072 559.806091,305.759430 
	C565.300537,307.237427 569.395996,305.392212 572.055481,300.739410 
	C573.074036,298.957489 573.516418,296.581696 576.530579,296.643860 
	C576.221069,302.178741 574.748352,307.520050 574.594849,313.514679 
	C572.203308,318.226685 566.506409,320.539337 565.434387,326.208435 
	C570.927673,323.469177 573.684753,318.748444 575.444336,312.454926 
M504.003448,159.045715 
	C504.003448,159.045715 504.164795,159.249146 504.229584,160.000565 
	C505.047943,165.493515 507.464661,170.311127 510.355896,175.302017 
	C512.755310,173.361282 512.457336,170.912079 512.757751,168.707901 
	C512.914307,167.559402 512.431396,165.722351 513.009644,165.327621 
	C517.724609,162.108780 517.796936,156.154816 521.073303,152.149353 
	C523.068054,149.710678 522.558167,147.389694 521.161438,144.792114 
	C505.127167,114.972832 482.143005,92.755905 450.532806,79.903679 
	C448.657562,79.141243 446.855591,78.575813 444.742188,79.092720 
	C433.800385,81.768944 422.516235,83.630585 414.492615,92.768860 
	C413.840912,93.511063 412.902374,93.996635 412.221497,94.718712 
	C407.685089,99.529648 401.949524,101.246300 395.544403,101.267654 
	C389.545746,101.287659 383.535583,101.063492 377.550903,101.359543 
	C367.788055,101.842484 359.088501,99.746948 351.991028,92.537460 
	C349.782867,90.294479 347.252686,88.318268 344.671814,86.501320 
	C334.240662,79.157761 323.411713,74.976112 311.282288,82.868385 
	C310.314880,83.497826 309.166168,83.842392 308.123993,84.363899 
	C281.245026,97.813805 261.528778,118.351967 248.023590,145.053696 
	C246.815018,147.443207 246.683273,149.357285 248.202377,151.946976 
	C251.655838,157.834198 254.342468,164.182907 255.833984,170.868927 
	C256.466248,173.703278 258.105621,176.718369 256.396484,180.203354 
	C254.128540,178.546738 254.232300,176.200211 253.422562,174.322128 
	C252.518204,172.224548 252.375641,169.757828 250.446259,168.043427 
	C247.490829,168.919907 246.100586,171.551178 244.114410,173.482254 
	C242.877899,174.684494 241.230713,176.097748 240.036270,173.929596 
	C238.069199,170.359009 234.796600,168.011414 232.164108,164.961960 
	C233.674255,162.098343 235.810776,160.105896 237.972076,158.025879 
	C240.732803,155.368958 243.458084,157.298721 247.076218,158.144089 
	C245.442993,155.521286 244.357178,153.777573 243.371368,152.194473 
	C228.817749,161.990982 222.714951,174.862183 222.994141,192.245865 
	C223.603745,230.202347 223.775040,268.159058 226.453781,306.041931 
	C227.156860,315.984741 227.643311,325.969238 229.324112,335.831207 
	C230.700317,343.906067 232.194565,351.672180 238.971405,357.603607 
	C243.560287,361.619995 247.099030,366.856659 250.118332,372.271149 
	C254.661285,380.417877 259.369263,388.333618 265.727661,395.371735 
	C272.133514,402.462494 281.781952,404.123718 288.475952,410.730957 
	C292.161316,414.368500 298.087769,415.064545 303.173248,416.680634 
	C314.399261,420.248047 325.970337,422.918365 335.201782,431.141144 
	C338.934204,434.465698 343.994019,435.785980 348.814392,437.191589 
	C351.095520,437.856720 353.118866,437.371338 353.498108,434.944611 
	C354.331787,429.609802 353.056000,424.374512 351.912231,419.192322 
	C351.597412,417.766113 350.076477,417.351746 348.788849,416.973602 
	C343.688721,415.475983 338.641693,413.904236 333.309204,413.188568 
	C319.967682,411.398041 306.520477,409.934723 294.082550,404.143951 
	C280.829437,397.973694 268.795319,390.468384 263.177795,375.958344 
	C260.592957,369.281769 258.348755,362.494019 256.670959,355.518311 
	C250.698425,330.686737 248.084534,305.452454 246.350784,279.999878 
	C244.581299,254.022339 245.278275,228.731567 257.795715,205.080978 
	C259.006836,202.792709 259.034332,200.435654 258.944855,197.853241 
	C258.812622,194.037567 256.559113,189.966202 258.238281,186.561783 
	C261.092834,180.774261 261.190826,174.239975 263.866486,168.579330 
	C266.532959,162.938217 264.892883,158.782990 261.078186,154.656097 
	C259.575531,153.030487 257.518066,151.504517 257.522980,148.163300 
	C261.797852,151.067429 264.099915,154.989502 267.637207,158.149399 
	C272.127167,149.599396 278.092438,142.595337 283.040680,134.899567 
	C286.667328,129.259216 290.999207,123.989922 296.109802,119.890411 
	C307.134583,111.046768 319.764526,105.019447 333.712433,102.116989 
	C343.893677,99.998352 353.863129,99.108269 362.407562,107.070702 
	C364.509583,109.029556 367.514801,109.723175 370.380798,109.421875 
	C378.692261,108.548088 387.025299,108.878448 395.347748,108.684853 
	C399.441589,108.589607 403.654816,108.075539 406.632782,105.315285 
	C414.393097,98.122368 423.110016,98.979034 431.903046,101.940445 
	C462.643890,112.293694 487.355499,130.402740 504.003448,159.045715 
M268.420624,376.046844 
	C271.877197,383.409790 277.635498,388.567474 284.351227,392.863922 
	C286.268646,394.090607 288.085144,395.005096 290.954376,393.171906 
	C290.298950,396.841522 292.511871,397.946381 294.514313,399.023102 
	C301.297058,402.670258 308.393219,405.496552 316.066620,406.656494 
	C323.959839,407.849670 331.873932,408.919189 339.742798,410.255310 
	C349.962158,411.990479 350.833496,414.228241 354.882904,401.615814 
	C357.554626,393.294403 362.982178,386.430267 371.344604,383.171448 
	C379.761841,379.891296 388.769745,379.973724 397.413666,382.335236 
	C403.650574,384.039185 409.288055,386.935028 412.250610,393.705292 
	C414.564545,398.993256 418.047974,403.785553 421.188843,408.684570 
	C421.996094,409.943665 422.606293,412.341736 424.701660,411.627747 
	C430.537018,409.639221 437.074432,410.015808 442.509491,407.478912 
	C452.200226,402.955536 462.349426,399.776276 472.207336,395.790985 
	C482.320374,391.702576 493.893799,390.424805 499.180817,377.888611 
	C501.698181,371.919556 505.451965,366.241272 507.626129,359.973236 
	C511.846741,347.805298 513.441162,335.078979 515.310669,322.405884 
	C518.545715,300.475830 520.736389,278.440979 520.456482,256.281952 
	C520.299194,243.826004 519.324524,231.248901 513.069214,219.922943 
	C508.957947,212.478912 507.717041,204.696838 509.275940,196.307480 
	C509.870758,193.106308 511.237183,189.659912 509.875031,186.483459 
	C502.965790,170.371307 498.481476,153.056427 485.129974,140.244019 
	C467.782776,123.597282 448.680450,110.173912 424.808685,104.839378 
	C419.358673,103.621483 413.753448,103.043663 410.228210,109.100121 
	C409.574646,110.222992 408.194000,110.110916 407.084137,110.382751 
	C393.677704,113.666336 380.027191,113.270523 366.408264,112.837524 
	C362.538971,112.714500 358.682648,110.960167 356.140625,108.162064 
	C353.263580,104.995193 349.944580,104.840942 346.426361,104.474609 
	C345.538422,106.238426 348.835266,106.211327 347.430298,108.013710 
	C345.365204,109.043549 343.073730,108.426659 341.245361,107.605919 
	C338.073608,106.182137 335.251221,106.604378 332.087799,107.474411 
	C315.610229,112.006210 301.198456,120.171867 289.876007,132.912735 
	C280.041473,143.979324 271.660034,155.956116 266.868622,170.484512 
	C261.962830,185.359680 265.224609,201.253998 259.463104,216.581207 
	C266.991669,210.519623 272.225494,202.770950 280.288513,197.606491 
	C281.524475,201.040497 279.539368,202.550278 278.258911,204.022171 
	C273.668335,209.299042 268.772003,214.310516 264.197784,219.600845 
	C261.953491,222.196426 259.721558,223.979843 256.099884,222.008713 
	C250.973770,233.484161 250.452011,245.317719 250.247070,257.110260 
	C249.832443,280.967773 251.836639,304.733917 255.609985,328.228638 
	C258.183594,344.253235 261.140869,360.402863 268.420624,376.046844 
M545.832275,274.504395 
	C545.935730,270.508270 546.036987,266.512085 546.143005,262.516022 
	C546.301941,256.526398 546.634094,250.534668 546.558350,244.548065 
	C546.515991,241.200989 546.415161,237.460754 540.930298,239.224777 
	C538.463928,240.018005 537.031372,238.496506 536.644470,235.760193 
	C535.636719,228.634003 535.780579,221.483871 535.861633,214.331467 
	C535.877625,212.916672 535.709473,211.277634 537.915466,210.226196 
	C539.101379,218.314713 537.196167,226.543854 540.161804,234.371124 
	C543.220032,234.076447 543.754822,232.083450 543.688232,229.800079 
	C543.479492,222.647430 544.061707,215.483414 543.169800,208.334335 
	C542.815002,205.490326 542.273254,202.542526 543.349426,198.510101 
	C548.174622,207.532455 545.215576,216.309113 546.752441,225.690002 
	C546.752441,213.893906 546.133118,203.192947 546.902710,192.592834 
	C547.965027,177.960037 541.710327,166.876144 531.954712,157.051025 
	C527.243652,152.306381 526.320862,152.657272 522.996826,158.402130 
	C515.731384,170.958862 515.727356,185.169281 513.219482,198.832169 
	C512.066406,205.113754 513.611877,210.739471 516.323730,216.162415 
	C522.406250,228.326004 525.207520,241.269470 525.126160,254.746796 
	C524.922791,288.454895 521.448914,321.838928 514.283813,354.803162 
	C512.910828,361.119781 511.648712,367.863251 508.875000,373.335022 
	C504.668579,381.633148 498.986176,389.426910 490.963959,395.112061 
	C474.691437,406.643951 456.518280,412.155670 436.816254,413.317505 
	C430.401215,413.695770 424.282135,415.871552 418.816040,418.716858 
	C415.036316,420.684326 416.894867,426.408691 415.592194,430.290131 
	C415.385773,430.905304 415.382019,431.606628 415.377960,432.268677 
	C415.352386,436.436371 417.282562,437.955200 421.377594,437.031891 
	C427.355560,435.684021 432.668793,432.822144 437.368774,429.081909 
	C443.261932,424.392212 449.915741,421.659790 457.074371,419.789581 
	C460.614105,418.864838 464.115356,417.775482 467.595001,416.640900 
	C487.211456,410.244659 503.387421,399.391602 514.639954,381.578430 
	C520.843750,371.757690 526.304382,361.371918 534.459290,352.850281 
	C535.784302,351.465637 536.769531,349.477661 537.238525,347.600342 
	C539.211548,339.702393 541.427612,331.815582 542.635010,323.786346 
	C545.038147,307.804382 545.523926,291.647858 545.832275,274.504395 
M418.856964,77.696404 
	C422.611145,77.910805 426.474152,78.693123 429.732513,75.863838 
	C423.821503,65.634659 355.418091,63.874744 340.149628,73.343727 
	C340.309448,76.059433 341.818390,77.164780 344.441864,76.909180 
	C346.593964,76.699493 348.745483,76.480461 350.893555,76.233215 
	C373.315308,73.652405 395.692169,73.248528 418.856964,77.696404 
M192.339142,237.133713 
	C192.624481,234.248199 193.290543,231.331757 191.245438,228.585831 
	C186.145248,252.094574 186.651443,275.604645 191.006699,299.128357 
	C191.739441,291.222412 191.669830,283.311615 191.755463,275.402557 
	C191.890366,262.942078 191.103134,250.471420 192.339142,237.133713 
M244.923294,168.208160 
	C245.980148,166.606934 248.080170,165.718124 248.259079,163.285202 
	C246.779236,161.835800 244.784225,161.566376 242.885132,161.059998 
	C240.822144,160.509949 239.724380,161.793228 238.902573,163.275864 
	C237.498505,165.808884 239.824066,167.209854 240.897385,168.927505 
	C242.147369,170.927887 243.361496,169.788208 244.923294,168.208160 
M567.743469,214.863770 
	C566.982788,213.908997 566.518372,212.431534 564.666016,213.192398 
	C564.067139,215.685074 564.403748,218.088226 567.281189,218.376511 
	C569.209839,218.569763 568.587769,216.673157 567.743469,214.863770 
M206.908752,223.987595 
	C208.409760,222.923111 209.434128,221.660431 207.751740,220.029526 
	C206.725876,219.035065 205.471344,219.460785 204.831528,220.556839 
	C203.848129,222.241531 204.002151,223.715561 206.908752,223.987595 
z"/>
<path fill="#000000" opacity="1.000000" stroke="none" 
	d="
M450.977295,311.338989 
	C442.311249,309.271210 435.071472,305.389069 428.660248,299.819122 
	C420.709900,292.912079 417.542084,284.207886 418.923981,273.915558 
	C420.527161,261.975311 426.005981,251.681412 434.333527,243.270950 
	C438.659851,238.901581 444.534760,236.763412 450.869202,234.957184 
	C459.328156,232.545181 465.933380,236.603119 471.799988,239.576706 
	C485.326294,246.432755 495.532257,257.295166 497.902283,273.322510 
	C498.830475,279.599426 496.112061,285.729218 496.217316,292.073395 
	C496.250946,294.098663 493.250458,294.059296 491.928101,295.716156 
	C487.094208,301.773163 480.831604,306.142456 473.764130,309.417206 
	C466.500885,312.782623 459.077454,313.363922 450.977295,311.338989 
M442.900604,276.896759 
	C451.512756,279.484650 459.535126,272.159119 457.435822,263.498322 
	C456.483002,259.567230 454.083252,256.541473 450.076355,255.428467 
	C446.131744,254.332748 443.391235,256.676453 441.173370,259.541412 
	C437.504608,264.280609 438.074005,272.039337 442.900604,276.896759 
M434.760071,284.135803 
	C436.429901,281.720032 435.645599,279.800812 433.509521,278.207611 
	C432.379578,277.364807 431.318512,277.664062 430.478760,278.686920 
	C429.325714,280.091339 427.983765,281.539093 429.336761,283.493744 
	C430.604126,285.324707 432.187195,286.262024 434.760071,284.135803 
M453.332703,246.460281 
	C451.006134,247.325958 448.173401,246.937363 446.048615,249.278366 
	C449.228180,251.249527 452.177673,251.426468 454.956604,249.442139 
	C457.108307,247.905655 456.407806,246.799728 453.332703,246.460281 
z"/>
<path fill="#000000" opacity="1.000000" stroke="none" 
	d="
M338.592102,303.297974 
	C332.291656,305.912354 326.179260,309.218353 319.650635,310.993744 
	C306.984985,314.438110 296.572418,308.943878 288.320221,300.037933 
	C273.020691,283.526306 273.661896,268.883606 280.828369,251.132782 
	C282.768524,246.327209 287.274658,243.614212 291.255768,240.623215 
	C293.631836,238.838043 296.582886,237.864792 298.474274,235.364456 
	C299.226746,234.369766 300.466949,234.259369 301.671814,234.287003 
	C314.216309,234.574905 326.094849,237.502625 336.955902,243.828018 
	C346.467957,249.367752 352.142151,258.007690 355.454559,268.329010 
	C355.859589,269.591095 356.651276,271.445587 355.378662,272.032135 
	C348.767883,275.079010 349.937103,281.577209 349.960236,286.451691 
	C349.987366,292.154755 348.008362,295.949005 343.853516,299.943726 
	C341.807159,301.351318 340.199646,302.324646 338.592102,303.297974 
M316.100372,250.442917 
	C313.466156,247.787872 310.487793,246.863892 307.296051,249.266525 
	C302.123535,253.160187 300.983185,259.434662 298.525299,264.905243 
	C298.272003,265.469025 298.879608,266.478973 299.202667,267.232666 
	C301.493561,272.577423 307.431702,275.024353 312.901917,272.905396 
	C322.207794,269.300629 323.672882,260.601227 316.100372,250.442917 
M286.967072,260.111969 
	C285.431854,261.213165 285.337341,262.824768 285.359070,264.508911 
	C285.382507,266.326843 286.103851,267.714600 287.804718,268.402496 
	C288.931030,268.858002 290.113525,268.742432 290.963562,267.758606 
	C292.267090,266.249908 291.787628,264.649902 290.844421,263.231323 
	C289.974182,261.922516 289.456848,260.185089 286.967072,260.111969 
z"/>
<path fill="#000000" opacity="1.000000" stroke="none" 
	d="
M459.936462,202.716797 
	C477.303833,206.084732 491.840851,213.346725 501.549866,228.263397 
	C503.237946,230.856934 505.925018,233.337799 504.560791,237.964417 
	C500.622650,234.475510 497.075043,231.328125 492.844666,229.085251 
	C472.164062,218.120667 451.269714,216.102142 429.882599,227.032211 
	C425.524445,229.259491 423.818420,228.084259 423.701477,223.140335 
	C423.428925,211.618332 432.956573,202.522293 446.114502,201.759338 
	C450.614166,201.498413 455.082977,201.752075 459.936462,202.716797 
z"/>
<path fill="#000000" opacity="1.000000" stroke="none" 
	d="
M292.548950,208.344223 
	C305.776489,203.079620 318.928223,199.898819 332.754456,203.873734 
	C343.002258,206.819885 346.474762,211.696106 345.253723,220.650543 
	C344.467621,226.415421 342.210114,227.820740 336.891418,225.696823 
	C327.916809,222.112991 319.048828,218.343170 308.988922,219.190628 
	C295.926514,220.291031 283.962128,224.125443 273.577057,232.342606 
	C273.240509,232.608887 272.697388,232.614136 272.030121,232.803711 
	C270.566681,230.064697 272.010406,227.928558 273.259796,225.874130 
	C277.889404,218.261414 284.685791,212.983856 292.548950,208.344223 
z"/>
<path fill="#000000" opacity="1.000000" stroke="none" 
	d="
M357.046448,360.269104 
	C354.192322,361.021545 350.929016,364.434753 349.386353,360.759552 
	C347.900970,357.220734 352.496552,356.813660 354.779968,355.691010 
	C358.649475,353.788605 362.755005,352.370087 366.742004,350.702026 
	C386.342041,342.501740 404.186737,348.347931 421.602875,357.557953 
	C423.103790,358.351654 424.692932,359.458954 423.923615,361.416687 
	C423.060272,363.613708 421.059601,362.777527 419.617432,362.191132 
	C415.925415,360.689850 412.301910,359.008759 408.705322,357.286072 
	C395.529175,350.974854 382.129333,350.707733 368.535156,355.739441 
	C364.797363,357.122955 361.114899,358.655945 357.046448,360.269104 
z"/>
<path fill="#000000" opacity="1.000000" stroke="none" 
	d="
M510.395630,222.482544 
	C509.013611,224.270355 507.863251,223.469666 506.978882,222.425461 
	C503.661438,218.508530 500.071472,214.874268 496.237823,211.463455 
	C495.267548,210.600174 494.180786,209.393372 495.273651,208.050446 
	C496.256470,206.842682 497.846313,207.050323 498.867401,207.963699 
	C503.475281,212.085526 508.964233,215.524796 510.395630,222.482544 
z"/>
<path fill="#000000" opacity="1.000000" stroke="none" 
	d="
M263.354858,340.312653 
	C263.997864,334.529968 264.546448,329.170074 265.144318,323.328644 
	C268.158539,327.001160 267.694519,341.195190 264.634644,348.134064 
	C262.513641,345.789734 262.952484,343.247986 263.354858,340.312653 
z"/>
<path fill="#000000" opacity="1.000000" stroke="none" 
	d="
M380.341553,372.621033 
	C376.621979,373.322693 373.396240,375.193848 369.106934,373.469543 
	C374.336090,368.909302 380.002899,369.854675 386.140900,369.709503 
	C384.606689,372.358887 382.552185,372.192535 380.341553,372.621033 
z"/>
<path fill="#000000" opacity="1.000000" stroke="none" 
	d="
M270.236481,360.263062 
	C269.635986,361.418701 269.052521,361.019867 268.642181,360.485321 
	C266.057495,357.118195 265.941010,350.087677 269.030731,345.041901 
	C269.689758,350.645508 269.010925,355.438507 270.236481,360.263062 
z"/>
<path fill="#000000" opacity="1.000000" stroke="none" 
	d="
M338.404419,303.513641 
	C340.199646,302.324646 341.807159,301.351318 343.650543,300.222900 
	C345.198730,300.437927 347.564117,300.440552 345.785248,302.605438 
	C343.980347,304.802063 341.143829,305.866943 338.345154,305.907776 
	C336.834717,305.929810 337.753876,304.526001 338.404419,303.513641 
z"/>
<path fill="#000000" opacity="1.000000" stroke="none" 
	d="
M231.529297,269.555237 
	C231.864853,282.712677 236.749146,295.098083 234.208618,308.027802 
	C231.845154,289.215790 227.112122,270.709778 227.701096,251.491577 
	C231.492477,256.808624 230.390060,263.206146 231.529297,269.555237 
z"/>
<path fill="#000000" opacity="1.000000" stroke="none" 
	d="
M461.320374,104.655556 
	C463.298553,106.482117 466.703247,106.768715 465.254486,110.770889 
	C464.660583,112.411644 467.367950,113.468468 468.762939,114.574570 
	C472.487366,117.527710 476.821106,119.803268 478.891296,124.764458 
	C475.343414,122.353546 471.835754,119.880501 468.235626,117.550293 
	C465.031250,115.476265 461.744843,113.525894 458.456879,111.584923 
	C455.409973,109.786278 454.863037,106.136055 457.445190,103.832626 
	C458.794189,102.629272 459.879547,103.970436 461.320374,104.655556 
z"/>
<path fill="#000000" opacity="1.000000" stroke="none" 
	d="
M503.919281,158.946884 
	C503.604401,156.684311 503.488434,154.574951 504.915619,152.663666 
	C508.470093,147.903442 510.631531,142.615005 510.824219,136.601364 
	C510.844666,135.963440 511.067749,135.296524 511.994263,135.211960 
	C513.419922,135.659027 513.307068,136.954865 513.226562,138.045685 
	C512.666138,145.631775 509.860779,152.474823 506.078796,158.964111 
	C505.909912,159.253983 505.185059,159.219818 504.441956,159.292877 
	C504.164795,159.249146 504.003448,159.045715 503.919281,158.946884 
z"/>
</svg>